<?xml version="1.0" encoding="UTF-8"?><svg id="Calque_2" xmlns="http://www.w3.org/2000/svg" xmlns:xlink="http://www.w3.org/1999/xlink" viewBox="0 0 1190.55 841.89"><defs><style>.cls-1{mix-blend-mode:color-dodge;}.cls-2{fill:#fff;}.cls-3{fill:none;}.cls-4{isolation:isolate;}.cls-5{clip-path:url(#clippath);}</style><clipPath id="clippath"><rect class="cls-3" width="1190.55" height="841.89"/></clipPath></defs><g class="cls-5"><g class="cls-4"><g id="Layer_1"><g class="cls-1"><polygon class="cls-2" points="1133.41 779.47 1112.62 768.67 1111.96 769.93 1132.23 780.49 1140.22 806.94 1178.29 826.76 1181.78 837.82 1214.79 855.04 1244.38 845.71 1243.95 844.35 1214.95 853.45 1182.95 836.79 1179.47 825.75 1141.4 805.91 1133.41 779.47"/><polygon class="cls-2" points="1260.3 811.94 1225.46 793.82 1188.25 805.55 1163.27 792.57 1152.14 757.11 1071.57 715.18 1042.91 724.21 1016.23 710.29 1015.55 711.61 1042.78 725.78 1071.45 716.77 1150.92 758.13 1162.09 793.6 1188.08 807.11 1225.34 795.4 1259.65 813.22 1260.3 811.94"/><polygon class="cls-2" points="1084.13 698.59 1029.44 670.17 1014.83 674.77 975.29 654.19 974.63 655.47 1014.7 676.32 1029.31 671.7 1082.94 699.59 1098.7 749.57 1148.85 775.68 1159.8 810.4 1220.48 841.99 1235.98 837.13 1246.07 842.37 1246.71 841.1 1236.15 835.58 1220.66 840.46 1161.04 809.43 1150.08 774.64 1099.87 748.53 1084.13 698.59"/><polygon class="cls-2" points="1238.62 681.16 1216.38 669.55 1181.52 680.51 1152.44 665.37 1054.18 696.3 1030.5 684.01 1029.8 685.3 1054.02 697.89 1152.3 666.91 1181.41 682.1 1216.21 671.12 1237.97 682.47 1238.62 681.16"/><polygon class="cls-2" points="1228.83 767.13 1196.31 750.2 1176.48 756.48 1105.09 719.31 1103.74 721.87 1176.19 759.59 1196.06 753.34 1226.42 769.18 1234.37 794.36 1263.25 809.4 1264.56 806.84 1236.78 792.35 1228.83 767.13"/><polygon class="cls-2" points="1184.55 713.63 1132.92 686.77 1132.26 688.05 1183.36 714.63 1191.06 739.04 1246.87 768.11 1251.81 783.87 1273.44 795.1 1274.1 793.84 1253.04 782.89 1248.05 767.09 1192.24 738.02 1184.55 713.63"/><polygon class="cls-2" points="1233.49 708.97 1210.67 697.1 1136.45 720.5 1104.84 704.09 1093.66 668.48 1016.82 628.48 1010.57 608.62 992.05 599 990.69 601.56 1008.17 610.67 1014.39 630.53 1091.24 670.45 1102.48 706.12 1136.11 723.65 1210.39 700.23 1231.08 711.01 1236.1 726.91 1292.97 756.51 1294.27 753.96 1238.56 724.93 1233.49 708.97"/><polygon class="cls-2" points="1200.8 699.8 1116.54 655.92 1057.64 674.48 1012.8 651.13 1011.4 653.69 1057.33 677.57 1116.22 659 1198.39 701.79 1207.06 729.3 1284.04 769.39 1285.4 766.83 1209.46 727.28 1200.8 699.8"/><polygon class="cls-2" points="1028.48 598.66 999.93 583.8 999.31 585.1 1027.3 599.67 1036.38 628.61 1091.19 657.16 1091.88 655.86 1037.6 627.6 1028.48 598.66"/><polygon class="cls-2" points="1308.33 677.45 1210.28 626.39 1167.96 639.73 1117.91 613.66 1087.96 623.11 1068.1 612.76 1067.46 614.06 1087.83 624.65 1117.74 615.23 1167.79 641.3 1210.11 627.97 1307.16 678.48 1315.57 705.17 1321.8 708.41 1322.49 707.09 1316.75 704.16 1308.33 677.45"/><polygon class="cls-2" points="1309.93 634.76 1227.23 591.71 1214.23 595.81 1169.29 572.4 1080.13 600.53 1001.04 559.35 995.38 541.43 994.02 541.86 999.86 560.36 1080.01 602.07 1169.12 573.98 1214.1 597.36 1227.06 593.27 1308.69 635.76 1311.77 645.53 1344.14 662.37 1344.8 661.11 1313 644.54 1309.93 634.76"/><polygon class="cls-2" points="1133.54 612.03 1065.69 576.69 1064.99 577.99 1132.36 613.04 1144.25 650.76 1233.23 697.12 1246.82 740.06 1290.32 762.69 1290.94 761.46 1247.97 739.08 1234.46 696.11 1145.45 649.79 1133.54 612.03"/><path class="cls-2" d="M1114.83,770.63c.74-1.43.23-3.18-1.19-3.92s-3.19-.18-3.93,1.24c-.73,1.45-.15,3.16,1.23,3.91,1.43.72,3.15.18,3.89-1.22h0Z"/><path class="cls-2" d="M1018.6,712.09c.73-1.45.15-3.16-1.23-3.91-1.43-.74-3.19-.16-3.93,1.24s-.2,3.15,1.23,3.91c1.43.74,3.19.18,3.93-1.24Z"/><path class="cls-2" d="M1033.5,685.57c.74-1.43.15-3.16-1.23-3.91-1.47-.73-3.19-.18-3.93,1.24-.74,1.4-.19,3.19,1.23,3.91,1.41.72,3.18.17,3.93-1.24Z"/><path class="cls-2" d="M1002.64,585.99c.71-1.37.2-3.15-1.27-3.88-1.38-.73-3.15-.18-3.9,1.21-.74,1.43-.15,3.18,1.24,3.93,1.43.74,3.15.2,3.92-1.27Z"/><path class="cls-2" d="M1094.15,657.86c.73-1.45.18-3.19-1.23-3.91-1.43-.74-3.2-.2-3.93,1.24-.74,1.4-.19,3.17,1.23,3.91s3.19.18,3.93-1.24Z"/><path class="cls-2" d="M1070.67,615.16c.74-1.43.15-3.16-1.27-3.88-1.43-.74-3.12-.21-3.89,1.22-.71,1.39-.2,3.15,1.22,3.89,1.43.74,3.19.18,3.93-1.24h0Z"/><path class="cls-2" d="M1083.37,602.23c.76-1.4.19-3.19-1.18-3.88-1.44-.77-3.2-.2-3.9,1.21-.74,1.43-.19,3.17,1.22,3.89,1.38.76,3.15.2,3.85-1.21h.01Z"/><path class="cls-2" d="M1183.08,682.63c.71-1.39.16-3.14-1.27-3.86-1.43-.74-3.15-.18-3.85,1.21-.74,1.43-.23,3.17,1.14,3.9,1.47.74,3.2.2,3.98-1.25Z"/><path class="cls-2" d="M1193.76,740.47c.74-1.43.18-3.19-1.24-3.93-1.43-.72-3.15-.18-3.89,1.22-.73,1.45-.19,3.16,1.23,3.91,1.43.74,3.19.18,3.9-1.21h0Z"/><path class="cls-2" d="M1074.05,717.31c.73-1.45.19-3.19-1.23-3.91-1.43-.74-3.15-.18-3.88,1.24-.71,1.39-.2,3.13,1.17,3.87,1.47.74,3.2.2,3.95-1.2h0Z"/><path class="cls-2" d="M1135.17,689.27c.71-1.39.15-3.16-1.23-3.91-1.43-.74-3.14-.16-3.88,1.27s-.23,3.17,1.18,3.89c1.44.77,3.19.18,3.93-1.24Z"/><path class="cls-2" d="M1170.7,642.09c.74-1.4.2-3.15-1.22-3.87-1.38-.73-3.15-.18-3.89,1.22-.71,1.39-.15,3.18,1.18,3.89,1.47.74,3.23.17,3.93-1.24Z"/><path class="cls-2" d="M996.77,542.43c.74-1.4.16-3.14-1.22-3.89-1.47-.73-3.19-.18-3.89,1.22-.74,1.43-.23,3.18,1.19,3.9,1.41.72,3.18.17,3.93-1.24h-.01Z"/><path class="cls-2" d="M1068.21,579.09c.74-1.4.2-3.15-1.23-3.91-1.43-.72-3.14-.14-3.85,1.23-.79,1.44-.23,3.18,1.19,3.9,1.43.74,3.19.18,3.89-1.22h0Z"/><path class="cls-2" d="M1147.42,651.57c.74-1.4.23-3.17-1.18-3.89-1.46-.71-3.19-.16-3.93,1.24-.76,1.38-.2,3.15,1.28,3.9,1.38.73,3.09.17,3.84-1.25Z"/><path class="cls-2" d="M1101.84,750.42c.78-1.46.19-3.17-1.23-3.91-1.38-.76-3.18-.16-3.89,1.22-.74,1.43-.2,3.16,1.22,3.89,1.43.74,3.2.2,3.9-1.2h0Z"/><path class="cls-2" d="M1143.82,807.73c.74-1.43.15-3.18-1.23-3.91-1.41-.72-3.19-.18-3.93,1.24-.74,1.4-.18,3.19,1.23,3.91,1.43.74,3.19.19,3.93-1.24Z"/><path class="cls-2" d="M1184.93,838.73c.74-1.4.2-3.16-1.22-3.87-1.38-.73-3.12-.23-3.85,1.21-.74,1.4-.19,3.17,1.18,3.88,1.43.74,3.19.18,3.89-1.22Z"/><path class="cls-2" d="M1190.54,807.39c.74-1.4.19-3.17-1.28-3.9-1.38-.73-3.15-.2-3.85,1.21-.74,1.4-.22,3.2,1.23,3.91,1.38.73,3.15.18,3.89-1.22Z"/><path class="cls-2" d="M1154.04,758.96c.79-1.41.23-3.17-1.18-3.89-1.43-.74-3.16-.21-3.93,1.24-.71,1.39-.16,3.14,1.22,3.87,1.47.74,3.18.17,3.89-1.22Z"/><path class="cls-2" d="M978.18,656.51c.74-1.43.14-3.2-1.24-3.93-1.41-.72-3.15-.18-3.88,1.24-.74,1.43-.23,3.18,1.22,3.89,1.43.74,3.15.2,3.9-1.2h0Z"/><path class="cls-2" d="M1015.96,654.42c1.04-2.01.27-4.48-1.74-5.54-2-1.02-4.47-.29-5.54,1.74-1.04,2.03-.21,4.5,1.74,5.54,2.05,1.05,4.5.26,5.54-1.74Z"/><path class="cls-2" d="M1108.39,722.5c1.04-2.01.27-4.48-1.73-5.5-2.04-1.01-4.5-.28-5.54,1.74-1.05,1.99-.28,4.46,1.78,5.51,1.96,1.03,4.41.27,5.5-1.75h0Z"/><path class="cls-2" d="M1180.34,759.78c1.04-2.01.31-4.47-1.69-5.51-2.04-1.03-4.5-.27-5.54,1.72-1.04,2.03-.3,4.51,1.7,5.55,2.04,1.03,4.49.24,5.53-1.77Z"/><path class="cls-2" d="M994.71,601.73c1-2,.22-4.47-1.74-5.52-2-1.02-4.49-.23-5.54,1.74-1.04,2.03-.28,4.46,1.74,5.52,2,1.02,4.49.23,5.54-1.74Z"/><path class="cls-2" d="M1185.53,831.83c3.33,1.73,4.64,5.89,2.9,9.21-1.74,3.31-5.91,4.63-9.2,2.9-3.33-1.73-4.64-5.89-2.95-9.2,1.73-3.33,5.9-4.65,9.23-2.91h.01ZM1179.75,842.87c2.8,1.46,6.22.4,7.64-2.36,1.43-2.76.35-6.18-2.44-7.59-2.72-1.48-6.17-.39-7.59,2.39-1.43,2.74-.36,6.14,2.38,7.57h.01Z"/><path class="cls-2" d="M1144.59,801.04c3.33,1.73,4.64,5.89,2.9,9.21-1.69,3.32-5.87,4.63-9.2,2.9s-4.64-5.89-2.9-9.21c1.74-3.31,5.91-4.63,9.2-2.9ZM1138.84,812.08c2.8,1.46,6.21.38,7.64-2.36,1.46-2.8.35-6.18-2.44-7.59-2.72-1.48-6.13-.4-7.58,2.39-1.43,2.74-.36,6.14,2.38,7.57h0Z"/><path class="cls-2" d="M1115.41,763.81c3.33,1.75,4.59,5.88,2.9,9.2-1.73,3.33-5.86,4.65-9.23,2.91-3.33-1.73-4.58-5.86-2.85-9.19,1.73-3.33,5.86-4.65,9.19-2.91h-.01ZM1109.63,774.88c2.79,1.41,6.17.39,7.63-2.4,1.43-2.74.35-6.18-2.4-7.6-2.75-1.47-6.17-.37-7.63,2.4-1.43,2.74-.35,6.18,2.4,7.6Z"/><path class="cls-2" d="M1191.17,799.84c3.34,1.78,4.64,5.89,2.9,9.21-1.74,3.31-5.87,4.63-9.2,2.9s-4.64-5.89-2.9-9.21c1.74-3.31,5.87-4.62,9.2-2.9ZM1185.4,810.93c2.79,1.41,6.2.34,7.67-2.41,1.43-2.74.35-6.18-2.45-7.61-2.75-1.45-6.16-.37-7.58,2.39-1.47,2.78-.35,6.16,2.36,7.64Z"/><path class="cls-2" d="M1019.07,705.29c3.33,1.73,4.64,5.89,2.9,9.21-1.73,3.31-5.91,4.63-9.23,2.91-3.29-1.74-4.59-5.9-2.9-9.21,1.73-3.31,5.91-4.63,9.23-2.91ZM1013.28,716.34c2.8,1.46,6.21.38,7.64-2.36,1.46-2.8.35-6.18-2.44-7.59-2.72-1.49-6.14-.43-7.58,2.39-1.44,2.74-.36,6.14,2.38,7.56Z"/><path class="cls-2" d="M1070.91,607.39c3.33,1.75,4.64,5.89,2.9,9.21-1.74,3.31-5.87,4.6-9.2,2.9-3.33-1.73-4.64-5.89-2.9-9.21,1.73-3.33,5.87-4.63,9.2-2.9ZM1065.13,618.46c2.8,1.44,6.21.36,7.64-2.38,1.47-2.78.35-6.18-2.4-7.6-2.8-1.46-6.21-.38-7.58,2.39-1.47,2.75-.4,6.15,2.35,7.6h0Z"/><path class="cls-2" d="M996.76,535.41c3.32,1.71,4.63,5.87,2.9,9.19-1.69,3.32-5.87,4.63-9.19,2.89-3.33-1.73-4.64-5.89-2.9-9.19,1.73-3.33,5.9-4.65,9.19-2.89ZM991,546.43c2.75,1.47,6.21.38,7.64-2.36,1.46-2.8.35-6.18-2.4-7.63-2.8-1.44-6.2-.36-7.63,2.4-1.43,2.74-.35,6.16,2.39,7.58h0Z"/><path class="cls-2" d="M1068.3,571.52c3.37,1.73,4.68,5.87,2.94,9.18-1.73,3.33-5.85,4.67-9.2,2.9-3.32-1.71-4.68-5.87-2.94-9.18,1.77-3.36,5.9-4.64,9.19-2.89h.01ZM1062.55,582.57c2.79,1.41,6.2.34,7.64-2.38,1.43-2.74.34-6.2-2.4-7.63-2.75-1.45-6.2-.34-7.63,2.4s-.36,6.14,2.4,7.6h-.01Z"/><path class="cls-2" d="M1003.14,579.33c2.81,1.5,3.96,4.98,2.48,7.85-1.49,2.83-4.98,3.96-7.83,2.47-2.86-1.51-3.96-5-2.48-7.85,1.49-2.85,4.99-3.93,7.83-2.47ZM998.26,588.75c2.33,1.23,5.26.31,6.47-2.04,1.24-2.35.32-5.26-2.07-6.46-2.34-1.27-5.23-.34-6.43,2-1.24,2.36-.33,5.26,2.04,6.49h0Z"/><path class="cls-2" d="M978.03,650.15c2.85,1.49,3.96,5,2.48,7.85-1.5,2.81-4.98,3.93-7.83,2.47-2.85-1.49-3.96-5-2.52-7.84,1.53-2.84,5.02-3.95,7.87-2.48ZM973.14,659.57c2.33,1.23,5.26.31,6.47-2.04,1.24-2.36.33-5.26-2.04-6.49-2.32-1.21-5.25-.29-6.51,2.05-1.2,2.34-.29,5.25,2.08,6.47h0Z"/><path class="cls-2" d="M1033.14,679.24c2.85,1.47,3.96,4.98,2.44,7.86-1.46,2.8-4.99,3.91-7.83,2.47-2.82-1.52-3.93-5.05-2.44-7.86,1.49-2.83,4.98-3.96,7.83-2.47ZM1028.25,688.63c2.32,1.21,5.26.33,6.47-2.02,1.24-2.36.29-5.25-2.04-6.49-2.37-1.23-5.26-.33-6.47,2.04-1.24,2.36-.33,5.24,2.04,6.47Z"/><path class="cls-2" d="M1181.67,749.71c4.5,2.36,6.24,7.91,3.91,12.4-2.34,4.47-7.88,6.21-12.37,3.9-4.49-2.34-6.24-7.89-3.91-12.4,2.34-4.47,7.92-6.23,12.37-3.9ZM1173.93,764.62c3.7,1.92,8.36.48,10.27-3.24,1.92-3.7.47-8.32-3.23-10.25-3.74-1.94-8.32-.49-10.23,3.24-1.97,3.71-.52,8.31,3.19,10.25h0Z"/><path class="cls-2" d="M1109.39,712.09c4.5,2.36,6.24,7.91,3.91,12.4-2.34,4.47-7.88,6.21-12.37,3.9-4.49-2.34-6.24-7.89-3.91-12.4,2.34-4.47,7.88-6.21,12.37-3.9ZM1101.65,727c3.73,1.91,8.36.48,10.27-3.24,1.92-3.7.47-8.32-3.23-10.25-3.73-1.91-8.32-.47-10.27,3.24-1.91,3.71-.47,8.32,3.23,10.25Z"/><path class="cls-2" d="M1016.39,644.3c4.49,2.34,6.24,7.89,3.9,12.38-2.34,4.47-7.92,6.23-12.4,3.91-4.45-2.35-6.2-7.91-3.86-12.38,2.29-4.5,7.87-6.25,12.36-3.91ZM1008.64,659.2c3.7,1.92,8.32.47,10.27-3.24,1.92-3.7.48-8.3-3.29-10.26-3.7-1.92-8.32-.47-10.24,3.22-1.91,3.73-.47,8.34,3.24,10.27h.01Z"/><path class="cls-2" d="M995.69,591.41c4.48,2.32,6.24,7.89,3.9,12.38-2.31,4.46-7.88,6.23-12.36,3.92-4.5-2.36-6.25-7.93-3.91-12.4,2.34-4.47,7.88-6.21,12.37-3.9h0ZM987.98,606.26c3.71,1.97,8.33.51,10.25-3.19,1.96-3.75.46-8.34-3.23-10.26-3.71-1.97-8.32-.49-10.27,3.24-1.92,3.7-.48,8.3,3.26,10.21h-.01Z"/></g><g class="cls-1"><polygon class="cls-2" points="1082.32 76.28 1065.74 92.85 1064.73 91.84 1080.89 75.68 1080.54 48.04 1110.89 17.7 1110.89 6.09 1137.23 -20.26 1168.25 -20.26 1168.25 -18.82 1137.87 -18.78 1112.36 6.72 1112.33 18.3 1081.96 48.67 1082.32 76.28"/><polygon class="cls-2" points="1193.59 7.17 1165.82 34.92 1126.76 34.92 1106.89 54.82 1106.89 91.99 1042.66 156.2 1012.63 156.2 991.39 177.49 990.33 176.44 1012.03 154.75 1042.08 154.72 1105.45 91.37 1105.45 54.18 1126.16 33.5 1165.22 33.46 1192.54 6.14 1193.59 7.17"/><polygon class="cls-2" points="1059.62 168.24 1016.05 211.8 1000.68 211.8 969.2 243.31 968.19 242.3 1000.14 210.35 1015.44 210.38 1058.18 167.65 1058.18 115.24 1098.21 75.25 1098.17 38.86 1146.58 -9.52 1162.81 -9.54 1170.87 -17.58 1171.88 -16.55 1163.41 -8.11 1147.16 -8.11 1099.65 39.41 1099.65 75.89 1059.64 115.88 1059.62 168.24"/><polygon class="cls-2" points="1212.24 138.41 1194.48 156.18 1157.97 156.2 1134.8 179.39 1031.77 179.43 1012.89 198.27 1011.84 197.26 1031.16 177.96 1134.16 177.96 1157.39 154.72 1193.89 154.72 1211.22 137.36 1212.24 138.41"/><polygon class="cls-2" points="1177.04 59.36 1151.1 85.29 1130.33 85.27 1073.42 142.18 1071.34 140.14 1129.11 82.39 1149.91 82.37 1174.15 58.14 1174.15 31.73 1197.15 8.71 1199.2 10.74 1177.04 32.92 1177.04 59.36"/><polygon class="cls-2" points="1150.87 123.7 1109.75 164.85 1108.74 163.82 1149.44 123.11 1149.44 97.52 1193.96 53 1193.93 36.49 1211.15 19.27 1212.18 20.28 1195.4 37.05 1195.4 53.62 1150.92 98.13 1150.87 123.7"/><polygon class="cls-2" points="1198.96 113.43 1180.78 131.61 1102.94 131.61 1077.76 156.77 1077.76 194.1 1016.52 255.35 1016.52 276.16 1001.78 290.91 999.71 288.87 1013.62 274.94 1013.6 254.13 1074.85 192.95 1074.85 155.54 1101.71 128.71 1179.58 128.71 1196.08 112.21 1196.08 95.54 1241.4 50.21 1243.43 52.25 1199.03 96.7 1198.96 113.43"/><polygon class="cls-2" points="1170.57 132.02 1103.35 199.2 1041.65 199.2 1005.86 234.95 1003.8 232.93 1040.42 196.36 1102.13 196.36 1167.67 130.84 1167.62 102.01 1229.04 40.61 1231.1 42.66 1170.57 103.2 1170.57 132.02"/><polygon class="cls-2" points="1036.64 280.29 1013.86 303.04 1012.87 301.98 1035.16 279.67 1035.16 249.35 1078.85 205.63 1079.9 206.66 1036.64 249.94 1036.64 280.29"/><polygon class="cls-2" points="1279.82 120.99 1201.63 199.18 1157.29 199.18 1117.39 239.08 1086 239.08 1070.16 254.92 1069.17 253.87 1085.4 237.64 1116.78 237.64 1156.68 197.72 1201.05 197.72 1278.42 120.35 1278.4 92.38 1283.36 87.42 1284.39 88.47 1279.84 93 1279.82 120.99"/><polygon class="cls-2" points="1294.2 161.23 1228.24 227.15 1214.62 227.15 1178.78 262.99 1085.31 262.96 1022.28 326.02 1022.28 344.82 1020.82 344.82 1020.82 325.41 1084.71 261.54 1178.2 261.54 1214.01 225.71 1227.63 225.71 1292.7 160.64 1292.72 150.41 1318.53 124.61 1319.54 125.62 1294.18 150.98 1294.2 161.23"/><polygon class="cls-2" points="1132.82 235.94 1078.71 290.05 1077.68 289.02 1131.38 235.34 1131.34 195.78 1202.3 124.82 1202.33 79.78 1236.99 45.11 1238 46.1 1203.74 80.37 1203.76 125.4 1132.82 196.36 1132.82 235.94"/><path class="cls-2" d="M1067.28,90.3c1.14,1.14,1.14,2.97,0,4.1-1.12,1.14-2.97,1.14-4.08,0-1.16-1.16-1.14-2.97,0-4.1,1.14-1.12,2.95-1.12,4.08,0Z"/><path class="cls-2" d="M993.07,175.08c1.16,1.16,1.14,2.97,0,4.1s-2.95,1.12-4.1,0c-1.12-1.12-1.12-2.95,0-4.1,1.14-1.14,3.01-1.14,4.1,0Z"/><path class="cls-2" d="M1015.25,195.89c1.14,1.14,1.14,2.97,0,4.1s-2.97,1.14-4.08,0c-1.14-1.12-1.16-2.99,0-4.1,1.12-1.12,2.97-1.12,4.08,0Z"/><path class="cls-2" d="M1015.75,300.13c1.12,1.1,1.14,2.95,0,4.08-1.12,1.12-2.97,1.12-4.08.02-1.16-1.14-1.14-2.99,0-4.13s2.95-1.14,4.08.02h0Z"/><path class="cls-2" d="M1081.42,204.08c1.16,1.16,1.16,2.99,0,4.1-1.14,1.14-2.95,1.16-4.1,0-1.14-1.12-1.12-2.97.02-4.1,1.12-1.14,2.95-1.14,4.08,0Z"/><path class="cls-2" d="M1071.87,251.85c1.16,1.14,1.14,2.97,0,4.08-1.14,1.14-2.95,1.14-4.08,0-1.1-1.12-1.16-2.95,0-4.08,1.12-1.14,2.95-1.14,4.08,0Z"/><path class="cls-2" d="M1087.9,260.38c1.12,1.12,1.14,2.99,0,4.06-1.1,1.16-2.95,1.16-4.08.02-1.14-1.14-1.14-2.97.02-4.08,1.07-1.14,2.92-1.14,4.06,0h0Z"/><path class="cls-2" d="M1158.79,153.71c1.12,1.12,1.12,2.95-.02,4.06-1.12,1.14-2.92,1.12-4.04,0-1.16-1.14-1.16-2.95-.06-4.06,1.14-1.16,2.99-1.16,4.13,0Z"/><path class="cls-2" d="M1151.63,95.33c1.14,1.14,1.14,2.99,0,4.13-1.14,1.12-2.99,1.12-4.13,0-1.1-1.16-1.12-2.95.04-4.1,1.12-1.14,2.97-1.14,4.08-.02h0Z"/><path class="cls-2" d="M1044.4,153.42c1.14,1.16,1.14,2.99,0,4.1-1.12,1.14-2.92,1.12-4.06-.02-1.14-1.12-1.14-2.92-.04-4.04,1.14-1.16,2.99-1.16,4.1-.04Z"/><path class="cls-2" d="M1111.09,161.8c1.14,1.12,1.14,2.97,0,4.1s-2.95,1.1-4.08-.04c-1.1-1.14-1.14-2.95-.02-4.06s2.97-1.14,4.1,0Z"/><path class="cls-2" d="M1159.18,196.1c1.16,1.12,1.16,2.95,0,4.06-1.07,1.12-2.92,1.12-4.06,0-1.12-1.12-1.14-2.99-.04-4.06,1.14-1.16,2.99-1.14,4.1,0Z"/><path class="cls-2" d="M1023.27,343.45c1.14,1.12,1.12,2.95-.02,4.08s-2.95,1.14-4.08,0c-1.12-1.14-1.14-2.97,0-4.08,1.12-1.12,2.99-1.12,4.1,0Z"/><path class="cls-2" d="M1080.41,287c1.14,1.12,1.1,2.95,0,4.1-1.14,1.12-2.97,1.07-4.08-.02-1.14-1.14-1.18-2.97-.04-4.08,1.16-1.14,2.99-1.14,4.13,0h0Z"/><path class="cls-2" d="M1134.16,194.06c1.1,1.12,1.16,2.95,0,4.06-1.14,1.12-2.95,1.12-4.1,0-1.12-1.1-1.12-2.95.02-4.1,1.14-1.12,2.92-1.1,4.08.04Z"/><path class="cls-2" d="M1060.96,113.49c1.14,1.16,1.14,2.97,0,4.1s-2.99,1.12-4.1,0-1.12-2.95.02-4.08c1.14-1.14,2.95-1.16,4.08-.02Z"/><path class="cls-2" d="M1083.74,46.21c1.14,1.14,1.12,2.99,0,4.1-1.14,1.12-2.95,1.14-4.08,0-1.14-1.12-1.16-2.99,0-4.1,1.14-1.14,2.97-1.14,4.08,0Z"/><path class="cls-2" d="M1113.66,4.29c1.14,1.12,1.12,2.95,0,4.06-1.12,1.12-2.95,1.16-4.08,0-1.14-1.12-1.14-2.97-.02-4.06,1.12-1.14,2.97-1.14,4.1,0Z"/><path class="cls-2" d="M1128.44,32.49c1.14,1.12,1.1,2.97-.04,4.1-1.12,1.12-2.95,1.14-4.08,0-1.14-1.12-1.14-2.99,0-4.1s2.99-1.12,4.13,0h0Z"/><path class="cls-2" d="M1108.19,89.65c1.16,1.12,1.16,2.95.02,4.06-1.12,1.14-2.97,1.16-4.1,0-1.12-1.12-1.12-2.95,0-4.06,1.14-1.16,2.95-1.12,4.08,0Z"/><path class="cls-2" d="M971.24,240.24c1.12,1.14,1.12,3.01.02,4.13-1.14,1.12-2.99,1.12-4.13-.02-1.12-1.14-1.14-2.97,0-4.08,1.14-1.14,2.99-1.14,4.1-.02Z"/><path class="cls-2" d="M1007.92,230.87c1.6,1.6,1.6,4.19,0,5.81-1.6,1.57-4.21,1.62-5.81,0-1.62-1.62-1.6-4.23,0-5.81,1.61-1.62,4.19-1.6,5.81,0Z"/><path class="cls-2" d="M1075.57,138.14c1.64,1.6,1.62,4.19.02,5.76-1.62,1.57-4.19,1.62-5.83,0-1.56-1.57-1.57-4.17.06-5.79,1.56-1.57,4.15-1.57,5.74.02Z"/><path class="cls-2" d="M1133.03,80.95c1.6,1.6,1.6,4.17,0,5.76-1.62,1.6-4.17,1.6-5.76.02-1.62-1.62-1.64-4.21-.04-5.81s4.21-1.57,5.81.02h0Z"/><path class="cls-2" d="M1003.47,287.51c1.61,1.6,1.61,4.19,0,5.79-1.57,1.57-4.17,1.57-5.76,0-1.61-1.62-1.61-4.17,0-5.79,1.6-1.57,4.19-1.57,5.76,0Z"/><path class="cls-2" d="M1106.63,10.69c-2.65-2.65-2.65-7.01,0-9.66,2.65-2.63,6.99-2.63,9.64,0,2.65,2.65,2.69,7.01,0,9.66-2.65,2.65-6.99,2.65-9.64,0ZM1107.45,9.82c2.21,2.23,5.81,2.23,7.98,0,2.23-2.19,2.23-5.76.04-7.98s-5.81-2.19-8.02.04c-2.19,2.19-2.19,5.74,0,7.93Z"/><path class="cls-2" d="M1076.87,52.35c-2.65-2.65-2.65-7.01,0-9.66,2.65-2.65,6.99-2.65,9.64,0,2.65,2.65,2.65,7.01,0,9.66-2.65,2.63-6.99,2.63-9.64,0ZM1077.7,51.49c2.23,2.23,5.79,2.23,7.98,0,2.23-2.19,2.23-5.74.04-7.98-2.23-2.19-5.81-2.19-8.02.04-2.19,2.19-2.19,5.74,0,7.93Z"/><path class="cls-2" d="M1060.22,96.62c-2.65-2.65-2.67-6.97-.02-9.61,2.65-2.67,6.99-2.65,9.64,0,2.65,2.65,2.67,6.97,0,9.64-2.65,2.65-6.99,2.63-9.61-.02ZM1061.04,95.8c2.19,2.21,5.76,2.23,7.95,0,2.23-2.19,2.23-5.79.04-7.98-2.23-2.23-5.79-2.19-8,0-2.19,2.19-2.21,5.79,0,7.98h0Z"/><path class="cls-2" d="M1121.66,39.5c-2.65-2.65-2.67-7.01-.02-9.66,2.67-2.65,7.01-2.63,9.64,0,2.65,2.65,2.65,6.97.02,9.66-2.65,2.63-7.01,2.63-9.64,0ZM1122.46,38.66c2.23,2.21,5.79,2.21,8,0,2.19-2.21,2.23-5.81,0-8-2.21-2.19-5.76-2.19-8,0-2.19,2.23-2.19,5.79,0,8Z"/><path class="cls-2" d="M985.91,181.41c-2.65-2.65-2.65-7.01,0-9.66,2.65-2.63,6.99-2.63,9.64,0,2.65,2.65,2.69,7.01,0,9.66-2.65,2.63-6.99,2.63-9.64,0ZM986.73,180.55c2.21,2.25,5.81,2.23,7.98,0,2.23-2.19,2.25-5.74.04-7.98-2.21-2.19-5.81-2.19-8.02.04-2.19,2.19-2.19,5.74,0,7.93Z"/><path class="cls-2" d="M1064.79,259.2c-2.65-2.65-2.65-7.01,0-9.66,2.69-2.63,7.01-2.63,9.66,0,2.63,2.65,2.67,6.99,0,9.66-2.65,2.65-7.01,2.65-9.66,0ZM1065.66,258.34c2.17,2.23,5.74,2.23,7.98,0s2.19-5.76,0-7.98c-2.21-2.19-5.79-2.19-8,.02-2.19,2.21-2.19,5.76.02,7.95Z"/><path class="cls-2" d="M1015.75,350.14c-2.65-2.63-2.65-6.99,0-9.64,2.65-2.65,6.99-2.65,9.64,0s2.65,7.01,0,9.64c-2.65,2.65-6.99,2.65-9.64,0ZM1016.59,349.32c2.19,2.21,5.76,2.21,7.95,0,2.21-2.21,2.23-5.76.04-8-2.23-2.19-5.81-2.19-8.02.04-2.19,2.19-2.17,5.76.02,7.95h0Z"/><path class="cls-2" d="M1073.12,294.2c-2.65-2.63-2.65-7.01,0-9.64,2.69-2.69,7.03-2.65,9.64,0,2.65,2.63,2.69,6.97,0,9.64-2.61,2.65-6.99,2.67-9.64,0ZM1073.96,293.36c2.19,2.19,5.76,2.21,7.98,0,2.21-2.19,2.21-5.81.02-8-2.19-2.17-5.79-2.17-8,.02-2.21,2.23-2.19,5.79,0,7.98Z"/><path class="cls-2" d="M1010.03,306.34c-2.25-2.28-2.23-5.93,0-8.23,2.28-2.28,5.98-2.25,8.21,0,2.3,2.3,2.28,5.96,0,8.23-2.23,2.25-5.93,2.28-8.21,0ZM1010.74,305.63c1.89,1.87,4.9,1.89,6.77-.02,1.89-1.85,1.89-4.9.02-6.77s-4.9-1.87-6.8,0c-1.85,1.87-1.85,4.92,0,6.8h0Z"/><path class="cls-2" d="M964.78,246.34c-2.23-2.28-2.23-5.96.02-8.23,2.25-2.25,5.93-2.23,8.21,0,2.25,2.28,2.25,5.96.02,8.23-2.28,2.25-5.98,2.25-8.25,0ZM965.49,245.62c1.87,1.85,4.95,1.85,6.82,0,1.85-1.87,1.89-4.92,0-6.8-1.87-1.87-4.92-1.87-6.82,0-1.85,1.87-1.85,4.92,0,6.8Z"/><path class="cls-2" d="M1008.59,202.04c-2.23-2.23-2.25-5.93,0-8.23,2.28-2.23,5.98-2.23,8.21,0,2.28,2.3,2.28,5.98.02,8.23-2.25,2.28-5.96,2.25-8.23,0ZM1009.32,201.33c1.89,1.89,4.92,1.89,6.8,0,1.87-1.87,1.87-4.92.02-6.8-1.89-1.87-4.95-1.83-6.82.02-1.85,1.87-1.85,4.9,0,6.77Z"/><path class="cls-2" d="M1124.35,90.15c-3.57-3.59-3.57-9.43-.02-13.01,3.56-3.55,9.41-3.55,12.98,0,3.57,3.57,3.57,9.41-.02,13.01-3.55,3.55-9.41,3.55-12.94,0ZM1125.45,88.99c2.95,2.99,7.78,2.99,10.73.02,2.99-2.97,2.99-7.81.04-10.75-2.99-2.97-7.83-2.95-10.77,0-2.95,2.97-2.95,7.78,0,10.73h0Z"/><path class="cls-2" d="M1066.73,147.78c-3.57-3.59-3.57-9.43-.02-13.01,3.57-3.55,9.41-3.55,12.98,0,3.58,3.57,3.58,9.41-.02,13.01-3.56,3.55-9.39,3.55-12.94,0ZM1067.83,146.64c2.97,2.95,7.78,2.95,10.73,0,2.99-2.97,2.99-7.81.04-10.75-2.99-2.97-7.81-2.95-10.77,0-2.95,2.97-2.95,7.78,0,10.75h0Z"/><path class="cls-2" d="M998.37,240.37c-3.57-3.55-3.57-9.39,0-12.96,3.57-3.55,9.41-3.55,12.96,0,3.57,3.57,3.57,9.41,0,12.98-3.56,3.57-9.39,3.57-12.96-.02ZM999.5,239.29c2.95,2.95,7.76,2.95,10.71,0,2.99-3.01,2.99-7.83.02-10.77s-7.78-2.95-10.75,0c-2.97,2.97-2.97,7.78.02,10.77Z"/><path class="cls-2" d="M994.57,297.06c-3.56-3.55-3.56-9.41.02-13.01,3.54-3.55,9.39-3.53,12.96.02,3.57,3.57,3.57,9.43,0,12.98s-9.43,3.55-12.98,0h0ZM995.67,295.92c2.97,2.97,7.78,2.99,10.73,0,2.99-2.95,2.99-7.76.04-10.75-2.99-2.95-7.81-2.95-10.75.04-2.97,2.95-2.97,7.76-.02,10.71h0Z"/></g><g class="cls-1"><polygon class="cls-2" points="1210.94 331.87 1187.49 331.87 1187.49 330.44 1210.34 330.44 1229.65 310.66 1272.56 310.66 1280.77 302.45 1318.02 302.45 1339.95 324.38 1338.94 325.39 1317.44 303.92 1281.36 303.92 1273.15 312.11 1230.22 312.11 1210.94 331.87"/><polygon class="cls-2" points="1338.48 361.7 1299.21 361.68 1271.59 334.06 1243.47 334.06 1217.21 360.35 1126.37 360.35 1105.16 339.11 1075.06 339.13 1075.06 337.66 1105.75 337.66 1127.01 358.89 1216.62 358.89 1242.91 332.61 1272.18 332.61 1299.84 360.22 1338.48 360.22 1338.48 361.7"/><polygon class="cls-2" points="1129.87 380.85 1068.24 380.85 1057.39 369.98 1012.83 369.98 1012.83 368.56 1058.01 368.56 1068.83 379.39 1129.28 379.41 1166.32 342.37 1222.89 342.37 1248.61 316.64 1317.03 316.64 1328.53 328.1 1339.91 328.1 1339.91 329.56 1327.95 329.56 1316.47 318.06 1249.27 318.06 1223.48 343.84 1166.91 343.83 1129.87 380.85"/><polygon class="cls-2" points="1258.86 467.66 1233.75 467.66 1207.91 441.88 1175.12 441.88 1102.25 369.06 1075.57 369.03 1075.55 367.59 1102.86 367.59 1175.71 440.43 1208.54 440.43 1234.34 466.24 1258.88 466.19 1258.86 467.66"/><polygon class="cls-2" points="1289.86 386.89 1253.2 386.89 1238.5 372.17 1158.03 372.17 1158.01 369.27 1239.69 369.27 1254.42 383.98 1288.68 383.98 1307.38 365.29 1339.91 365.29 1339.91 368.17 1308.56 368.19 1289.86 386.89"/><polygon class="cls-2" points="1225.88 413.89 1167.71 413.89 1167.71 412.46 1225.3 412.46 1243.4 394.36 1306.32 394.36 1318 382.66 1342.35 382.66 1342.35 384.1 1318.64 384.1 1306.93 395.81 1243.98 395.83 1225.88 413.89"/><polygon class="cls-2" points="1267.15 440.62 1241.43 440.62 1186.39 385.58 1150.79 385.56 1124.39 411.98 1037.79 411.98 1023.08 426.69 1002.2 426.69 1002.2 423.78 1021.88 423.78 1036.58 409.05 1123.17 409.08 1149.61 382.66 1187.58 382.66 1242.63 437.71 1265.97 437.71 1277.76 425.93 1341.84 425.93 1341.84 428.81 1279 428.83 1267.15 440.62"/><polygon class="cls-2" points="1233.92 433.69 1138.9 433.67 1095.24 390.02 1044.67 390.02 1044.66 387.11 1096.4 387.13 1140.05 430.79 1232.7 430.79 1253.07 410.39 1339.91 410.39 1339.91 413.3 1254.3 413.3 1233.92 433.69"/><polygon class="cls-2" points="1034.36 443.82 1002.18 443.82 1002.22 442.36 1033.77 442.36 1055.22 420.9 1117 420.9 1117.02 422.35 1055.82 422.35 1034.36 443.82"/><polygon class="cls-2" points="1318.97 503.15 1208.41 503.15 1177.06 471.79 1120.61 471.79 1098.42 449.6 1076.01 449.6 1076.05 448.16 1099.01 448.16 1121.19 470.31 1177.64 470.31 1209 501.67 1318.42 501.67 1338.18 481.89 1345.21 481.89 1345.21 483.36 1338.77 483.36 1318.97 503.15"/><polygon class="cls-2" points="1300.68 541.74 1207.44 541.74 1197.81 532.11 1147.13 532.11 1081.04 465.98 991.89 465.98 978.58 479.27 977.57 478.27 991.3 464.54 1081.63 464.54 1147.72 530.63 1198.39 530.67 1208.02 540.27 1300.05 540.27 1307.29 533.07 1343.79 533.03 1343.79 534.5 1307.92 534.5 1300.68 541.74"/><polygon class="cls-2" points="1133.74 480.45 1057.22 480.45 1057.22 479.03 1133.15 479.03 1161.11 451.04 1261.44 451.04 1293.32 419.21 1342.35 419.21 1342.35 420.62 1293.9 420.62 1262.06 452.46 1161.73 452.46 1133.74 480.45"/><path class="cls-2" d="M1190.37,331.15c0,1.6-1.29,2.9-2.88,2.9s-2.9-1.31-2.9-2.9,1.31-2.88,2.9-2.88,2.86,1.29,2.88,2.88Z"/><path class="cls-2" d="M1077.96,338.63c0,1.62-1.31,2.9-2.9,2.9s-2.88-1.31-2.9-2.9c0-1.57,1.31-2.88,2.9-2.9,1.6,0,2.92,1.33,2.9,2.9Z"/><path class="cls-2" d="M1078.93,369.03c0,1.6-1.31,2.88-2.9,2.9-1.6-.02-2.9-1.31-2.9-2.9s1.31-2.92,2.9-2.9c1.6,0,2.9,1.31,2.9,2.9Z"/><path class="cls-2" d="M1005.59,443.09c0,1.56-1.29,2.88-2.9,2.88s-2.88-1.31-2.9-2.88c0-1.62,1.33-2.9,2.92-2.9s2.88,1.29,2.88,2.9Z"/><path class="cls-2" d="M1119.93,421.61c0,1.62-1.31,2.92-2.9,2.9-1.6,0-2.9-1.29-2.9-2.9-.02-1.61,1.31-2.9,2.9-2.9s2.9,1.31,2.9,2.9Z"/><path class="cls-2" d="M1079.4,448.64c0,1.6-1.31,2.86-2.9,2.86s-2.86-1.27-2.88-2.86c.02-1.58,1.27-2.9,2.88-2.9s2.9,1.31,2.9,2.9Z"/><path class="cls-2" d="M1084.71,465.98c0,1.6-1.31,2.9-2.86,2.9s-2.9-1.31-2.9-2.9,1.31-2.9,2.9-2.86c1.55-.04,2.86,1.27,2.86,2.86Z"/><path class="cls-2" d="M1129.57,359.61c-.02,1.62-1.31,2.9-2.9,2.9s-2.86-1.29-2.86-2.9,1.27-2.86,2.84-2.88c1.62,0,2.92,1.31,2.92,2.88Z"/><path class="cls-2" d="M1170.83,412.69c0,1.6-1.31,2.9-2.9,2.9s-2.86-1.31-2.86-2.9c.02-1.6,1.27-2.9,2.86-2.9s2.9,1.31,2.9,2.9Z"/><path class="cls-2" d="M1180.57,470.95c.02,1.6-1.29,2.9-2.88,2.86-1.55.04-2.86-1.27-2.86-2.86s1.31-2.9,2.84-2.9c1.62,0,2.92,1.31,2.9,2.9h0Z"/><path class="cls-2" d="M980.27,479.03c0,1.6-1.31,2.86-2.9,2.86s-2.9-1.27-2.88-2.86c0-1.6,1.29-2.9,2.88-2.9s2.9,1.31,2.9,2.9Z"/><path class="cls-2" d="M1060.59,479.49c0,1.6-1.31,2.9-2.9,2.9s-2.86-1.31-2.86-2.86c0-1.64,1.27-2.95,2.86-2.95,1.6.04,2.9,1.35,2.9,2.9h0Z"/><path class="cls-2" d="M1164.3,451.79c0,1.6-1.27,2.9-2.86,2.9-1.6-.04-2.88-1.31-2.9-2.9-.02-1.61,1.31-2.88,2.92-2.88s2.84,1.29,2.84,2.88Z"/><path class="cls-2" d="M1169.52,343.09c0,1.62-1.31,2.9-2.9,2.9s-2.9-1.33-2.9-2.9,1.31-2.88,2.9-2.88,2.9,1.29,2.9,2.88Z"/><path class="cls-2" d="M1016.45,369.27c0,1.6-1.33,2.9-2.9,2.92-1.6-.02-2.88-1.33-2.88-2.92s1.29-2.9,2.88-2.88c1.6,0,2.9,1.29,2.9,2.88Z"/><path class="cls-2" d="M1049.01,388.57c0,2.28-1.83,4.1-4.1,4.1s-4.1-1.81-4.1-4.1,1.87-4.1,4.1-4.1,4.1,1.83,4.1,4.1Z"/><path class="cls-2" d="M1162.42,370.85c.02,2.28-1.83,4.1-4.06,4.08-2.28-.02-4.13-1.81-4.13-4.1s1.83-4.08,4.13-4.06c2.23-.02,4.06,1.81,4.06,4.08Z"/><path class="cls-2" d="M1005.82,425.48c0,2.25-1.83,4.08-4.08,4.08s-4.08-1.83-4.1-4.08c.02-2.28,1.83-4.08,4.1-4.1,2.25.02,4.08,1.85,4.08,4.1Z"/><path class="cls-2" d="M1180.93,330.63c0-3.74,3.05-6.82,6.8-6.82s6.82,3.07,6.82,6.82-3.05,6.82-6.82,6.82-6.8-3.07-6.8-6.82ZM1182.09,330.63c0,3.12,2.53,5.66,5.64,5.64,3.12,0,5.66-2.52,5.66-5.64s-2.54-5.62-5.66-5.64c-3.09,0-5.64,2.52-5.64,5.64Z"/><path class="cls-2" d="M1068.43,338.03c0-3.74,3.07-6.82,6.82-6.82s6.82,3.07,6.82,6.82-3.05,6.84-6.82,6.82c-3.74,0-6.82-3.07-6.82-6.82ZM1069.62,338.01c-.02,3.16,2.53,5.68,5.64,5.64,3.12.02,5.66-2.49,5.66-5.62s-2.55-5.64-5.68-5.64-5.62,2.52-5.62,5.62h0Z"/><path class="cls-2" d="M1069.21,448.83c0-3.74,3.07-6.82,6.82-6.82,3.76.02,6.82,3.07,6.82,6.82s-3.05,6.8-6.82,6.8-6.82-3.07-6.82-6.8ZM1070.41,448.83c-.04,3.09,2.48,5.62,5.64,5.62s5.64-2.53,5.64-5.62-2.54-5.65-5.66-5.65-5.64,2.53-5.62,5.65Z"/><path class="cls-2" d="M970.21,478.43c0-3.74,3.07-6.82,6.82-6.82s6.82,3.07,6.82,6.82-3.07,6.82-6.82,6.82-6.82-3.07-6.82-6.82ZM971.39,478.43c0,3.12,2.52,5.64,5.64,5.64s5.66-2.48,5.66-5.64-2.55-5.64-5.68-5.64-5.62,2.56-5.62,5.64Z"/><path class="cls-2" d="M1050.33,479.44c0-3.74,3.09-6.82,6.84-6.82s6.82,3.12,6.82,6.82-3.05,6.82-6.84,6.82c-3.72.04-6.82-3.03-6.82-6.82ZM1051.54,479.44c0,3.12,2.53,5.64,5.64,5.64s5.66-2.53,5.66-5.64-2.54-5.65-5.66-5.65-5.64,2.53-5.64,5.65Z"/><path class="cls-2" d="M997.15,443.44c0-3.2,2.61-5.79,5.81-5.81,3.22,0,5.81,2.61,5.81,5.81s-2.61,5.81-5.81,5.81-5.81-2.58-5.81-5.81ZM998.16,443.44c0,2.65,2.13,4.8,4.8,4.77,2.65.04,4.82-2.13,4.8-4.77.02-2.65-2.15-4.8-4.8-4.8s-4.8,2.17-4.8,4.8Z"/><path class="cls-2" d="M1007.57,369.01c.02-3.2,2.63-5.81,5.83-5.81s5.79,2.61,5.81,5.81c0,3.2-2.61,5.81-5.81,5.83-3.2-.02-5.81-2.63-5.83-5.83ZM1008.57,369.01c.02,2.63,2.19,4.8,4.82,4.82,2.65-.02,4.82-2.15,4.82-4.82s-2.17-4.8-4.82-4.8-4.8,2.15-4.82,4.8Z"/><path class="cls-2" d="M1069.88,368.68c0-3.18,2.61-5.81,5.81-5.83,3.2.02,5.81,2.63,5.81,5.81s-2.61,5.83-5.81,5.83-5.79-2.61-5.81-5.81ZM1070.89,368.68c0,2.65,2.15,4.8,4.8,4.8s4.82-2.15,4.82-4.8-2.19-4.8-4.82-4.8-4.8,2.15-4.8,4.8Z"/><path class="cls-2" d="M1149.35,371.4c0-5.07,4.13-9.2,9.18-9.2s9.18,4.13,9.18,9.18-4.13,9.18-9.2,9.18-9.16-4.13-9.16-9.16h0ZM1150.94,371.37c0,4.19,3.41,7.59,7.6,7.59s7.61-3.41,7.61-7.59-3.44-7.59-7.61-7.59-7.6,3.41-7.6,7.59Z"/><path class="cls-2" d="M1035.56,388.55c-.02-5.05,4.1-9.18,9.16-9.18s9.18,4.13,9.18,9.18-4.13,9.18-9.18,9.18-9.18-4.13-9.16-9.18ZM1037.12,388.57c0,4.17,3.41,7.57,7.57,7.57s7.64-3.41,7.64-7.59c-.02-4.19-3.44-7.59-7.61-7.59s-7.59,3.41-7.59,7.61h0Z"/><path class="cls-2" d="M992.77,425.93c0-5.03,4.13-9.18,9.2-9.18s9.16,4.15,9.16,9.18-4.13,9.2-9.18,9.18c-5.05,0-9.18-4.13-9.18-9.18ZM994.35,425.93c0,4.19,3.41,7.61,7.59,7.59,4.19.02,7.61-3.39,7.61-7.59s-3.42-7.6-7.61-7.58c-4.19-.02-7.59,3.41-7.59,7.58Z"/></g></g></g><g class="cls-4"><g id="Layer_1-2"><g class="cls-1"><polygon class="cls-2" points="49.44 809.95 11.37 829.79 7.89 840.83 -24.11 857.49 -53.11 848.39 -53.54 849.75 -23.95 859.08 9.06 841.86 12.55 830.8 50.62 810.98 58.61 784.53 78.88 773.97 78.22 772.71 57.43 783.51 49.44 809.95"/><polygon class="cls-2" points="-68.81 817.27 -34.5 799.44 2.76 811.15 28.74 797.64 39.92 762.17 119.38 720.81 148.06 729.82 175.29 715.65 174.61 714.33 147.93 728.25 119.27 719.22 38.7 761.15 27.56 796.61 2.59 809.59 -34.62 797.86 -69.46 815.98 -68.81 817.27"/><polygon class="cls-2" points="90.97 752.57 40.76 778.68 29.8 813.47 -29.82 844.5 -45.32 839.62 -55.88 845.14 -55.23 846.42 -45.15 841.17 -29.64 846.03 31.04 814.44 41.98 779.73 92.14 753.61 107.9 703.63 161.53 675.74 176.14 680.37 216.21 659.51 215.55 658.23 176.01 678.81 161.4 674.21 106.71 702.63 90.97 752.57"/><polygon class="cls-2" points="-47.13 686.51 -25.38 675.16 9.43 686.14 38.54 670.95 136.81 701.93 161.04 689.34 160.34 688.05 136.65 700.34 38.4 669.41 9.31 684.56 -25.55 673.59 -47.78 685.2 -47.13 686.51"/><polygon class="cls-2" points="-45.94 796.39 -73.72 810.88 -72.41 813.44 -43.53 798.4 -35.58 773.22 -5.22 757.38 14.65 763.63 87.1 725.91 85.75 723.35 14.36 760.52 -5.47 754.24 -37.99 771.17 -45.94 796.39"/><polygon class="cls-2" points="-1.41 742.06 -57.22 771.13 -62.2 786.94 -83.26 797.88 -82.6 799.14 -60.97 787.91 -56.04 772.15 -.22 743.08 7.47 718.67 58.57 692.1 57.92 690.81 6.28 717.67 -1.41 742.06"/><polygon class="cls-2" points="-47.72 728.97 -103.43 758 -102.13 760.55 -45.26 730.95 -40.24 715.06 -19.55 704.27 54.72 727.69 88.36 710.16 99.6 674.49 176.45 634.57 182.67 614.71 200.14 605.6 198.79 603.04 180.27 612.66 174.01 632.52 97.18 672.52 86 708.13 54.38 724.54 -19.83 701.15 -42.65 713.01 -47.72 728.97"/><polygon class="cls-2" points="-18.62 731.32 -94.57 770.87 -93.2 773.43 -16.22 733.34 -7.55 705.84 74.62 663.04 133.51 681.61 179.44 657.73 178.03 655.17 133.2 678.53 74.3 659.96 -9.97 703.84 -18.62 731.32"/><polygon class="cls-2" points="153.23 631.64 98.95 659.9 99.65 661.2 154.46 632.65 163.54 603.71 191.53 589.14 190.91 587.84 162.36 602.7 153.23 631.64"/><polygon class="cls-2" points="-125.92 708.2 -131.65 711.13 -130.96 712.45 -124.74 709.21 -116.32 682.52 -19.27 632.01 23.04 645.34 73.1 619.27 103.01 628.69 123.38 618.1 122.73 616.8 102.88 627.15 72.93 617.71 22.87 643.77 -19.44 630.44 -117.49 681.49 -125.92 708.2"/><polygon class="cls-2" points="-122.16 648.58 -153.96 665.15 -153.3 666.41 -120.93 649.57 -117.86 639.8 -36.22 597.31 -23.26 601.4 21.71 578.02 110.83 606.11 190.98 564.4 196.82 545.9 195.45 545.47 189.8 563.39 110.71 604.57 21.54 576.44 -23.39 599.85 -36.39 595.76 -119.09 638.8 -122.16 648.58"/><polygon class="cls-2" points="45.39 653.83 -43.62 700.15 -57.13 743.12 -100.11 765.5 -99.48 766.73 -55.98 744.1 -42.39 701.16 46.59 654.8 58.48 617.08 125.85 582.03 125.15 580.73 57.3 616.07 45.39 653.83"/><path class="cls-2" d="M76,774.68c.74,1.4,2.47,1.95,3.89,1.22,1.38-.76,1.97-2.47,1.23-3.91-.74-1.43-2.51-1.99-3.93-1.24s-1.94,2.5-1.19,3.92h0Z"/><path class="cls-2" d="M176.17,717.37c1.44-.77,1.98-2.51,1.23-3.91s-2.51-1.99-3.93-1.24c-1.38.76-1.97,2.47-1.23,3.91.74,1.43,2.51,1.99,3.93,1.24Z"/><path class="cls-2" d="M161.27,690.85c1.43-.72,1.98-2.51,1.23-3.91-.74-1.43-2.47-1.98-3.93-1.24-1.38.76-1.98,2.49-1.23,3.91.76,1.41,2.52,1.97,3.93,1.24Z"/><path class="cls-2" d="M192.13,591.3c1.39-.76,1.99-2.51,1.24-3.93-.76-1.39-2.52-1.95-3.9-1.21-1.47.73-1.98,2.51-1.27,3.88.78,1.47,2.5,2.01,3.92,1.27Z"/><path class="cls-2" d="M100.62,663.15c1.43-.74,1.98-2.51,1.23-3.91-.73-1.45-2.51-1.99-3.93-1.24-1.41.72-1.97,2.47-1.23,3.91.74,1.43,2.51,1.99,3.93,1.24Z"/><path class="cls-2" d="M120.17,619.19c.74,1.43,2.51,1.99,3.93,1.24,1.43-.74,1.94-2.5,1.22-3.89-.78-1.44-2.47-1.97-3.89-1.22-1.41.72-2.01,2.46-1.27,3.88h0Z"/><path class="cls-2" d="M107.48,606.28c.7,1.41,2.47,1.97,3.85,1.21,1.41-.72,1.97-2.47,1.22-3.89-.7-1.41-2.47-1.98-3.9-1.21-1.37.69-1.94,2.48-1.18,3.88h.01Z"/><path class="cls-2" d="M11.74,687.93c1.37-.73,1.88-2.48,1.14-3.9-.7-1.39-2.42-1.96-3.85-1.21-1.43.72-1.98,2.47-1.27,3.86.78,1.46,2.51,2,3.98,1.25Z"/><path class="cls-2" d="M-2.93,744.5c.71,1.39,2.48,1.96,3.9,1.21,1.43-.76,1.97-2.47,1.23-3.91-.74-1.4-2.47-1.95-3.89-1.22-1.43.74-1.99,2.51-1.24,3.93h0Z"/><path class="cls-2" d="M116.79,721.35c.74,1.4,2.48,1.95,3.95,1.2,1.37-.74,1.88-2.48,1.17-3.87-.73-1.43-2.46-1.99-3.88-1.24-1.43.72-1.97,2.47-1.23,3.91h0Z"/><path class="cls-2" d="M59.61,694.55c1.41-.72,1.92-2.47,1.18-3.89s-2.46-2.01-3.88-1.27c-1.38.76-1.95,2.52-1.23,3.91.74,1.43,2.5,2.01,3.93,1.24Z"/><path class="cls-2" d="M24.08,647.38c1.33-.71,1.89-2.5,1.18-3.89-.74-1.4-2.51-1.96-3.89-1.22-1.43.72-1.97,2.47-1.22,3.87.7,1.41,2.47,1.99,3.93,1.24Z"/><path class="cls-2" d="M194.06,546.46c.76,1.41,2.52,1.97,3.93,1.24,1.43-.72,1.94-2.48,1.19-3.9-.7-1.4-2.42-1.96-3.89-1.22-1.38.76-1.97,2.49-1.22,3.89h-.01Z"/><path class="cls-2" d="M122.63,583.13c.7,1.4,2.47,1.97,3.89,1.22,1.43-.72,1.98-2.47,1.19-3.9-.71-1.37-2.42-1.96-3.85-1.23-1.44.77-1.98,2.51-1.23,3.91h0Z"/><path class="cls-2" d="M47.26,656.86c1.48-.76,2.03-2.52,1.28-3.9-.74-1.4-2.48-1.96-3.93-1.24-1.41.72-1.92,2.49-1.18,3.89.74,1.43,2.46,1.99,3.84,1.25Z"/><path class="cls-2" d="M89,754.46c.7,1.4,2.48,1.95,3.9,1.2,1.43-.73,1.97-2.47,1.22-3.89-.71-1.38-2.51-1.98-3.89-1.22-1.43.74-2.01,2.46-1.23,3.91h0Z"/><path class="cls-2" d="M50.95,813.01c1.41-.72,1.98-2.51,1.23-3.91-.74-1.43-2.52-1.97-3.93-1.24-1.38.73-1.98,2.49-1.23,3.91.74,1.44,2.51,1.99,3.93,1.24Z"/><path class="cls-2" d="M9.8,843.99c1.37-.71,1.92-2.48,1.18-3.88-.73-1.45-2.47-1.95-3.85-1.21-1.43.71-1.97,2.47-1.22,3.87.7,1.4,2.47,1.97,3.89,1.22Z"/><path class="cls-2" d="M4.19,812.65c1.46-.71,1.98-2.51,1.23-3.91-.7-1.41-2.47-1.95-3.85-1.21-1.47.73-2.02,2.5-1.28,3.9s2.51,1.96,3.89,1.22Z"/><path class="cls-2" d="M40.69,764.22c1.38-.73,1.94-2.48,1.22-3.87-.78-1.46-2.51-1.99-3.93-1.24-1.41.72-1.97,2.48-1.18,3.89.71,1.39,2.42,1.97,3.89,1.22Z"/><path class="cls-2" d="M212.66,660.55c.76,1.4,2.48,1.95,3.9,1.2,1.46-.71,1.97-2.47,1.22-3.89-.73-1.43-2.47-1.97-3.88-1.24-1.38.73-1.99,2.51-1.24,3.93h0Z"/><path class="cls-2" d="M180.42,660.2c1.96-1.04,2.79-3.51,1.74-5.54-1.07-2.03-3.54-2.77-5.54-1.74-2.01,1.06-2.79,3.53-1.74,5.54,1.04,2,3.49,2.8,5.54,1.74Z"/><path class="cls-2" d="M82.45,726.54c1.08,2.02,3.54,2.79,5.5,1.75,2.05-1.05,2.83-3.52,1.78-5.51-1.04-2.02-3.5-2.75-5.54-1.74-2,1.02-2.78,3.49-1.73,5.5h0Z"/><path class="cls-2" d="M16.03,765.58c2-1.04,2.74-3.52,1.7-5.55-1.04-1.99-3.5-2.75-5.54-1.72-2,1.04-2.73,3.5-1.69,5.51,1.04,2.01,3.49,2.8,5.53,1.77Z"/><path class="cls-2" d="M201.66,607.52c2.02-1.06,2.79-3.49,1.74-5.52-1.05-1.98-3.54-2.77-5.54-1.74-1.97,1.05-2.74,3.52-1.74,5.52,1.05,1.98,3.54,2.77,5.54,1.74Z"/><path class="cls-2" d="M5.32,835.87c3.33-1.73,7.5-.41,9.23,2.91,1.69,3.31.38,7.47-2.95,9.2-3.29,1.72-7.45.4-9.2-2.9-1.73-3.32-.43-7.48,2.9-9.21h.01ZM11.1,846.93c2.74-1.44,3.81-4.83,2.38-7.57-1.43-2.79-4.87-3.87-7.59-2.39-2.79,1.41-3.86,4.83-2.44,7.59,1.41,2.76,4.84,3.82,7.64,2.36h.01Z"/><path class="cls-2" d="M55.45,807.98c1.73,3.32.43,7.49-2.9,9.21s-7.51.41-9.2-2.9c-1.73-3.32-.43-7.48,2.9-9.21,3.29-1.72,7.45-.4,9.2,2.9ZM52,816.13c2.74-1.44,3.81-4.83,2.38-7.57-1.46-2.8-4.86-3.87-7.58-2.39-2.79,1.41-3.89,4.8-2.44,7.59,1.43,2.74,4.84,3.82,7.64,2.36h0Z"/><path class="cls-2" d="M75.42,767.86c3.33-1.73,7.45-.41,9.19,2.91,1.73,3.33.48,7.45-2.85,9.19-3.37,1.73-7.5.41-9.23-2.91-1.69-3.32-.43-7.44,2.9-9.2h-.01ZM83.61,771.31c-1.46-2.78-4.87-3.87-7.63-2.4-2.75,1.43-3.83,4.86-2.4,7.6,1.46,2.8,4.84,3.82,7.63,2.4,2.75-1.43,3.83-4.86,2.4-7.6Z"/><path class="cls-2" d="M8.87,806.78c1.73,3.32.43,7.49-2.9,9.21s-7.45.4-9.2-2.9c-1.73-3.32-.44-7.43,2.9-9.21,3.33-1.71,7.45-.4,9.2,2.9ZM7.8,807.33c-1.43-2.76-4.83-3.84-7.58-2.39-2.8,1.44-3.87,4.87-2.45,7.61,1.47,2.75,4.88,3.83,7.67,2.41,2.71-1.48,3.83-4.86,2.36-7.64Z"/><path class="cls-2" d="M181,712.25c1.69,3.31.38,7.47-2.9,9.21-3.32,1.71-7.5.39-9.23-2.91-1.73-3.32-.43-7.48,2.9-9.21,3.32-1.71,7.5-.39,9.23,2.91ZM179.94,712.82c-1.45-2.82-4.86-3.88-7.58-2.39-2.79,1.41-3.89,4.8-2.44,7.59,1.43,2.74,4.84,3.82,7.64,2.36,2.74-1.43,3.82-4.82,2.38-7.56Z"/><path class="cls-2" d="M129.13,614.33c1.73,3.32.43,7.48-2.9,9.21-3.33,1.7-7.45.4-9.2-2.9-1.73-3.32-.43-7.45,2.9-9.21,3.33-1.72,7.47-.43,9.2,2.9ZM125.71,622.51c2.75-1.46,3.82-4.85,2.35-7.6-1.37-2.78-4.79-3.85-7.58-2.39-2.75,1.43-3.87,4.83-2.4,7.6,1.43,2.74,4.84,3.82,7.64,2.38h0Z"/><path class="cls-2" d="M203.27,542.35c1.73,3.3.43,7.45-2.9,9.19-3.32,1.73-7.5.43-9.19-2.89-1.72-3.32-.41-7.48,2.9-9.19,3.29-1.75,7.45-.44,9.19,2.89ZM199.84,550.47c2.74-1.43,3.82-4.84,2.39-7.58-1.43-2.77-4.83-3.84-7.63-2.4-2.75,1.45-3.86,4.83-2.4,7.63,1.43,2.74,4.88,3.83,7.64,2.36h0Z"/><path class="cls-2" d="M122.55,575.57c3.29-1.74,7.42-.47,9.19,2.89,1.74,3.31.38,7.47-2.94,9.18-3.35,1.77-7.47.43-9.2-2.9-1.74-3.31-.44-7.44,2.94-9.18h.01ZM128.27,586.61c2.77-1.47,3.83-4.86,2.4-7.6-1.43-2.74-4.87-3.85-7.63-2.4-2.74,1.43-3.83,4.88-2.4,7.63,1.44,2.72,4.85,3.8,7.64,2.38h-.01Z"/><path class="cls-2" d="M195.53,585.83c1.48,2.85.38,6.34-2.48,7.85-2.85,1.49-6.34.36-7.83-2.47-1.48-2.87-.33-6.35,2.48-7.85,2.84-1.47,6.34-.38,7.83,2.47ZM192.58,592.78c2.37-1.22,3.29-4.13,2.04-6.49-1.2-2.34-4.09-3.26-6.43-2-2.39,1.19-3.32,4.1-2.07,6.46,1.2,2.35,4.14,3.28,6.47,2.04h0Z"/><path class="cls-2" d="M220.68,656.67c1.44,2.84.33,6.35-2.52,7.84-2.85,1.47-6.33.34-7.83-2.47-1.48-2.85-.37-6.36,2.48-7.85,2.85-1.47,6.34-.36,7.87,2.48ZM217.7,663.6c2.37-1.21,3.29-4.13,2.08-6.47-1.25-2.34-4.19-3.26-6.51-2.05-2.37,1.22-3.29,4.13-2.04,6.49,1.2,2.35,4.14,3.28,6.47,2.04h0Z"/><path class="cls-2" d="M165.53,685.75c1.5,2.81.38,6.34-2.44,7.86-2.84,1.45-6.37.33-7.83-2.47-1.52-2.88-.41-6.39,2.44-7.86,2.85-1.49,6.34-.36,7.83,2.47ZM164.63,686.2c-1.2-2.37-4.09-3.28-6.47-2.04-2.33,1.23-3.29,4.13-2.04,6.49,1.2,2.35,4.15,3.23,6.47,2.02,2.37-1.22,3.29-4.11,2.04-6.47Z"/><path class="cls-2" d="M21.53,757.66c2.33,4.51.57,10.06-3.91,12.4-4.49,2.31-10.03.56-12.37-3.9-2.33-4.49-.58-10.04,3.91-12.4,4.45-2.33,10.03-.56,12.37,3.9ZM16.91,768.67c3.71-1.95,5.16-6.54,3.19-10.25-1.91-3.73-6.49-5.18-10.23-3.24-3.7,1.94-5.16,6.55-3.23,10.25,1.91,3.72,6.57,5.17,10.27,3.24h0Z"/><path class="cls-2" d="M93.82,720.03c2.33,4.51.57,10.06-3.91,12.4-4.49,2.31-10.03.56-12.37-3.9-2.33-4.49-.58-10.04,3.91-12.4,4.49-2.31,10.03-.56,12.37,3.9ZM92.42,720.79c-1.96-3.71-6.54-5.16-10.27-3.24-3.7,1.94-5.16,6.55-3.23,10.25,1.91,3.72,6.54,5.16,10.27,3.24,3.7-1.94,5.15-6.54,3.23-10.25Z"/><path class="cls-2" d="M186.81,652.26c2.34,4.47.58,10.03-3.86,12.38-4.48,2.32-10.06.55-12.4-3.91-2.34-4.49-.58-10.04,3.9-12.38,4.49-2.34,10.07-.58,12.36,3.91ZM182.21,663.23c3.71-1.94,5.16-6.54,3.24-10.27-1.92-3.69-6.54-5.15-10.24-3.22-3.76,1.97-5.21,6.56-3.29,10.26,1.96,3.71,6.57,5.17,10.27,3.24h.01Z"/><path class="cls-2" d="M195.15,595.45c4.49-2.31,10.03-.56,12.37,3.9,2.34,4.47.58,10.04-3.91,12.4-4.48,2.31-10.05.53-12.36-3.92-2.34-4.49-.57-10.06,3.9-12.38h0ZM202.85,610.3c3.74-1.91,5.19-6.51,3.26-10.21-1.96-3.73-6.56-5.21-10.27-3.24-3.69,1.92-5.19,6.51-3.23,10.26,1.92,3.7,6.54,5.16,10.25,3.19h-.01Z"/></g><g class="cls-1"><polygon class="cls-2" points="108.88 52.72 78.5 22.34 78.48 10.76 52.97 -14.74 22.59 -14.78 22.59 -16.22 53.61 -16.22 79.95 10.13 79.95 21.74 110.3 52.08 109.95 79.72 126.11 95.88 125.09 96.89 108.52 80.32 108.88 52.72"/><polygon class="cls-2" points="-1.7 10.18 25.62 37.5 64.68 37.54 85.38 58.22 85.38 95.41 148.76 158.76 178.81 158.79 200.51 180.48 199.45 181.53 178.2 160.24 148.18 160.24 83.95 96.03 83.95 58.86 64.08 38.96 25.02 38.96 -2.76 11.21 -1.7 10.18"/><polygon class="cls-2" points="131.2 119.92 91.19 79.93 91.19 43.45 43.68 -4.07 27.43 -4.07 18.96 -12.51 19.97 -13.54 28.03 -5.5 44.26 -5.48 92.67 42.9 92.63 79.29 132.66 119.28 132.66 171.69 175.4 214.42 190.7 214.39 222.65 246.34 221.64 247.35 190.16 215.84 174.79 215.84 131.22 172.28 131.2 119.92"/><polygon class="cls-2" points="-20.38 141.4 -3.05 158.76 33.44 158.76 56.68 182 159.68 182 179 201.3 177.95 202.31 159.07 183.47 56.04 183.43 32.87 160.24 -3.64 160.22 -21.4 142.45 -20.38 141.4"/><polygon class="cls-2" points="13.8 36.97 -8.36 14.78 -6.31 12.75 16.68 35.77 16.68 62.18 40.93 86.41 61.73 86.43 119.5 144.18 117.42 146.22 60.51 89.31 39.74 89.33 13.8 63.4 13.8 36.97"/><polygon class="cls-2" points="39.92 102.17 -4.56 57.66 -4.56 41.09 -21.35 24.32 -20.31 23.31 -3.1 40.53 -3.12 57.04 41.4 101.56 41.4 127.15 82.1 167.86 81.09 168.89 39.96 127.74 39.92 102.17"/><polygon class="cls-2" points="-8.19 100.74 -52.59 56.29 -50.56 54.25 -5.24 99.58 -5.24 116.25 11.26 132.75 89.13 132.75 115.99 159.58 115.99 196.99 177.24 258.17 177.22 278.98 191.13 292.91 189.06 294.95 174.32 280.2 174.32 259.39 113.08 198.14 113.08 160.81 87.89 135.66 10.06 135.66 -8.13 117.47 -8.19 100.74"/><polygon class="cls-2" points="20.27 107.24 -40.26 46.7 -38.2 44.65 23.21 106.05 23.17 134.88 88.71 200.4 150.42 200.4 187.04 236.97 184.98 238.99 149.19 203.24 87.49 203.24 20.27 136.06 20.27 107.24"/><polygon class="cls-2" points="154.2 253.98 110.94 210.7 111.99 209.67 155.68 253.39 155.68 283.71 177.97 306.02 176.98 307.08 154.2 284.33 154.2 253.98"/><polygon class="cls-2" points="-89 97.04 -93.55 92.51 -92.52 91.46 -87.56 96.42 -87.58 124.39 -10.21 201.76 34.16 201.76 74.06 241.68 105.44 241.68 121.67 257.91 120.68 258.96 104.84 243.12 73.45 243.12 33.55 203.22 -10.8 203.22 -88.98 125.03 -89 97.04"/><polygon class="cls-2" points="-103.34 155.02 -128.7 129.66 -127.69 128.65 -101.88 154.45 -101.86 164.68 -36.79 229.75 -23.17 229.75 12.64 265.58 106.13 265.58 170.02 329.45 170.02 348.86 168.56 348.86 168.56 330.06 105.53 267 12.06 267.03 -23.78 231.19 -37.4 231.19 -103.36 165.27 -103.34 155.02"/><polygon class="cls-2" points="58.02 200.4 -12.92 129.44 -12.9 84.41 -47.17 50.14 -46.16 49.15 -11.49 83.82 -11.47 128.86 59.5 199.83 59.46 239.38 113.16 293.06 112.13 294.09 58.02 239.98 58.02 200.4"/><path class="cls-2" d="M127.65,94.34c1.14,1.14,1.16,2.95,0,4.1-1.12,1.14-2.97,1.14-4.08,0-1.14-1.14-1.14-2.97,0-4.1,1.14-1.12,2.95-1.12,4.08,0Z"/><path class="cls-2" d="M201.88,179.12c1.12,1.16,1.12,2.99,0,4.1-1.16,1.12-2.97,1.14-4.1,0s-1.16-2.95,0-4.1c1.1-1.14,2.97-1.14,4.1,0Z"/><path class="cls-2" d="M179.67,199.93c1.16,1.12,1.14,2.99,0,4.1-1.12,1.14-2.95,1.14-4.08,0s-1.14-2.97,0-4.1c1.12-1.12,2.97-1.12,4.08,0Z"/><path class="cls-2" d="M175.09,304.17c1.14-1.16,2.95-1.16,4.08-.02s1.16,2.99,0,4.13c-1.12,1.1-2.97,1.1-4.08-.02-1.14-1.14-1.12-2.99,0-4.08h0Z"/><path class="cls-2" d="M113.5,208.12c1.14,1.14,1.16,2.99.02,4.1-1.16,1.16-2.97,1.14-4.1,0-1.16-1.12-1.16-2.95,0-4.1,1.14-1.14,2.97-1.14,4.08,0Z"/><path class="cls-2" d="M123.05,255.89c1.16,1.14,1.1,2.97,0,4.08-1.14,1.14-2.95,1.14-4.08,0-1.14-1.12-1.16-2.95,0-4.08,1.14-1.14,2.97-1.14,4.08,0Z"/><path class="cls-2" d="M102.94,264.42c1.14-1.14,2.99-1.14,4.06,0,1.16,1.12,1.16,2.95.02,4.08-1.14,1.14-2.99,1.14-4.08-.02-1.14-1.07-1.12-2.95,0-4.06h0Z"/><path class="cls-2" d="M36.18,157.75c1.1,1.12,1.1,2.92-.06,4.06-1.12,1.12-2.92,1.14-4.04,0-1.14-1.12-1.14-2.95-.02-4.06,1.14-1.16,2.99-1.16,4.13,0Z"/><path class="cls-2" d="M39.21,99.37c1.12-1.12,2.97-1.12,4.08.02,1.16,1.16,1.14,2.95.04,4.1-1.14,1.12-2.99,1.12-4.13,0-1.14-1.14-1.14-2.99,0-4.13h0Z"/><path class="cls-2" d="M150.54,157.5c1.1,1.12,1.1,2.92-.04,4.04-1.14,1.14-2.95,1.16-4.06.02-1.14-1.12-1.14-2.95,0-4.1,1.12-1.12,2.97-1.12,4.1.04Z"/><path class="cls-2" d="M83.85,165.84c1.12,1.12,1.07,2.92-.02,4.06-1.14,1.14-2.95,1.18-4.08.04s-1.14-2.99,0-4.1c1.14-1.14,2.95-1.16,4.1,0Z"/><path class="cls-2" d="M35.76,200.14c1.1,1.07,1.07,2.95-.04,4.06-1.14,1.12-2.99,1.12-4.06,0-1.16-1.12-1.16-2.95,0-4.06,1.12-1.14,2.97-1.16,4.1,0Z"/><path class="cls-2" d="M171.67,347.49c1.14,1.12,1.12,2.95,0,4.08-1.14,1.14-2.95,1.14-4.08,0s-1.16-2.97-.02-4.08c1.12-1.12,2.99-1.12,4.1,0Z"/><path class="cls-2" d="M110.43,291.04c1.14-1.14,2.97-1.14,4.13,0,1.14,1.12,1.1,2.95-.04,4.08-1.12,1.1-2.95,1.14-4.08.02-1.1-1.16-1.14-2.99,0-4.1h0Z"/><path class="cls-2" d="M60.77,198.06c1.14,1.16,1.14,3.01.02,4.1-1.16,1.12-2.97,1.12-4.1,0-1.16-1.12-1.1-2.95,0-4.06,1.16-1.14,2.95-1.16,4.08-.04Z"/><path class="cls-2" d="M133.96,117.56c1.14,1.14,1.16,2.95.02,4.08s-2.97,1.14-4.1,0-1.14-2.95,0-4.1c1.14-1.14,2.95-1.12,4.08.02Z"/><path class="cls-2" d="M111.18,50.25c1.16,1.12,1.14,2.99,0,4.1-1.14,1.14-2.95,1.12-4.08,0-1.12-1.12-1.14-2.97,0-4.1,1.12-1.14,2.95-1.14,4.08,0Z"/><path class="cls-2" d="M81.28,8.33c1.12,1.1,1.12,2.95-.02,4.06-1.14,1.16-2.97,1.12-4.08,0-1.12-1.12-1.14-2.95,0-4.06,1.14-1.14,2.99-1.14,4.1,0Z"/><path class="cls-2" d="M62.4,36.53c1.14-1.12,2.99-1.12,4.13,0s1.14,2.99,0,4.1c-1.14,1.14-2.97,1.12-4.08,0-1.14-1.14-1.18-2.99-.04-4.1h0Z"/><path class="cls-2" d="M86.74,93.69c1.12,1.12,1.12,2.95,0,4.06-1.14,1.16-2.99,1.14-4.1,0-1.14-1.12-1.14-2.95.02-4.06,1.14-1.12,2.95-1.16,4.08,0Z"/><path class="cls-2" d="M223.7,244.3c1.14,1.12,1.12,2.95,0,4.08-1.14,1.14-2.99,1.14-4.13.02-1.1-1.12-1.1-2.99.02-4.13,1.12-1.12,2.97-1.12,4.1.02Z"/><path class="cls-2" d="M188.72,234.91c1.6,1.57,1.62,4.19,0,5.81-1.6,1.62-4.21,1.57-5.81,0-1.6-1.62-1.6-4.21,0-5.81,1.62-1.6,4.2-1.62,5.81,0Z"/><path class="cls-2" d="M121.01,142.16c1.64,1.62,1.63,4.21.06,5.79-1.64,1.62-4.21,1.57-5.83,0-1.6-1.57-1.62-4.17.02-5.76,1.6-1.6,4.18-1.6,5.74-.02Z"/><path class="cls-2" d="M57.81,84.99c1.6-1.6,4.21-1.62,5.81-.02s1.57,4.19-.04,5.81c-1.6,1.57-4.15,1.57-5.76-.02-1.6-1.6-1.6-4.17,0-5.76h0Z"/><path class="cls-2" d="M193.14,291.55c1.61,1.62,1.61,4.17,0,5.79-1.6,1.57-4.19,1.57-5.76,0-1.61-1.6-1.61-4.19,0-5.79,1.57-1.57,4.17-1.57,5.76,0Z"/><path class="cls-2" d="M74.57,14.73c-2.69-2.65-2.65-7.01,0-9.66,2.65-2.63,6.99-2.63,9.64,0,2.65,2.65,2.65,7.01,0,9.66-2.65,2.65-6.99,2.65-9.64,0ZM83.39,5.92c-2.21-2.23-5.83-2.25-8.02-.04s-2.19,5.79.04,7.98c2.17,2.23,5.76,2.23,7.98,0,2.19-2.19,2.19-5.74,0-7.93Z"/><path class="cls-2" d="M104.34,56.39c-2.65-2.65-2.65-7.01,0-9.66,2.65-2.65,6.99-2.65,9.64,0,2.65,2.65,2.65,7.01,0,9.66-2.65,2.63-6.99,2.63-9.64,0ZM113.14,47.6c-2.21-2.23-5.79-2.23-8.02-.04-2.19,2.23-2.19,5.79.04,7.98,2.19,2.23,5.74,2.23,7.98,0,2.19-2.19,2.19-5.74,0-7.93Z"/><path class="cls-2" d="M121,100.68c-2.67-2.67-2.65-6.99,0-9.64,2.65-2.65,6.99-2.67,9.64,0,2.65,2.65,2.63,6.97-.02,9.61-2.63,2.65-6.97,2.67-9.61.02ZM129.8,99.84c2.21-2.19,2.19-5.79,0-7.98-2.21-2.19-5.76-2.23-8,0-2.19,2.19-2.19,5.79.04,7.98,2.19,2.23,5.76,2.21,7.95,0h0Z"/><path class="cls-2" d="M59.54,43.54c-2.63-2.69-2.63-7.01.02-9.66,2.63-2.63,6.97-2.65,9.64,0,2.65,2.65,2.63,7.01-.02,9.66-2.63,2.63-6.99,2.63-9.64,0ZM68.38,34.7c-2.23-2.19-5.79-2.19-8,0-2.23,2.19-2.19,5.79,0,8,2.21,2.21,5.76,2.21,8,0,2.19-2.21,2.19-5.76,0-8Z"/><path class="cls-2" d="M195.29,185.45c-2.69-2.65-2.65-7.01,0-9.66,2.65-2.63,6.99-2.63,9.64,0,2.65,2.65,2.65,7.01,0,9.66-2.65,2.63-6.99,2.63-9.64,0ZM204.11,176.65c-2.21-2.23-5.81-2.23-8.02-.04-2.21,2.23-2.19,5.79.04,7.98,2.17,2.23,5.76,2.25,7.98,0,2.19-2.19,2.19-5.74,0-7.93Z"/><path class="cls-2" d="M116.4,263.24c-2.67-2.67-2.63-7.01,0-9.66,2.65-2.63,6.97-2.63,9.66,0,2.65,2.65,2.65,7.01,0,9.66s-7.01,2.65-9.66,0ZM125.2,254.42c-2.21-2.21-5.79-2.21-8-.02-2.19,2.21-2.19,5.79,0,7.98s5.81,2.23,7.98,0c2.21-2.19,2.21-5.74.02-7.95Z"/><path class="cls-2" d="M165.45,354.18c-2.65-2.63-2.65-6.99,0-9.64,2.65-2.65,6.99-2.65,9.64,0,2.65,2.65,2.65,7.01,0,9.64-2.65,2.65-6.99,2.65-9.64,0ZM174.25,353.36c2.19-2.19,2.21-5.76.02-7.95-2.21-2.23-5.79-2.23-8.02-.04-2.19,2.23-2.17,5.79.04,8,2.19,2.21,5.76,2.21,7.95,0h0Z"/><path class="cls-2" d="M108.08,298.24c-2.69-2.67-2.65-7.01,0-9.64,2.61-2.65,6.94-2.69,9.64,0,2.65,2.63,2.65,7.01,0,9.64-2.65,2.67-7.03,2.65-9.64,0ZM116.87,289.42c-2.21-2.19-5.81-2.19-8-.02-2.19,2.19-2.19,5.81.02,8,2.21,2.21,5.79,2.19,7.98,0s2.21-5.74,0-7.98Z"/><path class="cls-2" d="M172.6,310.38c-2.28-2.28-2.3-5.93,0-8.23,2.23-2.25,5.93-2.28,8.21,0,2.23,2.3,2.25,5.96,0,8.23-2.28,2.28-5.98,2.25-8.21,0ZM180.1,309.67c1.85-1.87,1.85-4.92,0-6.8-1.89-1.87-4.92-1.87-6.8,0s-1.87,4.92.02,6.77c1.87,1.91,4.88,1.89,6.77.02h0Z"/><path class="cls-2" d="M217.81,250.38c-2.23-2.28-2.23-5.96.02-8.23,2.28-2.23,5.96-2.25,8.21,0,2.25,2.28,2.25,5.96.02,8.23-2.28,2.25-5.98,2.25-8.25,0ZM225.35,242.86c-1.89-1.87-4.95-1.87-6.82,0-1.89,1.87-1.85,4.92,0,6.8,1.87,1.85,4.95,1.85,6.82,0,1.85-1.87,1.85-4.92,0-6.8Z"/><path class="cls-2" d="M174.01,206.08c-2.25-2.25-2.25-5.93.02-8.23,2.23-2.23,5.93-2.23,8.21,0,2.25,2.3,2.23,6,0,8.23-2.28,2.25-5.98,2.28-8.23,0ZM181.52,198.59c-1.87-1.85-4.92-1.89-6.82-.02-1.85,1.87-1.85,4.92.02,6.8,1.87,1.89,4.9,1.89,6.8,0,1.85-1.87,1.85-4.9,0-6.77Z"/><path class="cls-2" d="M53.54,94.19c-3.59-3.59-3.59-9.43-.02-13.01,3.57-3.55,9.42-3.55,12.98,0,3.55,3.57,3.55,9.41-.02,13.01-3.53,3.55-9.39,3.55-12.94,0ZM65.39,93.03c2.95-2.95,2.95-7.76,0-10.73-2.95-2.95-7.78-2.97-10.77,0-2.95,2.95-2.95,7.78.04,10.75,2.95,2.97,7.78,2.97,10.73-.02h0Z"/><path class="cls-2" d="M111.16,151.82c-3.61-3.59-3.61-9.43-.02-13.01,3.57-3.55,9.41-3.55,12.98,0,3.55,3.57,3.55,9.41-.02,13.01-3.55,3.55-9.38,3.55-12.94,0ZM123.01,150.68c2.95-2.97,2.95-7.78,0-10.75-2.97-2.95-7.78-2.97-10.77,0-2.95,2.95-2.95,7.78.04,10.75,2.95,2.95,7.76,2.95,10.73,0h0Z"/><path class="cls-2" d="M179.5,244.43c-3.57-3.57-3.57-9.41,0-12.98,3.55-3.55,9.39-3.55,12.96,0,3.57,3.57,3.57,9.41,0,12.96-3.57,3.59-9.4,3.59-12.96.02ZM191.36,232.56c-2.97-2.95-7.78-2.95-10.75,0s-2.97,7.76.02,10.77c2.95,2.95,7.76,2.95,10.71,0,2.99-2.99,2.99-7.81.02-10.77Z"/><path class="cls-2" d="M196.27,301.1c-3.55,3.55-9.41,3.55-12.98,0-3.57-3.55-3.57-9.41,0-12.98,3.57-3.55,9.42-3.57,12.96-.02,3.58,3.59,3.58,9.45.02,13.01h0ZM195.17,299.96c2.95-2.95,2.95-7.76-.02-10.71-2.95-2.99-7.76-2.99-10.75-.04-2.95,2.99-2.95,7.81.04,10.75,2.95,2.99,7.76,2.97,10.73,0h0Z"/></g><g class="cls-1"><polygon class="cls-2" points="-39.38 316.15 -82.31 316.15 -90.52 307.96 -126.6 307.96 -148.1 329.43 -149.11 328.42 -127.18 306.49 -89.93 306.49 -81.72 314.7 -38.81 314.7 -19.51 334.48 3.35 334.48 3.35 335.91 -20.1 335.91 -39.38 316.15"/><polygon class="cls-2" points="-147.64 364.26 -109 364.26 -81.35 336.65 -52.07 336.65 -25.78 362.93 63.83 362.93 85.09 341.7 115.78 341.7 115.78 343.17 85.68 343.15 64.47 364.39 -26.38 364.39 -52.63 338.1 -80.75 338.1 -108.37 365.72 -147.64 365.74 -147.64 364.26"/><polygon class="cls-2" points="23.93 347.87 -32.64 347.88 -58.43 322.1 -125.63 322.1 -137.11 333.6 -149.07 333.6 -149.07 332.14 -137.69 332.14 -126.19 320.68 -57.77 320.68 -32.05 346.41 24.52 346.41 61.56 383.45 122.01 383.43 132.83 372.6 178.01 372.6 178.01 374.02 133.45 374.02 122.6 384.89 60.97 384.89 23.93 347.87"/><polygon class="cls-2" points="-68.04 470.23 -43.5 470.28 -17.7 444.47 15.13 444.47 87.98 371.63 115.29 371.63 115.27 373.08 88.59 373.1 15.72 445.92 -17.07 445.92 -42.91 471.7 -68.02 471.7 -68.04 470.23"/><polygon class="cls-2" points="-117.72 372.24 -149.07 372.21 -149.07 369.33 -116.54 369.33 -97.84 388.02 -63.59 388.02 -48.85 373.31 32.83 373.31 32.81 376.21 -47.67 376.21 -62.36 390.93 -99.02 390.93 -117.72 372.24"/><polygon class="cls-2" points="-53.14 399.87 -116.09 399.85 -127.8 388.14 -151.51 388.14 -151.51 386.7 -127.16 386.7 -115.48 398.4 -52.56 398.4 -34.46 416.5 23.13 416.5 23.13 417.93 -35.04 417.93 -53.14 399.87"/><polygon class="cls-2" points="-88.16 432.87 -151 432.85 -151 429.97 -86.92 429.97 -75.14 441.75 -51.79 441.75 3.26 386.7 41.23 386.7 67.67 413.13 154.26 413.09 168.96 427.82 188.64 427.82 188.64 430.73 167.76 430.73 153.05 416.02 66.44 416.02 40.05 389.6 4.44 389.62 -50.59 444.66 -76.32 444.66 -88.16 432.87"/><polygon class="cls-2" points="-63.46 417.34 -149.07 417.34 -149.07 414.43 -62.24 414.43 -41.86 434.83 50.79 434.83 94.43 391.18 146.18 391.15 146.17 394.06 95.59 394.06 51.94 437.71 -43.08 437.73 -63.46 417.34"/><polygon class="cls-2" points="135.02 426.39 73.81 426.39 73.84 424.94 135.62 424.94 157.07 446.4 188.62 446.4 188.66 447.86 156.48 447.86 135.02 426.39"/><polygon class="cls-2" points="-147.93 487.4 -154.37 487.4 -154.37 485.93 -147.35 485.93 -127.59 505.71 -18.17 505.71 13.2 474.35 69.65 474.35 91.83 452.2 114.79 452.2 114.83 453.64 92.41 453.64 70.23 475.83 13.78 475.83 -17.57 507.19 -128.13 507.19 -147.93 487.4"/><polygon class="cls-2" points="-117.08 538.54 -152.95 538.54 -152.95 537.07 -116.45 537.12 -109.21 544.32 -17.18 544.32 -7.55 534.71 43.12 534.67 109.21 468.59 199.54 468.59 213.27 482.31 212.26 483.31 198.95 470.02 109.8 470.02 43.71 536.15 -6.97 536.15 -16.6 545.78 -109.84 545.78 -117.08 538.54"/><polygon class="cls-2" points="29.11 456.5 -71.22 456.5 -103.06 424.66 -151.51 424.66 -151.51 423.25 -102.48 423.25 -70.61 455.08 29.73 455.08 57.69 483.07 133.62 483.07 133.62 484.5 57.1 484.5 29.11 456.5"/><path class="cls-2" d="M3.35,332.31c1.6,0,2.9,1.29,2.9,2.88s-1.31,2.9-2.9,2.9-2.88-1.31-2.88-2.9c.02-1.6,1.29-2.88,2.88-2.88Z"/><path class="cls-2" d="M115.78,339.77c1.6.02,2.9,1.33,2.9,2.9-.02,1.6-1.31,2.9-2.9,2.9s-2.9-1.29-2.9-2.9c-.02-1.57,1.31-2.9,2.9-2.9Z"/><path class="cls-2" d="M114.81,370.17c1.6-.02,2.9,1.31,2.9,2.9s-1.31,2.88-2.9,2.9c-1.6-.02-2.9-1.31-2.9-2.9s1.31-2.9,2.9-2.9Z"/><path class="cls-2" d="M188.13,444.23c1.6,0,2.92,1.29,2.92,2.9-.02,1.57-1.29,2.88-2.9,2.88s-2.9-1.32-2.9-2.88c0-1.62,1.29-2.9,2.88-2.9Z"/><path class="cls-2" d="M73.81,422.75c1.6,0,2.92,1.3,2.9,2.9,0,1.62-1.31,2.9-2.9,2.9-1.6.02-2.9-1.29-2.9-2.9s1.31-2.9,2.9-2.9Z"/><path class="cls-2" d="M114.34,449.77c1.62,0,2.86,1.32,2.88,2.9-.02,1.6-1.29,2.86-2.88,2.86s-2.9-1.27-2.9-2.86,1.29-2.9,2.9-2.9Z"/><path class="cls-2" d="M108.99,467.16c1.6-.04,2.9,1.27,2.9,2.86s-1.35,2.9-2.9,2.9-2.86-1.31-2.86-2.9,1.31-2.9,2.86-2.86Z"/><path class="cls-2" d="M64.19,360.77c1.57.02,2.84,1.27,2.84,2.88s-1.27,2.9-2.86,2.9-2.88-1.29-2.9-2.9c0-1.57,1.31-2.88,2.92-2.88Z"/><path class="cls-2" d="M22.92,413.83c1.6,0,2.84,1.31,2.86,2.9,0,1.6-1.27,2.9-2.86,2.9s-2.9-1.31-2.9-2.9,1.31-2.9,2.9-2.9Z"/><path class="cls-2" d="M10.27,474.99c-.02-1.6,1.29-2.9,2.9-2.9,1.53,0,2.84,1.31,2.84,2.9s-1.31,2.9-2.86,2.86c-1.6.04-2.9-1.27-2.88-2.86h0Z"/><path class="cls-2" d="M213.47,480.17c1.6,0,2.88,1.31,2.88,2.9.02,1.6-1.29,2.86-2.88,2.86s-2.9-1.27-2.9-2.86,1.31-2.9,2.9-2.9Z"/><path class="cls-2" d="M130.25,483.53c0-1.55,1.31-2.86,2.9-2.9,1.6,0,2.86,1.31,2.86,2.95s-1.27,2.86-2.86,2.86-2.9-1.31-2.9-2.9h0Z"/><path class="cls-2" d="M29.38,452.95c1.62,0,2.95,1.28,2.92,2.88-.02,1.6-1.31,2.86-2.9,2.9-1.6,0-2.86-1.31-2.86-2.9s1.22-2.88,2.84-2.88Z"/><path class="cls-2" d="M24.22,344.24c1.6,0,2.9,1.31,2.9,2.88s-1.31,2.9-2.9,2.9-2.9-1.29-2.9-2.9,1.31-2.88,2.9-2.88Z"/><path class="cls-2" d="M177.29,370.43c1.6-.02,2.88,1.29,2.88,2.88s-1.29,2.9-2.88,2.92c-1.57-.02-2.9-1.33-2.9-2.92s1.31-2.88,2.9-2.88Z"/><path class="cls-2" d="M145.94,388.51c2.23,0,4.1,1.81,4.1,4.1s-1.83,4.1-4.1,4.1-4.1-1.83-4.1-4.1,1.87-4.1,4.1-4.1Z"/><path class="cls-2" d="M32.48,370.81c2.3-.02,4.13,1.77,4.13,4.06s-1.85,4.08-4.13,4.1c-2.23.02-4.08-1.81-4.06-4.08,0-2.28,1.83-4.1,4.06-4.08Z"/><path class="cls-2" d="M189.11,425.42c2.28.02,4.08,1.83,4.1,4.1-.02,2.25-1.85,4.08-4.1,4.08s-4.08-1.83-4.08-4.08,1.83-4.08,4.08-4.1Z"/><path class="cls-2" d="M3.11,341.49c-3.76,0-6.82-3.07-6.82-6.82s3.07-6.82,6.82-6.82,6.8,3.07,6.8,6.82-3.03,6.82-6.8,6.82ZM3.11,329.04c-3.12.02-5.66,2.52-5.66,5.64s2.54,5.64,5.66,5.64c3.11.02,5.64-2.52,5.64-5.64s-2.54-5.64-5.64-5.64Z"/><path class="cls-2" d="M115.59,348.89c-3.76.02-6.82-3.07-6.82-6.82s3.07-6.82,6.82-6.82,6.82,3.07,6.82,6.82-3.07,6.82-6.82,6.82ZM121.22,342.05c0-3.09-2.49-5.62-5.62-5.62s-5.68,2.51-5.68,5.64,2.54,5.64,5.66,5.62c3.11.04,5.66-2.48,5.64-5.64h0Z"/><path class="cls-2" d="M114.81,459.66c-3.76,0-6.82-3.05-6.82-6.8s3.05-6.8,6.82-6.82c3.74,0,6.82,3.07,6.82,6.82s-3.05,6.8-6.82,6.8ZM114.81,447.22c-3.12,0-5.66,2.56-5.66,5.65s2.48,5.62,5.64,5.62,5.68-2.52,5.64-5.62c.02-3.12-2.5-5.65-5.62-5.65Z"/><path class="cls-2" d="M213.81,489.29c-3.74,0-6.82-3.07-6.82-6.82s3.07-6.82,6.82-6.82,6.82,3.07,6.82,6.82-3.07,6.82-6.82,6.82ZM213.83,476.84c-3.13,0-5.68,2.48-5.68,5.64s2.54,5.64,5.66,5.64c3.12,0,5.64-2.52,5.64-5.64,0-3.07-2.49-5.64-5.62-5.64Z"/><path class="cls-2" d="M133.69,490.3c-3.79,0-6.84-3.12-6.84-6.82s3.07-6.82,6.82-6.82,6.84,3.07,6.84,6.82-3.09,6.86-6.82,6.82ZM133.67,477.84c-3.12,0-5.66,2.54-5.66,5.65s2.55,5.64,5.66,5.64,5.64-2.52,5.64-5.64-2.52-5.65-5.64-5.65Z"/><path class="cls-2" d="M187.88,453.28c-3.2,0-5.81-2.61-5.81-5.81s2.58-5.81,5.81-5.81c3.2.02,5.81,2.61,5.81,5.81s-2.61,5.81-5.81,5.81ZM187.88,442.68c-2.65,0-4.82,2.15-4.8,4.8-.02,2.65,2.15,4.82,4.8,4.77,2.67.02,4.8-2.13,4.8-4.77s-2.15-4.8-4.8-4.8Z"/><path class="cls-2" d="M177.44,378.88c-3.2-.02-5.81-2.63-5.81-5.83.02-3.2,2.61-5.81,5.81-5.81s5.81,2.61,5.83,5.81c-.02,3.2-2.63,5.81-5.83,5.83ZM177.45,368.26c-2.65,0-4.82,2.13-4.82,4.8s2.17,4.8,4.82,4.82c2.63-.02,4.8-2.19,4.82-4.82-.02-2.65-2.17-4.8-4.82-4.8Z"/><path class="cls-2" d="M115.15,378.53c-3.2,0-5.81-2.65-5.81-5.83s2.61-5.79,5.81-5.81c3.2.02,5.81,2.65,5.81,5.83-.02,3.2-2.61,5.81-5.81,5.81ZM115.15,367.93c-2.63,0-4.82,2.15-4.82,4.8s2.17,4.8,4.82,4.8,4.8-2.15,4.8-4.8-2.17-4.8-4.8-4.8Z"/><path class="cls-2" d="M41.48,375.44c0,5.03-4.08,9.16-9.16,9.16s-9.2-4.13-9.2-9.18,4.13-9.18,9.18-9.18,9.18,4.13,9.18,9.2h0ZM32.3,367.82c-4.18,0-7.61,3.41-7.61,7.59s3.42,7.59,7.61,7.59,7.6-3.4,7.6-7.59-3.42-7.59-7.6-7.59Z"/><path class="cls-2" d="M146.12,401.77c-5.05,0-9.18-4.13-9.18-9.18s4.13-9.18,9.18-9.18,9.18,4.13,9.16,9.18c.02,5.05-4.11,9.18-9.16,9.18ZM153.72,392.61c0-4.2-3.41-7.61-7.59-7.61s-7.59,3.4-7.61,7.59c0,4.18,3.48,7.59,7.64,7.59s7.57-3.4,7.57-7.57h0Z"/><path class="cls-2" d="M188.89,439.15c-5.05.02-9.18-4.15-9.18-9.18s4.08-9.18,9.16-9.18,9.2,4.15,9.2,9.18c0,5.05-4.13,9.18-9.18,9.18ZM188.89,422.39c-4.19-.02-7.61,3.38-7.61,7.58s3.42,7.61,7.61,7.59c4.18.02,7.59-3.4,7.59-7.59,0-4.17-3.4-7.6-7.59-7.58Z"/></g></g></g></g></svg>