<?xml version="1.0" encoding="UTF-8"?><svg id="Calque_1" xmlns="http://www.w3.org/2000/svg" viewBox="0 0 384 384"><defs><style>.cls-1{fill:#fff;}</style></defs><path class="cls-1" d="M384,180.4v23.2l-4.26,29.06c-16.41,77.87-82.64,139.55-161.9,149.75-4.44.57-9.51.32-13.77,1.59h-23.99l-28.35-4.25C78.54,364.25,19.92,305.76,4.41,232.66L.15,204.35c.34-7.92-.46-16.06,0-23.95C5.83,83.43,87.04,4.64,184.17.71c103.4-4.19,193.79,76.5,199.83,179.68ZM169.58,134.36c-1.09,10.73.81,23.14,0,34.06h-22.12c-2.47,0-3.96,4.18-4.16,6.33-.5,5.55-.75,21.01.08,26.19.24,1.48,1.86,4.16,3.33,4.16h22.87v81.22c0,.95,2.35,1.78,3.34,1.91,2.98.4,28.17.24,29.64-.43.39-.18,2.26-2.07,2.26-2.23v-80.47h29.61c1.52,0,2.89-2.97,3.2-4.29,1.29-5.55,3.05-20.32,3.21-26.06.06-2.22-1.94-6.32-4.15-6.32h-31.86v-28.07c0-1.36,2.35-5.88,3.45-7.04,7.04-7.36,27.26-2.65,30.11-5.49.7-.7,1.56-4.25,1.68-5.43.46-4.61.55-15.67-.07-20.14-.42-2.98-1.67-5.15-4.85-5.64-8.26-1.28-28.79-.31-36.9,1.99-16.06,4.57-26.99,19.34-28.65,35.76Z"/></svg>