<?xml version="1.0" encoding="UTF-8"?><svg id="Calque_1" xmlns="http://www.w3.org/2000/svg" viewBox="0 0 384 384"><defs><style>.cls-1{fill:#fff;}</style></defs><path class="cls-1" d="M384,180.4v23.95c-1.16,4.31-1.01,9.24-1.61,13.74-10.96,82.54-76.46,149.93-158.67,163.45l-19.65,2.46h-23.99c-4.32-1.15-9.26-1.01-13.76-1.6C81.62,371.19,12.84,302.76,1.75,218.09c-.59-4.5-.46-9.43-1.61-13.74.34-7.92-.46-16.06,0-23.95C6.25,76.35,97.96-4.56,202.19.76c96.21,4.91,176.18,83.6,181.81,179.64ZM159.68,95.28c-47.2,2.09-63.28,20-65.1,66.74-.75,19.14-.75,41.55,0,60.69,1.89,48.48,19.45,65.17,67.84,67,18.95.72,41.11.75,60.04,0,48-1.9,65.2-19.07,67.1-66.99.75-18.91.72-41.03,0-59.95-1.83-48.31-18.54-65.85-67.1-67.74-19.92-.77-42.86-.63-62.79.25Z"/><path class="cls-1" d="M169.43,112.5c14.11-.48,29.2-.67,43.29-.25,31.7.94,56.2,2.09,58.81,40.09,1.3,18.98,1.35,40.8.79,59.91-.92,31.73-1.67,56.83-40.15,59.47-19.22,1.32-41.4,1.36-60.75.79-32.37-.96-56.32-2.19-58.85-40.79-1.61-24.62-1.61-54.03,0-78.66,2.49-38.05,24.8-39.46,56.86-40.54ZM242.11,128.92c-12.18,1.92-12.95,20.6-.76,22.85,18.65,3.44,18.8-25.7.76-22.85ZM188.92,142.45c-64.31,3.92-60.26,101.29,4.3,100.12,66.31-1.21,63.32-104.24-4.3-100.12Z"/><path class="cls-1" d="M186.65,160.38c45.23-6.13,50.54,59.34,10.22,64.1-44.44,5.25-49.68-58.75-10.22-64.1Z"/></svg>