<?xml version="1.0" encoding="UTF-8"?><svg id="Calque_1" xmlns="http://www.w3.org/2000/svg" viewBox="0 0 320.37 319.02"><defs><style>.cls-1{fill:#fff;}</style></defs><path class="cls-1" d="M147.1.39c121.98-8.22,209.66,114.16,158.3,226.11-53.25,116.05-216.28,124.79-282.5,15.68C-38.19,141.54,29.66,8.31,147.1.39ZM144.25,107.59v35.18l-1.12,1.12h-35.25c-.4,0-3.36,1.52-4.08,1.92-8.89,4.9-10.29,17.79-3.34,24.95,1.17,1.2,6.01,4.57,7.42,4.57h35.25l1.12,1.12v35.18c0,1.26,3.14,5.92,4.21,7.03,6,6.21,16.48,6.41,22.71.37,1.2-1.16,4.58-6,4.58-7.4v-35.18l1.12-1.12h35.25c1.26,0,5.94-3.13,7.04-4.2,6.22-5.99,6.42-16.45.38-22.67-1.17-1.2-6.01-4.57-7.42-4.57h-35.25l-1.12-1.12v-35.18c0-3.06-6.12-9.23-8.99-10.49-8.41-3.66-20.93,1.04-22.51,10.49Z"/></svg>