<?xml version="1.0" encoding="UTF-8"?><svg id="Calque_1" xmlns="http://www.w3.org/2000/svg" viewBox="0 0 384 384"><defs><style>.cls-1{fill:#fff;}</style></defs><path class="cls-1" d="M384,180.4v23.95c-1.16,4.31-1.01,9.24-1.61,13.74-10.96,82.58-76.43,149.92-158.67,163.45l-19.65,2.46h-23.99c-4.32-1.15-9.26-1.01-13.76-1.6C81.62,371.19,12.84,302.77,1.75,218.09c-.59-4.5-.46-9.43-1.61-13.74.34-7.92-.46-16.06,0-23.95C5.81,83.74,86.57,4.96,183.42.71c103.69-4.54,194.52,76.18,200.58,179.68ZM285.79,101.05l-136.45,17.22v108.54c-21.71-7.21-57.41,9.3-49.86,35.93,8.41,29.66,62.43,26.47,72.49-1.73,2.89-8.1,1.11-23.83,1.33-33.11.43-18.83.73-38.01,1.56-56.83.19-4.34-.24-8.75,0-13.09l86.93-12.76v71.11c-19.94-6.15-51.95,6.4-51.01,30.35,1.24,31.95,54.64,34.75,70.82,9.26,1.03-1.61,4.18-7.79,4.18-9.3V101.05Z"/></svg>