<?xml version="1.0" encoding="UTF-8"?><svg id="Calque_1" xmlns="http://www.w3.org/2000/svg" viewBox="0 0 384 384"><defs><style>.cls-1{fill:#fff;}</style></defs><path class="cls-1" d="M384,180.4v23.95c-1.16,4.31-1.01,9.24-1.61,13.74-10.96,82.52-76.47,149.94-158.67,163.45l-19.65,2.46h-23.99c-4.32-1.15-9.26-1.01-13.76-1.6C81.62,371.19,12.84,302.76,1.75,218.09c-.59-4.5-.46-9.43-1.61-13.74.34-7.92-.46-16.06,0-23.95C6.25,76.35,97.96-4.56,202.19.76c96.22,4.91,176.18,83.6,181.81,179.64ZM270.82,181.12c-6.92-29.51-35.52-47.36-65.4-41.67-7.43,1.41-15.56,3.52-16.37,12.1-2.59,27.5,2.02,58.97,0,86.89-.15,3.68,2.81,6.84,6.39,7.09,28.01-1.7,58.55,2.2,86.26,0,13.73-1.09,26.27-11.05,29.36-24.58,5.68-24.82-15.59-45.19-40.24-39.85ZM179.15,153.64c-.73-.75-2.54-1.15-3.56-.61-1.26.84-1.46,2.19-1.77,3.52-1.59,6.68-1.77,20.58-2.01,27.94-.37,11.77.3,23.52.81,35.18.21,4.79-.33,22.48,2.16,25.53,1.57,1.92,4.31,1.27,5.15-.95.31-6.05,1.42-12.54,1.68-18.53.83-19.2,1.09-44.69-.79-63.65-.16-1.6-.92-7.66-1.67-8.43ZM143.71,161.2c-3.75.02-3.8,6.93-4.11,9.85-1.69,16.09-1.49,37.61-.79,53.92.13,3.14,1.32,19.26,2.64,20.56,5.45,5.37,6.11-7.97,6.38-10.88,1.68-17.9,2.42-52.12-.92-69.43-.32-1.65-1.18-4.04-3.2-4.03ZM157.77,164.12c-.76.78-1.5,6.81-1.67,8.43-1.68,15.97-1.55,37.74-.79,53.92.21,4.38.66,13.08,1.71,17.01.2.75.45,1.44.93,2.06,1.31,1.32,3.04.95,4.18-.35,2.39-2.7,1.99-16.78,2.21-20.99.6-11.38,1.21-22.98.77-34.47-.23-6.07-.57-17.3-1.85-22.85-.6-2.6-3-5.29-5.49-2.76ZM128.92,168.6c-1.1-1.14-3.9-.96-4.57.74-2.19,19.08-3.04,40.1-1.98,59.33.15,2.66,1.32,15,2.3,16.41,1.79,2.61,4.29,1.12,5.01-1.61,3.2-12.1,2.35-43.28,1.71-56.74-.13-2.63-1.41-17.04-2.46-18.13ZM92.87,183.47c-2.5.63-3.21,9.07-3.51,11.53-1.79,15.09-.85,31.43,1.49,46.4,5.27,7.64,6.24-4.83,6.74-8.99.31-2.57.65-6.36.79-8.95.29-5.7,0-36.57-3.34-39.4-.65-.55-1.3-.87-2.18-.6ZM112.42,245.32c.83-.97,2.3-15.02,2.43-17.4.29-5.45.27-39.06-2.96-41.19-.87-.57-3.02-.62-3.84-.02-.76.55-1.99,9.48-2.18,11.29-1.23,11.14-1.29,25.55,0,36.66.28,2.43,1.71,16.32,6.55,10.67ZM76.38,193.2c-3.1.81-4.12,12.23-4.29,15.24-.24,4.15.38,22.45,2.64,25.11.99,1.16,3.53,1.16,4.52,0,2.26-2.67,2.88-20.96,2.64-25.11-.17-2.91-1.1-16.39-5.51-15.24Z"/></svg>