<?xml version="1.0" encoding="UTF-8"?><svg id="Calque_1" xmlns="http://www.w3.org/2000/svg" viewBox="0 0 384 384"><defs><style>.cls-1{fill:#fff;}</style></defs><path class="cls-1" d="M384,180.4v23.2l-4.26,29.06c-16.41,77.87-82.64,139.55-161.9,149.75-4.44.57-9.51.32-13.77,1.59h-23.99l-28.35-4.25C78.66,364.32,19.79,305.68,4.41,232.66L.15,204.35c.34-7.92-.46-16.06,0-23.95C5.83,83.43,87.04,4.64,184.17.71c103.4-4.19,193.79,76.49,199.83,179.68ZM231.81,91.32h-32.99v134.36c0,2.28-1.86,9.02-2.63,11.6-11.36,38.35-63.48,21.92-57.92-13.67,2.73-17.48,22.42-23.4,37.31-26v-33.68c-29.37-.76-58.84,16.44-67.49,45.27-16.44,54.83,40.87,107.27,92.33,73.47,31.27-20.54,31.79-51.42,32.17-85.4l-.78-39.33c14.68,7.36,29.41,14.86,46.48,13.47v-32.94c-26.86-.19-44.76-21.45-46.48-47.16Z"/></svg>