<?xml version="1.0" encoding="UTF-8"?><svg id="Calque_1" xmlns="http://www.w3.org/2000/svg" viewBox="0 0 384 384"><defs><style>.cls-1{fill:#fff;}</style></defs><path class="cls-1" d="M384,180.4v23.95c-1.16,4.31-1.01,9.24-1.61,13.74-10.96,82.54-76.46,149.93-158.67,163.45l-19.65,2.46h-23.99c-4.32-1.15-9.26-1.01-13.76-1.6C81.62,371.19,12.84,302.76,1.75,218.09c-.59-4.5-.46-9.43-1.61-13.74.34-7.92-.46-16.06,0-23.95C6.25,76.35,97.96-4.56,202.19.76c96.22,4.91,176.18,83.6,181.81,179.64ZM134.94,126.72c-24.11,3.72-36.1,19.84-37.37,43.53-.72,13.45-.77,31.55,0,44.98,1.37,23.86,14.47,39.83,38.65,43,36.15-1.98,75.17,2.67,110.97.04,24.3-1.79,38.03-19.79,39.36-43.04.84-14.7,1.65-50.64-3.42-63.27-5.72-14.25-19.96-24.21-35.23-25.45-36.17-2.95-76.4,2-112.97.21Z"/><path class="cls-1" d="M173.33,166.55c.69-2.25,3.96-.61,5.28-.03,13.34,5.84,26.96,17,40.42,23.26l1.57,2.93-2.03,2.54-42.24,23.03c-.88.79-3-1.17-3-1.58v-50.15Z"/></svg>