<?xml version="1.0" encoding="UTF-8"?><svg id="Calque_2" xmlns="http://www.w3.org/2000/svg" viewBox="0 0 1190.55 841.89"><defs><style>.cls-1{fill:#fff;}.cls-2{stroke-width:4px;}.cls-2,.cls-3{fill:none;stroke:#fff;stroke-miterlimit:10;}.cls-3{stroke-width:2px;}</style></defs><rect class="cls-2" x="36.55" y="55.79" width="1117.98" height="730.12"/><path class="cls-2" d="M1085.89,55.79c5.14-4.99,10.29-9.98,15.43-14.97,20.11.15,40.23.31,60.34.46,2.69,2.53,5.37,5.07,8.06,7.6.31,20.73.61,41.46.92,62.19-5.37,5.45-10.75,10.9-16.12,16.35V55.79h-68.64Z"/><path class="cls-2" d="M105.18,786.31c-5.14,4.99-10.29,9.98-15.43,14.97-20.11-.15-40.23-.31-60.34-.46-2.69-2.53-5.37-5.07-8.06-7.6-.31-20.73-.61-41.46-.92-62.19,5.37-5.45,10.75-10.9,16.12-16.35,0,23.88,0,47.75,0,71.63,22.88,0,45.76,0,68.64,0Z"/><path class="cls-2" d="M1154.52,185.33c5.45,4.61,10.89,9.21,16.34,13.82v339.49c-5.45-.31-10.89-.61-16.34-.92V185.33Z"/><path class="cls-1" d="M1177.5,540.52c-4.97-4.88-9.94-9.75-14.91-14.63.05-21.19.1-42.39.15-63.58-3.4-3.63-6.81-7.27-10.21-10.9.01,71.28.03,142.57.04,213.85,0,1.11,0,2.22.01,3.33-.05,21.14-.1,42.28-.15,63.41-17.71,17.35-35.42,34.7-53.13,52.05-43.45-.05-86.91-.1-130.36-.15,6.76,6.5,13.51,13,20.27,19.5,53.43.05,106.87.1,160.3.15,5.99-5.83,11.98-11.67,17.97-17.5.15-39.96.3-79.91.45-119.87,3.19-3.21,6.38-6.42,9.58-9.63v-116.03Z"/><rect class="cls-1" x="1152.89" y="663.61" width="14.44" height="6.22"/><path class="cls-3" d="M1154.52,643.11c-2.46,2.3-4.91,4.61-7.37,6.91-.15,25.41-.31,50.82-.46,76.24-17.35,17.04-34.7,34.09-52.05,51.13h-58.04c-2.82,2.84-5.63,5.68-8.45,8.52h72.78c17.86-17.66,35.73-35.32,53.59-52.97v-89.83Z"/><path class="cls-2" d="M806.86,785.29c3.88,3.78,7.75,7.55,11.63,11.33h163.68"/><path class="cls-2" d="M1051.65,803.46c-5.48,5.2-10.95,10.41-16.43,15.61h-130.67"/><path class="cls-2" d="M869.23,785.91c7.34,7.14,14.69,14.28,22.03,21.42"/><path class="cls-1" d="M912.76,824.88h-37.62l-9.21-8.26h-51.28c-4.09-3.86-8.19-7.73-12.28-11.59,29.89.06,59.77.11,89.66.17,3.91,3.82,7.83,7.64,11.74,11.47,5.71.06,11.43.13,17.14.19-2.71,2.68-5.43,5.36-8.14,8.03Z"/><path class="cls-2" d="M839.68,808.02c3.88-3.8,7.75-7.6,11.63-11.39"/><path class="cls-2" d="M757.14,785.29c7.24,7.17,14.48,14.33,21.73,21.5,9.47.07,18.94.15,28.41.22"/><path class="cls-1" d="M827.01,785.29c-3.63,3.02-7.27,6.04-10.9,9.06h-72.93l-9.29-9.06h93.13Z"/><path class="cls-2" d="M36.03,656.56c-5.45-4.61-10.89-9.21-16.34-13.82,0-113.16,0-226.33,0-339.49,5.45.31,10.89.61,16.34.92v352.39Z"/><path class="cls-1" d="M13.05,301.37c4.97,4.88,9.94,9.75,14.91,14.63-.05,21.19-.1,42.39-.15,63.58,3.4,3.63,6.81,7.27,10.21,10.9-.01-71.28-.03-142.57-.04-213.85,0-1.11,0-2.22-.01-3.33.05-21.14.1-42.28.15-63.41,17.71-17.35,35.42-34.7,53.13-52.05,43.45.05,86.91.1,130.36.15-6.76-6.5-13.51-13-20.27-19.5-53.43-.05-106.87-.1-160.3-.15-5.99,5.83-11.98,11.67-17.97,17.5-.15,39.96-.3,79.91-.45,119.87-3.19,3.21-6.38,6.42-9.58,9.63,0,38.68,0,77.36,0,116.03Z"/><rect class="cls-1" x="23.23" y="172.06" width="14.44" height="6.22" transform="translate(60.89 350.34) rotate(180)"/><path class="cls-3" d="M36.03,198.78c2.46-2.3,4.91-4.61,7.37-6.91.15-25.41.31-50.82.46-76.24,17.35-17.04,34.7-34.09,52.05-51.13,19.35,0,38.69,0,58.04,0,2.82-2.84,5.63-5.68,8.45-8.52-24.26,0-48.52,0-72.78,0-17.86,17.66-35.73,35.32-53.59,52.97,0,29.94,0,59.88,0,89.83Z"/><path class="cls-2" d="M383.7,56.6c-3.88-3.78-7.75-7.55-11.63-11.33-10.33,0-20.65,0-30.98,0-44.23,0-88.46,0-132.7,0"/><path class="cls-2" d="M138.9,38.43c5.48-5.2,10.95-10.41,16.43-15.61,43.56,0,87.11,0,130.67,0"/><path class="cls-2" d="M321.32,55.98c-7.34-7.14-14.69-14.28-22.03-21.42"/><path class="cls-1" d="M277.79,17.01h37.62s9.21,8.26,9.21,8.26h51.28c4.09,3.86,8.19,7.73,12.28,11.59-29.89-.06-59.77-.11-89.66-.17-3.91-3.82-7.83-7.64-11.74-11.47-5.71-.06-11.43-.13-17.14-.19,2.71-2.68,5.43-5.36,8.14-8.03Z"/><path class="cls-2" d="M350.88,33.87c-3.88,3.8-7.75,7.6-11.63,11.39"/><path class="cls-2" d="M433.41,56.6c-7.24-7.17-14.48-14.33-21.73-21.5-9.47-.07-18.94-.15-28.41-.22"/><path class="cls-1" d="M363.54,56.6c3.63-3.02,7.27-6.04,10.9-9.06,24.31,0,48.62,0,72.93,0l9.29,9.06c-31.04,0-62.08,0-93.13,0Z"/></svg>