<svg width="487" height="649" viewBox="0 0 487 649" fill="none" xmlns="http://www.w3.org/2000/svg">
<g clip-path="url(#clip0_4_53)">
<path d="M454.792 613.552C460.687 609.67 468.566 611.355 472.387 617.344C476.209 623.333 474.55 631.338 468.655 635.221C462.76 639.103 454.881 637.417 451.059 631.429C447.238 625.44 448.897 617.434 454.792 613.552Z" fill="white"/>
<path d="M443.743 636.244C450.171 646.326 463.471 649.185 473.395 642.654C483.318 636.123 486.132 622.611 479.704 612.529C473.276 602.447 459.976 599.588 450.052 606.118C440.129 612.649 437.315 626.162 443.743 636.244ZM482.163 610.904C489.48 622.37 486.28 637.718 474.994 645.182C463.708 652.616 448.601 649.365 441.254 637.899C433.938 626.433 437.137 611.084 448.423 603.62C459.709 596.187 474.816 599.437 482.163 610.904Z" fill="white"/>
<path d="M98.1092 100.518C103.263 105.755 111.498 105.935 116.949 101.06C150.096 71.5063 193.552 53.5394 241.037 53.5394C288.522 53.5394 331.948 71.5063 365.125 101.06C370.605 105.935 378.84 105.755 383.994 100.518C389.563 94.8301 389.415 85.4705 383.461 80.1737C345.426 46.1961 295.572 25.5508 241.067 25.5508C186.561 25.5508 136.707 46.1961 98.672 80.1737C92.7476 85.4705 92.5402 94.8301 98.1388 100.518" fill="white"/>
<path d="M383.106 390.095C377.981 384.888 369.805 384.647 364.325 389.493C331.267 418.625 288.166 436.291 241.067 436.291C193.967 436.291 150.867 418.625 117.808 389.493C112.328 384.647 104.152 384.888 99.0275 390.095C93.3992 395.783 93.6362 405.203 99.5903 410.469C137.507 443.935 186.976 464.249 241.067 464.249C295.157 464.249 344.626 443.935 382.543 410.469C388.527 405.172 388.734 395.783 383.106 390.095Z" fill="white"/>
<path d="M241.067 42.5547C131.227 42.5547 41.886 133.322 41.886 244.915C41.886 356.508 131.227 447.276 241.067 447.276C350.906 447.276 440.247 356.478 440.247 244.915C440.247 133.352 350.906 42.5547 241.067 42.5547ZM241.067 453.265C127.968 453.265 35.9615 359.789 35.9615 244.885C35.9615 129.981 127.968 36.5356 241.067 36.5356C354.165 36.5356 446.172 130.012 446.172 244.915C446.172 359.819 354.165 453.295 241.067 453.295" fill="white"/>
<path d="M437.048 201.939L423.066 206.664C421.289 219.485 410.388 226.166 404.789 228.814C405.352 234.382 405.648 240.04 405.648 245.758C405.648 251.837 405.293 257.826 404.671 263.725C410.269 266.313 421.319 272.994 423.096 285.935L437.078 290.66C437.078 290.66 443.832 280.548 443.832 246.3C443.832 212.051 437.078 201.939 437.078 201.939" fill="white"/>
<path d="M45.4111 201.939L59.3928 206.664C61.1701 219.485 72.0415 226.166 77.6994 228.814C77.1366 234.382 76.8404 240.04 76.8404 245.758C76.8404 251.837 77.1958 257.826 77.8179 263.725C72.2489 266.313 61.1998 272.994 59.3928 285.935L45.4111 290.66C45.4111 290.66 38.6572 280.548 38.6572 246.3C38.6572 212.051 45.4111 201.939 45.4111 201.939Z" fill="white"/>
<path d="M241.067 31.4497C125.214 31.4497 30.9554 127.213 30.9554 244.915C30.9554 362.618 125.214 458.351 241.067 458.351C356.92 458.351 451.178 362.588 451.178 244.915C451.178 127.243 356.89 31.4497 241.067 31.4497ZM241.067 460.126C124.266 460.126 29.2076 363.581 29.2076 244.885C29.2076 126.189 124.236 29.6741 241.067 29.6741C357.897 29.6741 452.926 126.22 452.926 244.915C452.926 363.611 357.897 460.156 241.067 460.156" fill="white"/>
<path d="M241.067 14.6563C116.09 14.6563 14.4261 117.943 14.4261 244.915C14.4261 371.887 116.09 475.174 241.067 475.174C366.043 475.174 467.707 371.887 467.707 244.915C467.707 117.943 366.014 14.6563 241.067 14.6563ZM241.067 482.006C112.387 482.006 7.70181 375.649 7.70181 244.915C7.70181 114.181 112.387 7.82471 241.067 7.82471C369.746 7.82471 474.431 114.181 474.431 244.915C474.431 375.649 369.746 482.006 241.067 482.006Z" fill="white"/>
<path d="M241.067 2.04648C109.247 2.04648 2.01432 110.991 2.01432 244.915C2.01432 378.839 109.247 487.784 241.067 487.784C372.886 487.784 480.119 378.839 480.119 244.915C480.119 110.991 372.856 2.04648 241.067 2.04648ZM241.067 489.8C108.151 489.8 0 379.953 0 244.915C0 109.878 108.151 0 241.067 0C373.982 0 482.133 109.878 482.133 244.915C482.133 379.953 373.982 489.83 241.067 489.83" fill="white"/>
<path d="M399.973 617.099L399.381 620.018L256.512 589.171L202.659 504.934L205.147 503.309L258.319 586.492L399.973 617.099Z" fill="white"/>
</g>
<defs>
<clipPath id="clip0_4_53">
<rect width="487" height="649" fill="white"/>
</clipPath>
</defs>
</svg>
