<?xml version="1.0" encoding="UTF-8"?><svg id="Calque_2" xmlns="http://www.w3.org/2000/svg" xmlns:xlink="http://www.w3.org/1999/xlink" viewBox="0 0 660.65 217.31"><defs><style>.cls-1{fill:#fff;}.cls-2{fill:none;}.cls-3{clip-path:url(#clippath-1);}.cls-4{clip-path:url(#clippath);}</style><clipPath id="clippath"><rect class="cls-2" width="660.65" height="217.31"/></clipPath><clipPath id="clippath-1"><rect class="cls-2" width="660.65" height="217.31"/></clipPath></defs><polygon class="cls-1" points="148.19 206.71 147.99 207.68 99.76 197.43 81.58 169.44 82.42 168.9 100.37 196.54 148.19 206.71"/><g class="cls-4"><path class="cls-1" d="M153.53,205.48c1.99-1.29,4.65-.73,5.94,1.26,1.29,1.99.73,4.65-1.26,5.94-1.99,1.29-4.65.73-5.94-1.26s-.73-4.65,1.26-5.94"/><path class="cls-1" d="M149.8,213.02c2.17,3.35,6.66,4.3,10.01,2.13,3.35-2.17,4.3-6.66,2.13-10.01-2.17-3.35-6.66-4.3-10.01-2.13-3.35,2.17-4.3,6.66-2.13,10.01M162.77,204.6c2.47,3.81,1.39,8.91-2.42,11.39-3.81,2.47-8.91,1.39-11.39-2.42-2.47-3.81-1.39-8.91,2.42-11.39,3.81-2.47,8.91-1.39,11.39,2.42"/><path class="cls-1" d="M33.12,35.01c1.74,1.74,4.52,1.8,6.36.18,11.19-9.82,25.86-15.79,41.89-15.79s30.69,5.97,41.89,15.79c1.85,1.62,4.63,1.56,6.37-.18,1.88-1.89,1.83-5-.18-6.76-12.84-11.29-29.67-18.15-48.07-18.15s-35.23,6.86-48.07,18.15c-2,1.76-2.07,4.87-.18,6.76"/><path class="cls-1" d="M129.33,131.23c-1.73-1.73-4.49-1.81-6.34-.2-11.16,9.68-25.71,15.55-41.61,15.55s-30.45-5.87-41.61-15.55c-1.85-1.61-4.61-1.53-6.34.2-1.9,1.89-1.82,5.02.19,6.77,12.8,11.12,29.5,17.87,47.76,17.87s34.96-6.75,47.76-17.87c2.02-1.76,2.09-4.88.19-6.77"/><path class="cls-1" d="M81.38,15.75C44.3,15.75,14.14,45.91,14.14,82.99s30.16,67.24,67.24,67.24,67.24-30.17,67.24-67.24S118.46,15.75,81.38,15.75M81.38,152.22c-38.18,0-69.24-31.06-69.24-69.24S43.2,13.75,81.38,13.75s69.24,31.06,69.24,69.24-31.06,69.24-69.24,69.24"/><path class="cls-1" d="M147.54,68.71l-4.72,1.57c-.6,4.26-4.28,6.48-6.17,7.36.19,1.85.29,3.73.29,5.63,0,2.02-.12,4.01-.33,5.97,1.89.86,5.62,3.08,6.22,7.38l4.72,1.57s2.28-3.36,2.28-14.74-2.28-14.74-2.28-14.74"/><path class="cls-1" d="M15.33,68.71l4.72,1.57c.6,4.26,4.27,6.48,6.18,7.36-.19,1.85-.29,3.73-.29,5.63,0,2.02.12,4.01.33,5.97-1.88.86-5.61,3.08-6.22,7.38l-4.72,1.57s-2.28-3.36-2.28-14.74,2.28-14.74,2.28-14.74"/><path class="cls-1" d="M81.38,12.06C42.27,12.06,10.45,43.88,10.45,82.99s31.82,70.92,70.93,70.92,70.93-31.82,70.93-70.92S120.48,12.06,81.38,12.06M81.38,154.5c-39.43,0-71.52-32.08-71.52-71.52S41.94,11.47,81.38,11.47s71.52,32.08,71.52,71.52-32.08,71.52-71.52,71.52"/><path class="cls-1" d="M81.38,6.48C39.19,6.48,4.87,40.8,4.87,82.99s34.32,76.51,76.51,76.51,76.51-34.32,76.51-76.51S123.56,6.48,81.38,6.48M81.38,161.77C37.94,161.77,2.6,126.43,2.6,82.99S37.94,4.21,81.38,4.21s78.78,35.34,78.78,78.78-35.34,78.78-78.78,78.78"/><path class="cls-1" d="M81.38,2.29C36.88,2.29.68,38.49.68,82.99s36.2,80.7,80.7,80.7,80.7-36.2,80.7-80.7S125.87,2.29,81.38,2.29M81.38,164.36C36.51,164.36,0,127.86,0,82.99S36.51,1.61,81.38,1.61s81.38,36.51,81.38,81.38-36.51,81.38-81.38,81.38"/><path class="cls-1" d="M660.65,44.5l-39.96-26.13-.31-.2h-208.02L384.59,0H114.92v.2c.6.25,1.21.49,1.78.78.23.12.45.25.67.38h266.35l27.78,18.17h208.02l38.26,25.02c.4-.8,1.55.07,2.86-.05"/></g><polygon class="cls-1" points="164.23 1.06 172.03 6.16 391.7 6.16 383.66 1.06 164.23 1.06"/><g class="cls-3"><path class="cls-1" d="M147.56,15.36h438.95l-2.56-1.68H145.57c.67.56,1.33,1.12,1.99,1.68"/><path class="cls-1" d="M160.66,44.84h499.21l-2.57-1.68H159.99c.25.56.48,1.11.68,1.68"/></g><polygon class="cls-1" points="298.77 44 306.89 49.31 628.03 49.31 619.91 44 298.77 44"/></svg>