<?xml version="1.0" encoding="UTF-8"?><svg id="Calque_1" xmlns="http://www.w3.org/2000/svg" xmlns:xlink="http://www.w3.org/1999/xlink" viewBox="0 0 660.65 216.37"><defs><style>.cls-1{fill:#fff;}.cls-2{fill:none;}.cls-3{clip-path:url(#clippath-1);}.cls-4{clip-path:url(#clippath);}</style><clipPath id="clippath"><rect class="cls-2" x="0" y="0" width="660.65" height="216.37"/></clipPath><clipPath id="clippath-1"><rect class="cls-2" x="0" y="0" width="660.65" height="216.37"/></clipPath></defs><polygon class="cls-1" points="509.92 206.06 510.09 207.04 558.57 198.49 577.68 171.19 576.87 170.62 557.99 197.58 509.92 206.06"/><g class="cls-4"><path class="cls-1" d="M504.64,204.65c-1.94-1.36-4.61-.89-5.97,1.05-1.36,1.94-.89,4.61,1.05,5.97,1.94,1.36,4.61.89,5.97-1.05,1.36-1.94.89-4.61-1.05-5.97"/><path class="cls-1" d="M508.1,212.3c-2.29,3.26-6.8,4.06-10.06,1.77-3.26-2.29-4.06-6.8-1.77-10.06,2.29-3.26,6.8-4.06,10.06-1.77,3.26,2.29,4.06,6.8,1.77,10.06M495.45,203.45c-2.6,3.71-1.69,8.85,2.02,11.45,3.71,2.6,8.85,1.69,11.45-2.02,2.6-3.71,1.69-8.85-2.02-11.45-3.71-2.6-8.85-1.69-11.45,2.02"/><path class="cls-1" d="M627.3,34.98c-1.73,1.74-1.8,4.51-.18,6.35,9.81,11.18,15.76,25.82,15.76,41.82s-5.96,30.64-15.76,41.82c-1.62,1.85-1.55,4.62.18,6.36,1.89,1.88,4.99,1.82,6.75-.18,11.27-12.82,18.12-29.62,18.12-48s-6.85-35.18-18.12-48c-1.76-2-4.86-2.06-6.75-.18"/><path class="cls-1" d="M531.23,131.04c1.73-1.73,1.81-4.48.2-6.33-9.66-11.14-15.52-25.67-15.52-41.54s5.86-30.4,15.52-41.54c1.6-1.85,1.53-4.6-.2-6.33-1.89-1.89-5.01-1.82-6.76.19-11.11,12.78-17.84,29.46-17.84,47.68s6.74,34.9,17.84,47.68c1.76,2.02,4.88,2.09,6.76.19"/><path class="cls-1" d="M646.53,83.16c0-37.02-30.11-67.13-67.14-67.13s-67.14,30.11-67.14,67.13,30.12,67.14,67.14,67.14,67.14-30.11,67.14-67.14M510.27,83.16c0-38.12,31.01-69.13,69.13-69.13s69.13,31.01,69.13,69.13-31.01,69.13-69.13,69.13-69.13-31.01-69.13-69.13"/><path class="cls-1" d="M593.65,149.22l-1.57-4.72c-4.25-.6-6.47-4.27-7.34-6.16-1.85.19-3.73.29-5.62.29-2.02,0-4-.12-5.96-.33-.86,1.88-3.08,5.61-7.36,6.21l-1.57,4.72s3.36,2.28,14.71,2.28,14.71-2.28,14.71-2.28"/><path class="cls-1" d="M593.65,17.22l-1.57,4.72c-4.25.6-6.47,4.27-7.34,6.17-1.85-.19-3.73-.29-5.62-.29-2.02,0-4,.12-5.96.33-.86-1.88-3.08-5.6-7.36-6.21l-1.57-4.72s3.36-2.27,14.71-2.27,14.71,2.27,14.71,2.27"/><path class="cls-1" d="M650.21,83.16c0-39.05-31.77-70.81-70.81-70.81s-70.81,31.77-70.81,70.81,31.76,70.81,70.81,70.81,70.81-31.77,70.81-70.81M508,83.16c0-39.37,32.03-71.4,71.4-71.4s71.4,32.03,71.4,71.4-32.03,71.4-71.4,71.4-71.4-32.03-71.4-71.4"/><path class="cls-1" d="M655.79,83.16c0-42.12-34.27-76.39-76.39-76.39s-76.39,34.27-76.39,76.39,34.27,76.39,76.39,76.39,76.39-34.27,76.39-76.39M500.74,83.16c0-43.37,35.28-78.65,78.65-78.65s78.66,35.28,78.66,78.65-35.28,78.66-78.66,78.66-78.65-35.28-78.65-78.66"/><path class="cls-1" d="M659.97,83.16c0-44.43-36.14-80.57-80.57-80.57s-80.57,36.14-80.57,80.57,36.15,80.57,80.57,80.57,80.57-36.14,80.57-80.57M498.15,83.16c0-44.8,36.45-81.25,81.25-81.25s81.25,36.45,81.25,81.25-36.45,81.25-81.25,81.25-81.25-36.45-81.25-81.25"/><path class="cls-1" d="M0,44.43l39.89-26.09.31-.2h207.69L275.62,0h269.24v.2c-.6.25-1.21.49-1.78.78-.23.12-.45.25-.67.38h-265.93l-27.74,18.14H41.06L2.86,44.49c-.4-.8-1.55.07-2.86-.05"/></g><polygon class="cls-1" points="495.63 1.06 487.84 6.15 268.52 6.15 276.54 1.06 495.63 1.06"/><g class="cls-3"><path class="cls-1" d="M512.27,15.34H74.02l2.56-1.67h437.68c-.67.56-1.32,1.12-1.98,1.67"/><path class="cls-1" d="M499.19,44.77H.77l2.57-1.67h496.54c-.25.56-.48,1.11-.68,1.67"/></g><polygon class="cls-1" points="361.31 43.93 353.2 49.23 32.56 49.23 40.67 43.93 361.31 43.93"/></svg>