<?xml version="1.0" encoding="UTF-8"?><svg id="Calque_1" xmlns="http://www.w3.org/2000/svg" viewBox="0 0 715.61 306.2"><defs><style>.cls-1,.cls-2{fill:#fff;}.cls-2{opacity:.14;}</style></defs><path class="cls-1" d="M169.43,185.62h-90.34l-.28-.48-44.89-77.75L79.09,29.15h90.34l.28.48,44.89,77.75-45.17,78.23ZM80.2,183.7h88.12l44.06-76.31-44.06-76.31h-88.12l-44.06,76.31,44.06,76.31Z"/><polygon class="cls-1" points="77.04 25.6 107.26 25.6 104.97 21.64 74.76 21.64 59.65 47.81 61.94 51.77 77.04 25.6"/><polygon class="cls-1" points="168.82 184.57 127.83 184.57 130.93 189.94 171.93 189.94 192.42 154.44 189.32 149.07 168.82 184.57"/><polygon class="cls-1" points="45.85 136.27 47.84 139.72 49.55 138.73 51.98 142.95 50.27 143.94 52.32 147.48 54.03 146.5 56.46 150.71 54.75 151.7 56.8 155.25 58.51 154.26 60.94 158.48 59.23 159.46 61.23 162.91 66.95 162.91 48.71 131.32 45.85 136.27"/><polygon class="cls-1" points="203.31 80.13 201.32 76.68 199.61 77.67 197.17 73.45 198.88 72.46 196.84 68.92 195.13 69.9 192.69 65.69 194.4 64.7 192.35 61.16 190.65 62.14 188.21 57.92 189.92 56.94 187.93 53.49 182.21 53.49 200.45 85.08 203.31 80.13"/><path class="cls-1" d="M175.17,195.24h-47.2l-2.98-5.16h-48.52l-12.63-21.88h-5.58l-18.48-32.01,2.79-4.83-13.89-24.05L76.47,24.53h95.58l13.57,23.5h5.56l18.48,32.01-2.78,4.81,12.96,22.45-24.12,41.77,3.05,5.28-23.6,40.88ZM129.08,193.32h44.99l22.49-38.96-3.05-5.28,24.12-41.77-12.96-22.45,2.78-4.81-17.37-30.09h-5.56l-13.57-23.5h-93.36L30.9,107.31l13.89,24.05-2.79,4.83,17.37,30.09h5.58l12.63,21.88h48.52l2.98,5.16Z"/><polygon class="cls-1" points="27.96 113.66 24.27 107.27 27.82 101.12 29.48 102.08 26.49 107.27 29.62 112.7 27.96 113.66"/><polygon class="cls-1" points="220.84 113.66 219.17 112.7 222.17 107.51 219.04 102.08 220.7 101.12 224.39 107.51 220.84 113.66"/><polygon class="cls-1" points="173.33 25.73 162.87 25.73 164.86 22.19 173.33 22.19 173.33 25.73"/><polygon class="cls-1" points="161.22 22.19 156.22 22.19 154.23 25.73 159.24 25.73 161.22 22.19"/><polygon class="cls-1" points="152.46 22.19 147.46 22.19 145.47 25.73 150.47 25.73 152.46 22.19"/><polygon class="cls-1" points="143.7 22.19 138.69 22.19 136.71 25.73 141.71 25.73 143.7 22.19"/><polygon class="cls-1" points="170.29 23.94 179.72 40.27 181.79 36.78 173.35 22.17 170.29 23.94"/><polygon class="cls-2" points="636.11 21.09 534.76 21.09 190.9 21.09 238.92 108.86 190.9 196.63 534.76 196.63 629.29 196.63 636.11 196.63 686.78 108.86 636.11 21.09"/><path class="cls-1" d="M652.76,217.72H62.85s-.28-.48-.28-.48L0,108.86l.28-.48L62.85,0h589.91l.28.48,62.57,108.38-.28.48-62.57,108.38ZM63.96,215.8h587.7s61.74-106.94,61.74-106.94L651.66,1.92H63.96L2.22,108.86l61.74,106.94Z"/><polygon class="cls-1" points="660.2 235.05 621.68 235.05 621.68 233.13 659.09 233.13 678.82 198.95 680.49 199.91 660.2 235.05"/><path class="cls-1" d="M660.85,233.96c-.65-.12-1.3-.25-1.95-.37l-17.37,35.76-61.09,21.14c.14.63.3,1.25.46,1.87l62.01-21.46,17.94-36.94Z"/><polygon class="cls-1" points="627.34 286.91 650.55 278.46 658.78 260.82 657.04 260 649.15 276.92 626.68 285.1 627.34 286.91"/><path class="cls-1" d="M560.44,298.69c-2.15-5.91.91-12.48,6.82-14.63,5.91-2.15,12.48.91,14.63,6.82s-.91,12.48-6.82,14.63-12.48-.91-14.63-6.82ZM562.24,298.03c1.79,4.92,7.25,7.46,12.17,5.67s7.46-7.25,5.67-12.17-7.25-7.46-12.17-5.67-7.46,7.25-5.67,12.17Z"/><path class="cls-1" d="M565.66,296.79c-1.1-3.04.47-6.4,3.5-7.51s6.4.47,7.51,3.5-.47,6.4-3.5,7.51c-3.04,1.1-6.41-.47-7.51-3.5ZM567.46,296.13c.74,2.04,3.01,3.1,5.05,2.35s3.1-3.01,2.35-5.05-3.01-3.1-5.05-2.35-3.1,3.01-2.35,5.05Z"/></svg>