<?xml version="1.0" encoding="UTF-8"?><svg id="Layer_1" xmlns="http://www.w3.org/2000/svg" viewBox="0 0 245.27 172.91"><defs><style>.cls-1{fill:#fff;}</style></defs><path class="cls-1" d="M221.63,16.05c-3.22,0-5.91,2.26-6.58,5.27h-13.76c-4.01,0-7.27,3.26-7.27,7.27v3.38h-.02v7.27c0,2.86-2.33,5.19-5.19,5.19h-33.37l9.86,2.77h33.37c-5.86-.69-2.6-3.96-2.6-7.96v-5.71h.02v-4.94c0-2.86,2.33-5.19,5.19-5.19h13.62c.3,3.45,3.19,6.15,6.72,6.15,3.73,0,6.75-3.02,6.75-6.75s-3.02-6.75-6.75-6.75"/><path class="cls-1" d="M55.93,45.39c-2.86,0-5.19-2.33-5.19-5.19v-7.27h-.02v-3.38c0-4.01-3.26-7.27-7.27-7.27h-12.78c-.27-3.48-3.17-6.23-6.72-6.23-3.73,0-6.75,3.02-6.75,6.75s3.02,6.75,6.75,6.75c3.19,0,5.86-2.22,6.56-5.19h12.94c2.86,0,5.19,2.33,5.19,5.19v4.94h.02v5.71c0,4.01,3.26,7.27-2.6,7.96h33.37l9.86-2.77h-33.37Z"/><path class="cls-1" d="M119.93,94.89v-33.37c-.68,5.71-3.79,2.76-7.66,2.6-.5-2.52-2.73-4.42-5.39-4.42-3.04,0-5.5,2.46-5.5,5.5s2.46,5.5,5.5,5.5c2.7,0,4.94-1.94,5.41-4.5,2.72.16,4.88,2.41,4.88,5.18v33.37l2.77-9.86Z"/><path class="cls-1" d="M127.2,61.52v33.37l2.77,9.86v-33.37c0-2.53,1.82-4.64,4.22-5.1.5,2.52,2.73,4.42,5.4,4.42,3.04,0,5.5-2.46,5.5-5.5s-2.46-5.5-5.5-5.5c-2.69,0-4.92,1.93-5.4,4.47-3.55.42-6.34,2.71-6.98-2.66"/><path class="cls-1" d="M102.9,89.55c0-3.35-1.99-6.22-4.85-7.51v-29.36c0-2.87,2.32-5.19,5.19-5.19h1.82c.53,1.02,1.6,1.71,2.83,1.71,1.76,0,3.2-1.43,3.2-3.2s-1.43-3.2-3.2-3.2c-1.56,0-2.86,1.12-3.14,2.6h-1.51c-4.01,0-7.27,3.26-11.16,0v36.3c-3.3,1.08-5.68,4.18-5.68,7.84,0,4.56,3.7,8.25,8.25,8.25s8.25-3.7,8.25-8.25"/><path class="cls-1" d="M153.34,81.76v-36.35c-3.89,3.26-7.15,0-11.16,0-.28-1.48-1.58-2.6-3.14-2.6-1.76,0-3.2,1.43-3.2,3.2s1.43,3.2,3.2,3.2c1.23,0,2.29-.69,2.83-1.71h.3c2.86,0,5.19,2.33,5.19,5.19v29.28c-2.94,1.26-5.01,4.18-5.01,7.59,0,4.56,3.7,8.25,8.25,8.25s8.25-3.7,8.25-8.25c0-3.6-2.31-6.66-5.53-7.78"/><path class="cls-1" d="M105.77,104.21h2.11c2.5,0,4.54-3.26,4.54-7.27v-16.14c1.35-.38,2.33-1.61,2.33-3.07,0-1.76-1.43-3.2-3.2-3.2s-3.2,1.43-3.2,3.2c0,1.62,1.2,2.95,2.76,3.16v13.45c0,5.46-1.46,7.79-3.24,7.79h-3.09v.02h-3.57c-2.5,0-4.54,3.26-4.97-2.6v33.37l1.73,9.86v-33.37c0-2.86,1.45-5.19,3.24-5.19h4.54Z"/><path class="cls-1" d="M146.22,102.15h-3.57v-.02h-3.09c-1.79,0-3.24-2.33-3.24-5.19v-16.05c1.56-.21,2.76-1.55,2.76-3.16,0-1.76-1.43-3.2-3.2-3.2s-3.2,1.43-3.2,3.2c0,1.47.99,2.7,2.33,3.07v13.54c0,6.6,2.04,9.87,4.54,9.87h2.11s4.54.01,4.54.01c1.79,0,3.24,2.33,3.24,5.19v33.37l1.73-9.86v-33.37c-.43,5.86-2.47,2.6-4.97,2.6"/><path class="cls-1" d="M132.27,109.46h-3.26c-.39-2.66-2.67-4.7-5.44-4.7s-5.05,2.04-5.44,4.7h-2.81c-4.01,0-7.27,3.26-11.16,0v38.89l5.97,12.46v-44.09c0-2.86,2.33-5.19,5.19-5.19h2.89c.58,2.42,2.75,4.23,5.35,4.23s4.77-1.8,5.35-4.23h3.35c2.86,0,5.19,2.33,5.19,5.19v44.09l5.97-11.73v-39.63c-3.9,3.26-7.16,0-11.16,0"/><path class="cls-1" d="M123.57,151.19c-5.32,0-9.63,4.31-9.63,9.63s4.31,9.63,9.63,9.63,9.63-4.31,9.63-9.63-4.31-9.63-9.63-9.63"/><path class="cls-1" d="M77.28,30.74c2.34,0,4.33-1.46,5.13-3.52h30.19c2.86,0,5.19,2.33,5.19,5.19v10.67c-2.34,1.76-3.86,4.55-3.86,7.69,0,5.32,4.31,9.63,9.63,9.63s9.63-4.31,9.63-9.63c0-3.52-1.89-6.58-4.7-8.26v-10.1c0-2.86,2.33-5.19,5.19-5.19h30.19c.8,2.06,2.79,3.52,5.13,3.52,3.04,0,5.5-2.46,5.5-5.5s-2.46-5.5-5.5-5.5c-2.36,0-4.37,1.49-5.15,3.59h-37.43c3.26,3.9,0,5.08,0,9.09v9.17c-.9-.28-1.86-.43-2.85-.43-1.31,0-2.56.26-3.69.74v-9.47c0-4.01-3.26-5.19,0-9.09h-37.43c-.78-2.09-2.79-3.59-5.15-3.59-3.04,0-5.5,2.46-5.5,5.5s2.46,5.5,5.5,5.5"/><path class="cls-1" d="M15.23,10.38h39.24c.5,2.87,2.82,5.12,5.72,5.51v12.53c0,4.01,3.26,7.27,0,11.17h44.09l7.27-5.97h-44.09c-2.86,0-5.19-2.33-5.19-5.19v-12.56c3.17-.55,5.59-3.31,5.59-6.64,0-3.73-3.02-6.75-6.75-6.75-2.42,0-4.54,1.28-5.73,3.2H7.63c3.6,2.64.34,5.9.34,9.91v2.48c-.06,0-.12,0-.18,0-2.37,0-4.3,1.93-4.3,4.3s1.93,4.3,4.3,4.3,4.3-1.93,4.3-4.3c0-1.55-.82-2.9-2.05-3.66v-3.12c0-2.86,2.33-5.19,5.19-5.19"/><path class="cls-1" d="M237.49,18.05s-.06,0-.09,0v-2.26c0-4.01-3.27-7.27.33-9.91h-47.4c-1.16-2.04-3.35-3.42-5.87-3.42-3.73,0-6.75,3.02-6.75,6.75,0,3.33,2.41,6.09,5.59,6.64v12.57c0,2.86-2.33,5.19-5.19,5.19h-44.09l7.27,5.97h44.09c-3.26-3.9,0-7.16,0-11.16v-12.53c2.83-.38,5.11-2.52,5.69-5.29h39.05c2.86,0,5.19,2.33,5.19,5.19v2.85c-1.27.75-2.13,2.12-2.13,3.71,0,2.38,1.93,4.3,4.3,4.3s4.3-1.93,4.3-4.3-1.93-4.3-4.3-4.3"/></svg>