<?xml version="1.0" encoding="UTF-8"?><svg id="Layer_1" xmlns="http://www.w3.org/2000/svg" viewBox="0 0 1171.44 811.46"><defs><style>.cls-1{fill:#fff;}</style></defs><path class="cls-1" d="M865.75,74.43c-9.11,0-16.71,6.38-18.62,14.92h-38.91c-11.34,0-20.56,9.22-20.56,20.56v9.56h-.05v20.56c0,8.1-6.59,14.68-14.69,14.68h-94.4l27.9,7.84h94.4c-16.57-1.97-7.34-11.19-7.34-22.52v-16.15h.05v-13.98c0-8.1,6.59-14.68,14.69-14.68h38.53c.86,9.75,9.03,17.39,19.01,17.39,10.54,0,19.09-8.55,19.09-19.09s-8.55-19.09-19.09-19.09"/><path class="cls-1" d="M397,157.42c-8.1,0-14.69-6.59-14.69-14.68v-20.56h-.05v-9.56c0-11.34-9.22-20.56-20.56-20.56h-36.14c-.75-9.86-8.97-17.63-19.02-17.63-10.54,0-19.09,8.55-19.09,19.09s8.55,19.09,19.09,19.09c9.03,0,16.57-6.27,18.56-14.69h36.6c8.1,0,14.69,6.59,14.69,14.69v13.97h.05v16.15c0,11.34,9.22,20.56-7.34,22.52h94.4l27.9-7.84h-94.4Z"/><path class="cls-1" d="M578.07,297.46v-94.4c-1.91,16.14-10.72,7.8-21.67,7.36-1.42-7.13-7.72-12.5-15.26-12.5-8.6,0-15.57,6.97-15.57,15.57s6.97,15.57,15.57,15.57c7.63,0,13.96-5.49,15.3-12.74,7.69.46,13.79,6.83,13.79,14.64v94.4l7.84-27.9Z"/><path class="cls-1" d="M598.63,203.06v94.4l7.84,27.9v-94.4c0-7.15,5.14-13.12,11.93-14.42,1.42,7.14,7.71,12.52,15.27,12.52,8.6,0,15.57-6.97,15.57-15.57s-6.97-15.57-15.57-15.57c-7.6,0-13.92,5.45-15.29,12.65-10.04,1.19-17.94,7.67-19.75-7.52"/><path class="cls-1" d="M529.9,282.34c0-9.46-5.64-17.59-13.73-21.26v-83.04c0-8.11,6.57-14.69,14.69-14.69h5.16c1.51,2.88,4.53,4.84,8,4.84,4.99,0,9.04-4.05,9.04-9.04s-4.05-9.04-9.04-9.04c-4.42,0-8.09,3.18-8.88,7.37h-4.28c-11.34,0-20.56,9.22-31.58,0v102.68c-9.33,3.06-16.08,11.83-16.08,22.18,0,12.89,10.45,23.35,23.35,23.35s23.35-10.45,23.35-23.35"/><path class="cls-1" d="M672.58,260.31v-102.84c-11.01,9.22-20.23.01-31.56,0-.79-4.19-4.46-7.37-8.88-7.37-4.99,0-9.04,4.05-9.04,9.04s4.05,9.04,9.04,9.04c3.48,0,6.49-1.96,8-4.84h.86c8.1,0,14.69,6.59,14.69,14.69v82.83c-8.33,3.57-14.16,11.83-14.16,21.47,0,12.89,10.45,23.35,23.35,23.35s23.35-10.45,23.35-23.35c0-10.19-6.54-18.84-15.64-22.02"/><path class="cls-1" d="M537.99,323.82h5.97c7.08,0,12.84-9.23,12.84-20.56v-45.64c3.81-1.06,6.6-4.55,6.6-8.7,0-4.99-4.05-9.04-9.04-9.04s-9.04,4.05-9.04,9.04c0,4.57,3.4,8.35,7.81,8.95v38.05c0,15.44-4.12,22.03-9.18,22.03h-8.73v.05h-10.09c-7.08,0-12.84,9.23-14.07-7.34v94.4l4.89,27.9v-94.4c0-8.1,4.11-14.69,9.17-14.69h12.85v-.04Z"/><path class="cls-1" d="M652.43,317.99h-10.09v-.04h-8.73c-5.06,0-9.17-6.59-9.17-14.69v-45.39c4.41-.6,7.81-4.37,7.81-8.95,0-4.99-4.05-9.04-9.04-9.04s-9.04,4.05-9.04,9.04c0,4.15,2.79,7.63,6.6,8.7v38.3c0,18.68,5.76,27.91,12.84,27.91h5.97v.04h12.85c5.06,0,9.17,6.59,9.17,14.69v94.4l4.9-27.9v-94.4c-1.23,16.57-6.99,7.34-14.07,7.34"/><path class="cls-1" d="M612.96,338.67h-9.23c-1.1-7.52-7.56-13.3-15.39-13.3s-14.29,5.78-15.38,13.3h-7.94c-11.34,0-20.56,9.22-31.58,0v110.02l16.9,35.26v-124.72c0-8.1,6.59-14.69,14.69-14.69h8.19c1.63,6.85,7.78,11.96,15.13,11.96s13.5-5.11,15.13-11.96h9.48c8.1,0,14.69,6.59,14.69,14.69v124.72l16.9-33.18v-112.1c-11.02,9.22-20.24,0-31.58,0"/><path class="cls-1" d="M588.35,456.71c-15.04,0-27.24,12.19-27.24,27.24s12.19,27.23,27.24,27.23,27.24-12.19,27.24-27.23-12.2-27.24-27.24-27.24"/><path class="cls-1" d="M457.43,115.98c6.62,0,12.26-4.14,14.51-9.97h85.4c8.1,0,14.68,6.59,14.68,14.69v30.18c-6.62,4.97-10.91,12.86-10.91,21.77,0,15.04,12.19,27.24,27.24,27.24s27.23-12.2,27.23-27.24c0-9.95-5.35-18.62-13.31-23.37v-28.58c0-8.1,6.59-14.69,14.69-14.69h85.4c2.25,5.82,7.89,9.97,14.51,9.97,8.6,0,15.57-6.97,15.57-15.57s-6.97-15.57-15.57-15.57c-6.69,0-12.37,4.23-14.58,10.15h-105.9c9.22,11.02,0,14.37,0,25.71v25.93c-2.55-.79-5.25-1.21-8.05-1.21-3.7,0-7.23.75-10.45,2.08v-26.8c0-11.34-9.23-14.69,0-25.71h-105.9c-2.2-5.92-7.89-10.15-14.58-10.15-8.6,0-15.57,6.97-15.57,15.57s6.97,15.57,15.57,15.57"/><path class="cls-1" d="M281.9,58.39h111.01c1.42,8.13,7.97,14.47,16.19,15.59v35.44c0,11.34,9.22,20.56,0,31.58h124.71l20.56-16.9h-124.71c-8.1,0-14.68-6.59-14.68-14.69v-35.54c8.98-1.56,15.81-9.37,15.81-18.79,0-10.55-8.55-19.09-19.09-19.09-6.86,0-12.85,3.63-16.22,9.05h-135.1c10.18,7.47.96,16.69.96,28.03l-.02,7.02c-.16,0-.32-.03-.48-.03-6.72,0-12.17,5.45-12.17,12.17s5.45,12.17,12.17,12.17,12.17-5.45,12.17-12.17c0-4.38-2.32-8.2-5.79-10.35v-8.82c0-8.1,6.59-14.68,14.69-14.68"/><path class="cls-1" d="M910.61,80.07c-.09,0-.17.02-.25.02l-.02-6.39c0-11.34-9.22-20.56.96-28.03h-134.09c-3.28-5.77-9.48-9.67-16.59-9.67-10.54,0-19.09,8.55-19.09,19.09,0,9.43,6.83,17.23,15.81,18.79v35.54c0,8.1-6.59,14.68-14.69,14.68h-124.72l20.56,16.89h124.72c-9.22-11.02,0-20.24,0-31.58v-35.44c8.02-1.09,14.46-7.14,16.09-14.97h110.48c8.1,0,14.69,6.59,14.69,14.69v8.05c-3.6,2.11-6.02,6.01-6.02,10.49,0,6.72,5.45,12.17,12.17,12.17s12.17-5.45,12.17-12.17-5.45-12.17-12.17-12.17"/><path class="cls-1" d="M105.23,573.5c-.42-.07-.83-.09-1.27-.09h-31.9l-7.05.09-2.5.02c-.13,0-.26.02-.37.02-4.45.7-7.93,4.34-8.39,8.87-.02.13-.04.26-.04.42v80.29c0,5.54,4.49,10.03,10.03,10.03s10.03-4.49,10.03-10.03v-62.2c.28-4.73,2.56-7.29,6.85-7.71h24.94c.26,0,.52,0,.77-.02,4.09-.99,7.2-4.49,7.62-8.78.02-.28.04-.59.04-.88v-.22c-.07-5.04-3.85-9.2-8.76-9.81Z"/><path class="cls-1" d="M326.69,579.76c-1.95-4.12-6.2-6.2-12.72-6.24-6.55-.07-10.95,1.84-13.2,5.76l-34.7,87.51c-1.31,4.49-.18,6.87,3.41,7.16h10.27c2.93-.28,4.95-1.86,6.04-4.71l24.76-64.85c2.28-6.96,4.55-6.96,6.85,0l25.11,64.79c1.14,2.91,3.2,4.49,6.17,4.77l10.27-.31c3.5-.09,4.64-2.19,3.42-6.35l-35.69-87.54Z"/><path class="cls-1" d="M479.41,573.94c-.88-.18-1.82-.26-2.85-.29-.2,0-.4,0-.59.02-5.06.52-9,4.79-9,9.98v47.82c0,4.55-2.19,5.58-6.59,3.04l-53.07-57.01c-2.61-2.5-5.45-3.85-8.56-4.09h-4.88c-4.55.28-6.85,2.89-6.85,7.82v82.39c0,.35.02.68.04,1.03.53,5.06,4.79,9,9.98,9,5.47,0,9.92-4.38,10.03-9.83v-44.82c0-4.23,2.45-4.27,7.34-.11l49.09,51.34c2.32,2.36,5.19,3.5,8.63,3.42h5.36c6.37.09,9.46-2.85,9.31-8.8l.24-67.96v-13.22c0-.35-.02-.7-.04-1.05-.46-4.23-3.53-7.69-7.58-8.67Z"/><path class="cls-1" d="M601.85,621.17c-6.99-5.06-14.06-7.51-21.17-7.36v19.81c5.6,0,9.17,1.55,10.68,4.68.66,1.36.99,3.13.99,5.32,0,2.67-.44,4.58-1.29,5.76-.86,1.18-2.52,2.17-5.01,2.93-2.94.9-7.58,1.31-13.93,1.27h-49.88c-.15,0-.28,0-.44.02-.2,0-.39,0-.59.02-4.75.48-8.49,4.27-8.95,9.02-.02.33-.05.63-.05.96v.02c0,.35.02.66.05,1.01.53,5.06,4.79,9,9.98,9h49.64c17.52,0,29.43-4.49,35.75-13.44,3.13-4.53,4.71-10.05,4.71-16.57,0-9.9-3.5-17.39-10.49-22.46Z"/><path class="cls-1" d="M522.7,626.31c6.99,5.08,14.03,7.53,21.17,7.36v-19.79c-5.63,0-9.19-1.58-10.71-4.71-.64-1.36-.96-3.13-.96-5.32,0-2.65.42-4.55,1.27-5.74.86-1.18,2.54-2.17,5.01-2.96,2.94-.88,7.47-1.53,13.58-1.95h52.05c4.38-1.03,7.64-4.9,7.73-9.57v-.2c0-.35-.02-.7-.04-1.05-.46-4.23-3.53-7.69-7.58-8.67-.13-.04-.26-.07-.42-.09-.28,0-.57,0-.87.02h-3.92l-46.77.18c-17.23,0-29.01,4.49-35.32,13.44-3.15,4.53-4.71,10.05-4.71,16.57,0,9.9,3.48,17.38,10.49,22.46Z"/><path class="cls-1" d="M858.06,660.21c3.13-4.53,4.58-9.94,4.34-16.27-.33-10.75-5.06-17.1-14.19-19.07,9.13-2.28,13.97-9.28,14.54-21.02,0-6.52-1.55-12.04-4.69-16.57-6.33-8.95-18.17-13.53-35.53-13.75h-48.65c-7.49.22-11.23,4.44-11.23,12.72v76.65c0,7.25,3.57,10.84,10.75,10.75l22.01.13h26.89c17.54-.09,29.45-4.62,35.78-13.58ZM841.79,638.31c.66,1.36.99,3.13.99,5.32,0,2.67-.44,4.58-1.29,5.76-.86,1.18-2.54,2.17-5.01,2.93-2.93.53-7.66.83-14.19.92h-33.24c-4.25,0-6.37-2.01-6.37-6v-46.94c0-4.49,2.12-6.77,6.37-6.85l33.24.13c6.53.15,11.26.7,14.19,1.58,2.47.79,4.16,1.77,5.01,2.96.85,1.18,1.29,3.09,1.29,5.74,0,2.19-.33,3.96-.99,5.32-1.51,3.13-5.08,4.71-10.71,4.71v19.75c5.63,0,9.2,1.55,10.71,4.68Z"/><circle class="cls-1" cx="31.42" cy="583.81" r="10.03" transform="translate(-71.1 8.21) rotate(-7.02)"/><path class="cls-1" d="M239.22,603.85c0-6.52-1.58-12.04-4.71-16.57-6.31-8.95-18.15-13.53-35.51-13.75h-48.65c-7.51.22-11.25,4.44-11.25,12.72v76.87h0c0,4.75,3.31,8.74,7.75,9.77.72.18,1.49.26,2.28.26s1.6-.09,2.36-.28c4.09-.99,7.2-4.49,7.62-8.78.02-.29.04-.59.04-.88v-.22s0-.02,0-.03v-62.04c0-4.88,2.28-7.33,6.85-7.33h33.24c6.2.15,10.77.7,13.71,1.58,2.47.79,4.14,1.77,5.01,2.96.85,1.18,1.27,3.09,1.27,5.74,0,2.19-.33,3.96-.96,5.32-1.51,3.13-5.08,4.71-10.71,4.71v19.75c5.63,0,9.2,1.55,10.71,4.68.64,1.36.96,3.13.96,5.32l-.18,19.99c-.18,6.7,3.02,10.09,9.59,10.22,6.81-.13,10.2-3.5,10.2-10.16v-19.75c-.33-10.75-5.04-17.1-14.17-19.07,9.13-2.28,13.97-9.28,14.54-21.02Z"/><path class="cls-1" d="M186.48,613.66c-5.54,0-10.03,4.49-10.03,10.03s4.49,10.03,10.03,10.03,10.03-4.49,10.03-10.03-4.49-10.03-10.03-10.03Z"/><path class="cls-1" d="M314.2,652.11c-5.54,0-10.03,4.49-10.03,10.03s4.49,10.03,10.03,10.03,10.03-4.49,10.03-10.03-4.49-10.03-10.03-10.03Z"/><path class="cls-1" d="M444.8,595.33c5.47,0,9.92-4.38,10.03-9.83v-.2c0-.35-.02-.7-.04-1.05-.46-4.23-3.53-7.69-7.58-8.67-.77-.2-1.58-.31-2.41-.31-.15,0-.28,0-.44.02-.2,0-.4,0-.59.02-5.06.52-9,4.79-9,9.98v.02c0,.35.02.66.04,1.01.53,5.06,4.79,9,9.98,9Z"/><path class="cls-1" d="M687.44,633.67c5.47,0,9.92-4.38,10.03-9.85v-.2c0-.35-.02-.7-.04-1.05-.46-4.23-3.53-7.66-7.55-8.65-.7-.2-1.49-.31-2.26-.31h-.18c-.15,0-.28,0-.44.02-.2,0-.4,0-.59.02-.18.02-.35.04-.53.09-4.51.68-7.99,4.36-8.43,8.91-.02.33-.04.64-.04.96v.13c0,.31.02.59.04.9.53,5.08,4.79,9.02,9.98,9.02Z"/><path class="cls-1" d="M564.68,614.02c-.13-.04-.26-.07-.42-.09-.64-.15-1.31-.22-1.99-.22-.15,0-.28,0-.44.02-.2,0-.4,0-.59.02-.39.04-.79.11-1.18.2-4.47,1.01-7.81,5.02-7.81,9.79v.02c0,.35.02.66.04,1.01.44,4.29,3.61,7.79,7.73,8.73.72.18,1.47.26,2.25.26s1.55-.09,2.3-.26c4.38-1.03,7.64-4.9,7.73-9.57v-.2c0-.35-.02-.7-.04-1.05-.46-4.23-3.53-7.68-7.58-8.67Z"/><path class="cls-1" d="M737.51,623.91v-40.37c0-.35-.02-.7-.04-1.05-.47-4.23-3.58-7.66-7.67-8.65-.71-.2-1.51-.31-2.29-.31h-.18c-.15,0-.29,0-.44.02-.4.02-.78.04-1.14.11-4.57.68-8.11,4.36-8.55,8.91-.02.33-.04.63-.04.96l-.06,40c.28,6.63-.99,12.22-3.79,16.75-5.67,9.13-14.3,13.68-25.86,13.68-5.19,0-10.05-1.14-14.63-3.41-10.25-5.1-15.39-13.99-15.39-26.65v-40.24c0-.35-.02-.7-.04-1.05-.46-4.23-3.53-7.66-7.55-8.65-.7-.2-1.49-.31-2.26-.31h-.18c-.15,0-.28,0-.44.02-.4.02-.77.04-1.12.11-4.51.68-7.99,4.36-8.43,8.91-.02.33-.04.63-.04.96v40.24c0,15,4.6,27.08,13.8,36.26,9.17,9.2,21.28,13.79,36.28,13.79s27.13-4.58,36.3-13.75c9.17-9.17,13.75-21.28,13.75-36.3Z"/><path class="cls-1" d="M812.49,613.81c-.7-.2-1.49-.31-2.26-.31h-.18c-.15,0-.28,0-.44.02-.2,0-.4,0-.59.02-.18.02-.35.04-.53.09-4.51.68-7.99,4.36-8.43,8.91-.02.33-.04.64-.04.96v.13c0,.31.02.59.04.9.53,5.08,4.79,9.02,9.98,9.02,5.47,0,9.92-4.38,10.03-9.85v-.2c0-.35-.02-.7-.04-1.05-.46-4.23-3.53-7.66-7.55-8.65Z"/><path class="cls-1" d="M1018.18,573.72c-.7-.2-1.49-.31-2.26-.31h-.18c-.15,0-.28,0-.44.02-.2,0-.4,0-.59.02-.18.02-.35.04-.53.09-4.51.68-7.99,4.36-8.43,8.91-.02.33-.04.63-.04.96v.13c0,.31.02.59.04.9.53,5.08,4.79,9.02,9.98,9.02,5.47,0,9.92-4.38,10.03-9.85v-.2c0-.35-.02-.7-.04-1.05-.46-4.23-3.53-7.66-7.55-8.65Z"/><path class="cls-1" d="M971.66,573.76c-.41-.07-.83-.09-1.27-.09h-31.9l-7.05.09-2.5.02c-.13,0-.26.02-.37.02-4.45.7-7.93,4.34-8.39,8.87-.02.13-.04.26-.04.42v80.29c0,5.54,4.49,10.03,10.03,10.03s10.03-4.49,10.03-10.03v-62.2c.28-4.73,2.56-7.29,6.85-7.71h24.94c.26,0,.53,0,.77-.02,4.09-.99,7.2-4.49,7.62-8.78.02-.28.04-.59.04-.88v-.22c-.06-5.04-3.85-9.2-8.76-9.81Z"/><path class="cls-1" d="M1015.75,607.39c-5.54,0-10.03,4.49-10.03,10.03v45.96c0,5.54,4.49,10.03,10.03,10.03s10.03-4.49,10.03-10.03v-45.96c0-5.54-4.49-10.03-10.03-10.03Z"/><path class="cls-1" d="M1100.11,633.56c5.47,0,9.92-4.38,10.03-9.85v-.2c0-.35-.02-.7-.04-1.05-.46-4.23-3.53-7.66-7.55-8.65-.7-.2-1.49-.31-2.26-.31h-.18c-.15,0-.28,0-.44.02-.2,0-.4,0-.59.02-.18.02-.35.04-.53.09-4.51.68-7.99,4.36-8.43,8.91-.02.33-.04.64-.04.96v.13c0,.31.02.59.04.9.53,5.08,4.79,9.02,9.98,9.02Z"/><path class="cls-1" d="M1150.03,663.34c0-.2,0-.4-.02-.61-.02-.2-.04-.35-.09-.53-.7-4.58-4.42-8.1-9.04-8.54-.33-.02-.63-.04-.98-.04h-40.42l-21.44.11c-5.21.13-7.82-3.13-7.82-9.79v-60.25c0-.35-.02-.7-.04-1.05-.46-4.23-3.53-7.66-7.55-8.65-.7-.2-1.49-.31-2.26-.31h-.18c-.15,0-.28,0-.44.02-.2,0-.39,0-.59.02h-.02c-.18.02-.33.04-.5.09-4.51.68-7.99,4.36-8.43,8.91-.02.33-.05.64-.05.96v77.55c0,8.27,3.74,12.52,11.23,12.72l38.08-.04v.04h40.42c.37,0,.72-.02,1.07-.04.64-.07,1.25-.2,1.84-.37,3.41-1.03,6.09-3.79,6.94-7.29.18-.66.28-1.38.28-2.1.02-.07.02-.13.02-.2v-.17c0-.15,0-.29-.02-.44Z"/><path class="cls-1" d="M898.45,573.79c-5.54,0-10.03,4.49-10.03,10.03s4.49,10.03,10.03,10.03,10.03-4.49,10.03-10.03-4.49-10.03-10.03-10.03Z"/><path class="cls-1" d="M755.54,701.82c-1.3-1.3-2.84-2.34-4.61-3.1-1.77-.77-3.66-1.15-5.67-1.15h-21.38c-1.41,0-2.6.49-3.58,1.47s-1.47,2.16-1.47,3.52v41.74c0,1.02.37,1.91,1.12,2.66.75.75,1.63,1.12,2.66,1.12s1.96-.37,2.69-1.12c.73-.75,1.09-1.63,1.09-2.66v-17.8h14.28c1.11,0,2.18.13,3.2.38,1.02.26,1.95.66,2.78,1.22.83.56,1.51,1.29,2.05,2.21.53.92.86,2.04.99,3.36l.96,10.95c.09,1.02.49,1.86,1.22,2.5.72.64,1.62.96,2.69.96,1.19,0,2.13-.43,2.82-1.28.68-.85.98-1.79.9-2.82l-1.41-13.44c-.09-.64-.29-1.33-.61-2.08-.32-.75-.77-1.46-1.34-2.14-.58-.68-1.27-1.3-2.08-1.86-.81-.55-1.75-.96-2.82-1.21,1.66-.3,3.1-.83,4.32-1.6,1.22-.77,2.23-1.67,3.04-2.72.81-1.05,1.42-2.17,1.82-3.36.41-1.2.61-2.37.61-3.52,0-1.96-.38-3.83-1.15-5.6-.77-1.77-1.8-3.31-3.1-4.61ZM751.57,715.04c-.41.94-.96,1.76-1.66,2.47s-1.53,1.26-2.47,1.66c-.94.41-1.94.61-3.01.61h-18.05v-15.49h18.05c1.07,0,2.07.2,3.01.61.94.41,1.76.96,2.47,1.66.7.71,1.26,1.53,1.66,2.47.41.94.61,1.94.61,3.01s-.2,2.07-.61,3.01Z"/><path class="cls-1" d="M818.25,741.35h-27.02v-16.45h24.9c.94,0,1.73-.33,2.37-.99.64-.66.96-1.44.96-2.34s-.32-1.74-.96-2.4c-.64-.66-1.43-.99-2.37-.99h-24.9v-13.89h26.5c.94,0,1.73-.33,2.37-.99.64-.66.96-1.46.96-2.4s-.32-1.73-.96-2.37c-.64-.64-1.43-.96-2.37-.96h-29c-1.41,0-2.6.49-3.58,1.47-.98.98-1.47,2.16-1.47,3.52v40.46c0,.77.15,1.47.45,2.11.3.64.68,1.17,1.15,1.6.47.43,1,.76,1.6.99.6.24,1.22.35,1.86.35h29.51c.9,0,1.67-.32,2.34-.96.66-.64.99-1.43.99-2.37s-.33-1.74-.99-2.4c-.66-.66-1.44-.99-2.34-.99Z"/><path class="cls-1" d="M854.64,708.67c1.39-1.69,3.02-2.99,4.9-3.9,1.88-.92,3.88-1.38,6.02-1.38,1.88,0,3.53.29,4.96.86,1.43.58,2.68,1.34,3.74,2.27,1.07.94,1.94,1.98,2.63,3.14.68,1.15,1.21,2.33,1.6,3.52.26.86.7,1.46,1.35,1.82.64.36,1.32.55,2.05.55.98,0,1.9-.33,2.75-.99.85-.66,1.28-1.57,1.28-2.72,0-1.28-.5-2.79-1.51-4.54-1-1.75-2.41-3.4-4.23-4.96-1.81-1.56-3.97-2.89-6.47-4-2.5-1.11-5.22-1.66-8.16-1.66-3.84,0-7.2.72-10.08,2.18-2.88,1.45-5.27,3.38-7.17,5.79-1.9,2.41-3.33,5.2-4.29,8.35-.96,3.16-1.44,6.43-1.44,9.79s.48,6.69,1.44,9.83c.96,3.14,2.39,5.92,4.29,8.35,1.9,2.43,4.29,4.37,7.17,5.82,2.88,1.45,6.24,2.18,10.08,2.18,3.63,0,6.73-.62,9.31-1.86,2.58-1.24,4.68-2.7,6.31-4.39,1.62-1.68,2.82-3.38,3.59-5.09.77-1.71,1.15-3.03,1.15-3.97,0-1.15-.43-2.05-1.28-2.69-.85-.64-1.77-.96-2.75-.96-.73,0-1.41.18-2.05.55-.64.36-1.09.97-1.35,1.82-.38,1.2-.92,2.38-1.6,3.55-.68,1.17-1.56,2.23-2.63,3.17-1.07.94-2.32,1.7-3.74,2.27-1.43.58-3.09.86-4.96.86-2.13,0-4.14-.46-6.02-1.38-1.88-.92-3.51-2.23-4.9-3.94-1.39-1.71-2.49-3.75-3.29-6.14-.81-2.39-1.22-5.06-1.22-8s.4-5.61,1.22-8c.81-2.39,1.91-4.43,3.29-6.12Z"/><path class="cls-1" d="M951.05,704.47c-2.16-2.39-4.76-4.29-7.81-5.7-3.05-1.41-6.48-2.11-10.28-2.11s-7.22.7-10.27,2.11c-3.05,1.41-5.66,3.31-7.81,5.7-2.16,2.39-3.82,5.17-4.99,8.32-1.17,3.16-1.76,6.49-1.76,9.99s.59,6.89,1.76,10.05c1.17,3.16,2.84,5.93,4.99,8.32,2.16,2.39,4.76,4.29,7.81,5.7,3.05,1.41,6.48,2.11,10.27,2.11s7.22-.7,10.28-2.11c3.05-1.41,5.65-3.31,7.81-5.7,2.16-2.39,3.82-5.16,4.99-8.32,1.17-3.16,1.76-6.51,1.76-10.05s-.59-6.83-1.76-9.99c-1.17-3.16-2.84-5.93-4.99-8.32ZM948.9,730.79c-.9,2.39-2.12,4.43-3.68,6.11-1.56,1.68-3.38,2.99-5.47,3.9-2.09.92-4.35,1.38-6.79,1.38s-4.69-.46-6.78-1.38c-2.09-.92-3.92-2.22-5.47-3.9-1.56-1.68-2.78-3.72-3.68-6.11-.9-2.39-1.34-5.06-1.34-8s.45-5.61,1.34-8c.9-2.39,2.12-4.42,3.68-6.08,1.56-1.66,3.38-2.95,5.47-3.87,2.09-.92,4.35-1.38,6.78-1.38s4.7.46,6.79,1.38c2.09.92,3.91,2.21,5.47,3.87,1.56,1.67,2.78,3.69,3.68,6.08.9,2.39,1.34,5.06,1.34,8s-.45,5.61-1.34,8Z"/><path class="cls-1" d="M1017.95,701.82c-1.3-1.3-2.84-2.34-4.61-3.1-1.77-.77-3.66-1.15-5.67-1.15h-21.38c-1.41,0-2.6.49-3.58,1.47-.98.98-1.47,2.16-1.47,3.52v41.74c0,1.02.37,1.91,1.12,2.66.75.75,1.63,1.12,2.66,1.12s1.96-.37,2.69-1.12c.72-.75,1.09-1.63,1.09-2.66v-17.8h14.28c1.11,0,2.18.13,3.2.38,1.02.26,1.95.66,2.78,1.22.83.56,1.51,1.29,2.05,2.21.53.92.86,2.04.99,3.36l.96,10.95c.09,1.02.49,1.86,1.22,2.5.72.64,1.62.96,2.69.96,1.19,0,2.13-.43,2.82-1.28.68-.85.98-1.79.9-2.82l-1.41-13.44c-.09-.64-.29-1.33-.61-2.08-.32-.75-.77-1.46-1.34-2.14-.58-.68-1.27-1.3-2.08-1.86-.81-.55-1.75-.96-2.82-1.21,1.66-.3,3.1-.83,4.32-1.6,1.22-.77,2.23-1.67,3.04-2.72.81-1.05,1.42-2.17,1.82-3.36.41-1.2.61-2.37.61-3.52,0-1.96-.38-3.83-1.15-5.6-.77-1.77-1.8-3.31-3.1-4.61ZM1013.97,715.04c-.41.94-.96,1.76-1.66,2.47s-1.53,1.26-2.47,1.66c-.94.41-1.94.61-3.01.61h-18.05v-15.49h18.05c1.07,0,2.07.2,3.01.61.94.41,1.76.96,2.47,1.66.7.71,1.26,1.53,1.66,2.47.41.94.61,1.94.61,3.01s-.2,2.07-.61,3.01Z"/><path class="cls-1" d="M1080.65,703.1c-2.01-1.99-4.27-3.4-6.79-4.26-2.52-.85-5.04-1.28-7.55-1.28h-15.17c-1.41,0-2.6.49-3.58,1.47-.98.98-1.47,2.16-1.47,3.52v40.46c0,.77.15,1.47.45,2.11.3.64.68,1.17,1.15,1.6.47.43,1,.76,1.6.99.6.24,1.22.35,1.86.35h15.17c2.52,0,5.04-.43,7.55-1.28,2.52-.85,4.78-2.27,6.79-4.26,2.01-1.98,3.63-4.59,4.86-7.81,1.24-3.22,1.86-7.2,1.86-11.94s-.62-8.65-1.86-11.88c-1.24-3.22-2.86-5.82-4.86-7.81ZM1078.86,730.5c-.6,2.28-1.51,4.23-2.75,5.82-1.24,1.6-2.8,2.84-4.67,3.71-1.88.87-4.08,1.31-6.59,1.31h-11.2v-37.07h11.2c2.52,0,4.71.44,6.59,1.31,1.88.88,3.44,2.11,4.67,3.71,1.24,1.6,2.16,3.54,2.75,5.82.6,2.28.9,4.83.9,7.65s-.3,5.43-.9,7.71Z"/><path class="cls-1" d="M1145.18,723.42c-1.45-1.11-3.1-2.02-4.93-2.72-1.84-.7-3.72-1.31-5.67-1.82-1.94-.51-3.83-1-5.67-1.47-1.83-.47-3.48-1.02-4.93-1.66-1.45-.64-2.61-1.43-3.49-2.37-.87-.94-1.31-2.13-1.31-3.59,0-1.06.27-2.02.8-2.85.53-.83,1.28-1.54,2.24-2.11.96-.58,2.09-1.02,3.39-1.34,1.3-.32,2.72-.48,4.26-.48,1.02,0,2.09.07,3.2.22,1.11.15,2.17.45,3.17.9,1,.45,1.92,1.07,2.75,1.86.83.79,1.5,1.82,2.02,3.1.34.81.79,1.4,1.34,1.76.55.36,1.15.55,1.79.55.9,0,1.72-.33,2.47-.99.75-.66,1.12-1.55,1.12-2.66,0-1.32-.43-2.64-1.28-3.97-.86-1.32-2.06-2.52-3.62-3.59-1.56-1.06-3.41-1.92-5.57-2.56-2.16-.64-4.51-.96-7.07-.96s-5.08.3-7.3.9c-2.22.6-4.14,1.47-5.76,2.62-1.62,1.15-2.89,2.56-3.81,4.23-.92,1.67-1.38,3.56-1.38,5.7,0,2.26.44,4.15,1.31,5.67.87,1.51,2.03,2.79,3.46,3.84,1.43,1.05,3.06,1.9,4.9,2.56,1.83.66,3.71,1.25,5.63,1.76,1.92.51,3.8,1.01,5.63,1.51,1.83.49,3.47,1.1,4.9,1.82,1.43.72,2.58,1.62,3.46,2.69.87,1.07,1.31,2.41,1.31,4.03,0,1.49-.37,2.78-1.12,3.84-.75,1.07-1.71,1.93-2.88,2.59-1.17.66-2.48,1.15-3.9,1.47-1.43.32-2.81.48-4.13.48-1.67,0-3.29-.21-4.87-.64-1.58-.43-3.01-1.06-4.29-1.89-1.28-.83-2.36-1.87-3.23-3.1-.87-1.24-1.44-2.67-1.7-4.29-.13-.98-.49-1.7-1.09-2.14-.6-.45-1.26-.67-1.98-.67-.86,0-1.68.32-2.47.96-.79.64-1.18,1.73-1.18,3.26,0,1.28.38,2.78,1.15,4.51.77,1.73,1.98,3.37,3.65,4.93,1.66,1.56,3.83,2.88,6.5,3.97,2.67,1.09,5.9,1.63,9.7,1.63,2.64,0,5.14-.32,7.49-.96,2.35-.64,4.4-1.6,6.15-2.88,1.75-1.28,3.13-2.88,4.13-4.8,1-1.92,1.5-4.18,1.5-6.79,0-2.35-.44-4.33-1.31-5.95-.88-1.62-2.04-2.99-3.49-4.1Z"/></svg>