<?xml version="1.0" encoding="UTF-8"?><svg id="Layer_1" xmlns="http://www.w3.org/2000/svg" viewBox="0 0 529.25 97.68"><defs><style>.cls-1{fill:#fff;}</style></defs><path class="cls-1" d="M45.17,8.79c-.19-.03-.38-.04-.58-.04h-14.57l-3.22.04h-1.14c-.06.01-.12.02-.17.02-2.03.32-3.62,1.98-3.83,4.05,0,.06-.02.12-.02.19v36.67c0,2.53,2.05,4.58,4.58,4.58s4.58-2.05,4.58-4.58v-28.41c.13-2.16,1.17-3.33,3.13-3.52h11.39c.12,0,.24,0,.35,0,1.87-.45,3.29-2.05,3.48-4.01,0-.13.02-.27.02-.4v-.1c-.03-2.3-1.76-4.2-4-4.48Z"/><path class="cls-1" d="M146.32,11.65c-.89-1.88-2.83-2.83-5.81-2.85-2.99-.03-5,.84-6.03,2.63l-15.85,39.97c-.6,2.05-.08,3.14,1.56,3.27h4.69c1.34-.13,2.26-.85,2.76-2.15l11.31-29.62c1.04-3.18,2.08-3.18,3.13,0l11.47,29.59c.52,1.33,1.46,2.05,2.82,2.18l4.69-.14c1.6-.04,2.12-1,1.56-2.9l-16.3-39.98Z"/><path class="cls-1" d="M216.07,8.99c-.4-.08-.83-.12-1.3-.13-.09,0-.18,0-.27.01-2.31.24-4.11,2.19-4.11,4.56v21.84c0,2.08-1,2.55-3.01,1.39l-24.24-26.04c-1.19-1.14-2.49-1.76-3.91-1.87h-2.23c-2.08.13-3.13,1.32-3.13,3.57v37.63c0,.16.01.31.02.47.24,2.31,2.19,4.11,4.56,4.11,2.5,0,4.53-2,4.58-4.49v-20.47c0-1.93,1.12-1.95,3.35-.05l22.42,23.45c1.06,1.08,2.37,1.6,3.94,1.56h2.45c2.91.04,4.32-1.3,4.25-4.02l.11-31.04v-6.04c0-.16,0-.32-.02-.48-.21-1.93-1.61-3.51-3.46-3.96Z"/><path class="cls-1" d="M271.99,30.56c-3.19-2.31-6.42-3.43-9.67-3.36v9.05c2.56,0,4.19.71,4.88,2.14.3.62.45,1.43.45,2.43,0,1.22-.2,2.09-.59,2.63-.39.54-1.15.99-2.29,1.34-1.34.41-3.46.6-6.36.58h-22.78c-.07,0-.13,0-.2,0-.09,0-.18,0-.27,0-2.17.22-3.88,1.95-4.09,4.12,0,.15-.02.29-.02.44h0c0,.17.01.31.02.47.24,2.31,2.19,4.11,4.56,4.11h22.67c8,0,13.44-2.05,16.33-6.14,1.43-2.07,2.15-4.59,2.15-7.57,0-4.52-1.6-7.94-4.79-10.26Z"/><path class="cls-1" d="M235.84,32.91c3.19,2.32,6.41,3.44,9.67,3.36v-9.04c-2.57,0-4.2-.72-4.89-2.15-.29-.62-.44-1.43-.44-2.43,0-1.21.19-2.08.58-2.62.39-.54,1.16-.99,2.29-1.35,1.34-.4,3.41-.7,6.2-.89h23.77c2-.47,3.49-2.24,3.53-4.37v-.09c0-.16,0-.32-.02-.48-.21-1.93-1.61-3.51-3.46-3.96-.06-.02-.12-.03-.19-.04-.13,0-.26,0-.4,0h-1.79l-21.36.08c-7.87,0-13.25,2.05-16.13,6.14-1.44,2.07-2.15,4.59-2.15,7.57,0,4.52,1.59,7.94,4.79,10.26Z"/><path class="cls-1" d="M389.01,48.39c1.43-2.07,2.09-4.54,1.98-7.43-.15-4.91-2.31-7.81-6.48-8.71,4.17-1.04,6.38-4.24,6.64-9.6,0-2.98-.71-5.5-2.14-7.57-2.89-4.09-8.3-6.18-16.23-6.28h-22.22c-3.42.1-5.13,2.03-5.13,5.81v35.01c0,3.31,1.63,4.95,4.91,4.91l10.05.06h12.28c8.01-.04,13.45-2.11,16.34-6.2ZM381.58,38.39c.3.62.45,1.43.45,2.43,0,1.22-.2,2.09-.59,2.63-.39.54-1.16.99-2.29,1.34-1.34.24-3.5.38-6.48.42h-15.18c-1.94,0-2.91-.92-2.91-2.74v-21.44c0-2.05.97-3.09,2.91-3.13l15.18.06c2.98.07,5.14.32,6.48.72,1.13.36,1.9.81,2.29,1.35.39.54.59,1.41.59,2.62,0,1-.15,1.81-.45,2.43-.69,1.43-2.32,2.15-4.89,2.15v9.02c2.57,0,4.2.71,4.89,2.14Z"/><path class="cls-1" d="M11.46,8.92c-2.53,0-4.58,2.05-4.58,4.58s2.05,4.58,4.58,4.58,4.58-2.05,4.58-4.58-2.05-4.58-4.58-4.58Z"/><path class="cls-1" d="M106.37,22.65c0-2.98-.72-5.5-2.15-7.57-2.88-4.09-8.29-6.18-16.22-6.28h-22.22c-3.43.1-5.14,2.03-5.14,5.81v35.11h0c0,2.17,1.51,3.99,3.54,4.46.33.08.68.12,1.04.12s.73-.04,1.08-.13c1.87-.45,3.29-2.05,3.48-4.01,0-.13.02-.27.02-.4v-.1s0,0,0-.01v-28.34c0-2.23,1.04-3.35,3.13-3.35h15.18c2.83.07,4.92.32,6.26.72,1.13.36,1.89.81,2.29,1.35.39.54.58,1.41.58,2.62,0,1-.15,1.81-.44,2.43-.69,1.43-2.32,2.15-4.89,2.15v9.02c2.57,0,4.2.71,4.89,2.14.29.62.44,1.43.44,2.43l-.08,9.13c-.08,3.06,1.38,4.61,4.38,4.67,3.11-.06,4.66-1.6,4.66-4.64v-9.02c-.15-4.91-2.3-7.81-6.47-8.71,4.17-1.04,6.38-4.24,6.64-9.6Z"/><path class="cls-1" d="M82.28,27.13c-2.53,0-4.58,2.05-4.58,4.58s2.05,4.58,4.58,4.58,4.58-2.05,4.58-4.58-2.05-4.58-4.58-4.58Z"/><path class="cls-1" d="M140.61,44.7c-2.53,0-4.58,2.05-4.58,4.58s2.05,4.58,4.58,4.58,4.58-2.05,4.58-4.58-2.05-4.58-4.58-4.58Z"/><path class="cls-1" d="M200.26,18.76c2.5,0,4.53-2,4.58-4.49v-.09c0-.16,0-.32-.02-.48-.21-1.93-1.61-3.51-3.46-3.96-.35-.09-.72-.14-1.1-.14-.07,0-.13,0-.2,0-.09,0-.18,0-.27.01-2.31.24-4.11,2.19-4.11,4.56h0c0,.17,0,.31.02.47.24,2.31,2.19,4.11,4.56,4.11Z"/><path class="cls-1" d="M311.08,36.27c2.5,0,4.53-2,4.58-4.5v-.09c0-.16,0-.32-.02-.48-.21-1.93-1.61-3.5-3.45-3.95-.32-.09-.68-.14-1.03-.14h-.08c-.07,0-.13,0-.2,0-.09,0-.18,0-.27,0-.08,0-.16.02-.24.04-2.06.31-3.65,1.99-3.85,4.07,0,.15-.02.29-.02.44v.06c0,.14.01.27.02.41.24,2.32,2.19,4.12,4.56,4.12Z"/><path class="cls-1" d="M255.01,27.3c-.06-.02-.12-.03-.19-.04-.29-.07-.6-.1-.91-.1-.07,0-.13,0-.2,0-.09,0-.18,0-.27,0-.18.02-.36.05-.54.09-2.04.46-3.57,2.29-3.57,4.47h0c0,.17,0,.31.02.47.2,1.96,1.65,3.56,3.53,3.99.33.08.67.12,1.03.12s.71-.04,1.05-.12c2-.47,3.49-2.24,3.53-4.37v-.09c0-.16,0-.32-.02-.48-.21-1.93-1.61-3.51-3.46-3.96Z"/><path class="cls-1" d="M333.95,31.81V13.37c0-.16,0-.32-.02-.48-.21-1.93-1.63-3.5-3.5-3.95-.32-.09-.69-.14-1.04-.14h-.08c-.07,0-.13,0-.2.01-.18,0-.36.02-.52.05-2.09.31-3.7,1.99-3.91,4.07,0,.15-.02.29-.02.44l-.03,18.27c.13,3.03-.45,5.58-1.73,7.65-2.59,4.17-6.53,6.25-11.81,6.25-2.37,0-4.59-.52-6.68-1.56-4.68-2.33-7.03-6.39-7.03-12.17V13.43c0-.16,0-.32-.02-.48-.21-1.93-1.61-3.5-3.45-3.95-.32-.09-.68-.14-1.03-.14h-.08c-.07,0-.13,0-.2.01-.18,0-.35.02-.51.05-2.06.31-3.65,1.99-3.85,4.07,0,.15-.02.29-.02.44v18.38c0,6.85,2.1,12.37,6.3,16.56,4.19,4.2,9.72,6.3,16.57,6.3s12.39-2.09,16.58-6.28c4.19-4.19,6.28-9.72,6.28-16.58Z"/><path class="cls-1" d="M368.19,27.2c-.32-.09-.68-.14-1.03-.14h-.08c-.07,0-.13,0-.2,0-.09,0-.18,0-.27,0-.08,0-.16.02-.24.04-2.06.31-3.65,1.99-3.85,4.07,0,.15-.02.29-.02.44v.06c0,.14.01.27.02.41.24,2.32,2.19,4.12,4.56,4.12,2.5,0,4.53-2,4.58-4.5v-.09c0-.16,0-.32-.02-.48-.21-1.93-1.61-3.5-3.45-3.95Z"/><path class="cls-1" d="M462.14,8.89c-.32-.09-.68-.14-1.03-.14h-.08c-.07,0-.13,0-.2,0-.09,0-.18,0-.27,0-.08,0-.16.02-.24.04-2.06.31-3.65,1.99-3.85,4.07,0,.15-.02.29-.02.44v.06c0,.14.01.27.02.41.24,2.32,2.19,4.12,4.56,4.12,2.5,0,4.53-2,4.58-4.5v-.09c0-.16,0-.32-.02-.48-.21-1.93-1.61-3.5-3.45-3.95Z"/><path class="cls-1" d="M440.89,8.91c-.19-.03-.38-.04-.58-.04h-14.57l-3.22.04h-1.14c-.06.01-.12.02-.17.02-2.03.32-3.62,1.98-3.83,4.05,0,.06-.02.12-.02.19v36.67c0,2.53,2.05,4.58,4.58,4.58s4.58-2.05,4.58-4.58v-28.41c.13-2.16,1.17-3.33,3.13-3.52h11.39c.12,0,.24,0,.35,0,1.87-.45,3.29-2.05,3.48-4.01,0-.13.02-.27.02-.4v-.1c-.03-2.3-1.76-4.2-4-4.48Z"/><path class="cls-1" d="M461.03,24.27c-2.53,0-4.58,2.05-4.58,4.58v20.99c0,2.53,2.05,4.58,4.58,4.58s4.58-2.05,4.58-4.58v-20.99c0-2.53-2.05-4.58-4.58-4.58Z"/><path class="cls-1" d="M499.56,36.22c2.5,0,4.53-2,4.58-4.5v-.09c0-.16,0-.32-.02-.48-.21-1.93-1.61-3.5-3.45-3.95-.32-.09-.68-.14-1.03-.14h-.08c-.07,0-.13,0-.2,0-.09,0-.18,0-.27,0-.08,0-.16.02-.24.04-2.06.31-3.65,1.99-3.85,4.07,0,.15-.02.29-.02.44v.06c0,.14.01.27.02.41.24,2.32,2.19,4.12,4.56,4.12Z"/><path class="cls-1" d="M522.36,49.82c0-.09,0-.18,0-.28-.01-.09-.02-.16-.04-.24-.32-2.09-2.02-3.7-4.13-3.9-.15-.01-.29-.02-.45-.02h-18.46l-9.79.05c-2.38.06-3.57-1.43-3.57-4.47V13.44c0-.16,0-.32-.02-.48-.21-1.93-1.61-3.5-3.45-3.95-.32-.09-.68-.14-1.03-.14h-.08c-.07,0-.13,0-.2,0-.09,0-.18,0-.27.01h0c-.08,0-.15.02-.23.04-2.06.31-3.65,1.99-3.85,4.07-.01.15-.02.29-.02.44v35.42c0,3.78,1.71,5.72,5.13,5.81l17.39-.02v.02h18.46c.17,0,.33,0,.49-.02.29-.03.57-.09.84-.17,1.56-.47,2.78-1.73,3.17-3.33.08-.3.13-.63.13-.96,0-.03,0-.06,0-.09v-.08c0-.07,0-.13,0-.2Z"/><path class="cls-1" d="M407.46,8.92c-2.53,0-4.58,2.05-4.58,4.58s2.05,4.58,4.58,4.58,4.58-2.05,4.58-4.58-2.05-4.58-4.58-4.58Z"/><path class="cls-1" d="M342.19,67.4c-.59-.59-1.3-1.07-2.11-1.42-.81-.35-1.67-.53-2.59-.53h-9.77c-.64,0-1.19.22-1.64.67s-.67.99-.67,1.61v19.06c0,.47.17.87.51,1.21.34.34.75.51,1.21.51s.9-.17,1.23-.51c.33-.34.5-.75.5-1.21v-8.13h6.52c.51,0,.99.06,1.46.17s.89.3,1.27.56c.38.25.69.59.94,1.01.24.42.39.93.45,1.54l.44,5c.04.47.22.85.56,1.14.33.29.74.44,1.23.44.54,0,.97-.19,1.29-.59.31-.39.45-.82.41-1.29l-.64-6.14c-.04-.29-.13-.61-.28-.95s-.35-.67-.61-.98c-.26-.31-.58-.59-.95-.85-.37-.25-.8-.44-1.29-.55.76-.14,1.42-.38,1.97-.73.56-.35,1.02-.76,1.39-1.24.37-.48.65-.99.83-1.54.19-.55.28-1.08.28-1.61,0-.9-.18-1.75-.53-2.56-.35-.81-.82-1.51-1.42-2.1ZM340.37,73.43c-.19.43-.44.8-.76,1.13s-.7.58-1.13.76c-.43.19-.89.28-1.37.28h-8.25v-7.08h8.25c.49,0,.95.09,1.37.28.43.19.8.44,1.13.76.32.32.57.7.76,1.13.19.43.28.89.28,1.37s-.09.95-.28,1.37Z"/><path class="cls-1" d="M370.83,85.45h-12.34v-7.51h11.37c.43,0,.79-.15,1.08-.45.29-.3.44-.66.44-1.07s-.15-.79-.44-1.1c-.29-.3-.65-.45-1.08-.45h-11.37v-6.34h12.1c.43,0,.79-.15,1.08-.45.29-.3.44-.67.44-1.1s-.15-.79-.44-1.08c-.29-.29-.65-.44-1.08-.44h-13.25c-.64,0-1.19.22-1.64.67-.45.45-.67.99-.67,1.61v18.48c0,.35.07.67.2.96.14.29.31.54.53.73.21.19.46.35.73.45.27.11.56.16.85.16h13.48c.41,0,.76-.15,1.07-.44.3-.29.45-.65.45-1.08s-.15-.79-.45-1.1-.66-.45-1.07-.45Z"/><path class="cls-1" d="M387.45,70.53c.63-.77,1.38-1.36,2.24-1.78.86-.42,1.77-.63,2.75-.63.86,0,1.61.13,2.27.39.65.26,1.22.61,1.71,1.04.49.43.89.91,1.2,1.43.31.53.55,1.06.73,1.61.12.39.32.67.61.83.29.17.6.25.94.25.45,0,.87-.15,1.26-.45.39-.3.58-.72.58-1.24,0-.58-.23-1.28-.69-2.08-.46-.8-1.1-1.55-1.93-2.27-.83-.71-1.81-1.32-2.95-1.83-1.14-.51-2.38-.76-3.73-.76-1.75,0-3.29.33-4.6.99-1.32.66-2.41,1.54-3.28,2.65-.87,1.1-1.52,2.37-1.96,3.82-.44,1.44-.66,2.93-.66,4.47s.22,3.06.66,4.49c.44,1.43,1.09,2.7,1.96,3.82.87,1.11,1.96,2,3.28,2.66,1.32.66,2.85.99,4.6.99,1.66,0,3.08-.28,4.25-.85,1.18-.57,2.14-1.23,2.88-2,.74-.77,1.29-1.54,1.64-2.32.35-.78.53-1.38.53-1.81,0-.53-.2-.94-.58-1.23-.39-.29-.81-.44-1.26-.44-.33,0-.64.08-.94.25-.29.17-.5.44-.61.83-.18.55-.42,1.09-.73,1.62-.31.54-.71,1.02-1.2,1.45-.49.43-1.06.77-1.71,1.04-.65.26-1.41.39-2.27.39-.97,0-1.89-.21-2.75-.63-.86-.42-1.6-1.02-2.24-1.8-.63-.78-1.14-1.71-1.5-2.81-.37-1.09-.56-2.31-.56-3.66s.18-2.56.56-3.65c.37-1.09.87-2.02,1.5-2.79Z"/><path class="cls-1" d="M431.48,68.61c-.98-1.09-2.17-1.96-3.57-2.6-1.39-.64-2.96-.96-4.69-.96s-3.3.32-4.69.96c-1.39.64-2.58,1.51-3.57,2.6-.98,1.09-1.74,2.36-2.28,3.8-.54,1.44-.8,2.96-.8,4.56s.27,3.15.8,4.59c.54,1.44,1.3,2.71,2.28,3.8s2.17,1.96,3.57,2.6c1.39.64,2.96.96,4.69.96s3.3-.32,4.69-.96c1.39-.64,2.58-1.51,3.57-2.6.98-1.09,1.75-2.36,2.28-3.8.54-1.44.8-2.97.8-4.59s-.27-3.12-.8-4.56c-.54-1.44-1.3-2.71-2.28-3.8ZM430.5,80.63c-.41,1.09-.97,2.02-1.68,2.79-.71.77-1.54,1.36-2.5,1.78-.96.42-1.99.63-3.1.63s-2.14-.21-3.1-.63c-.95-.42-1.79-1.01-2.5-1.78-.71-.77-1.27-1.7-1.68-2.79-.41-1.09-.61-2.31-.61-3.66s.2-2.56.61-3.65c.41-1.09.97-2.02,1.68-2.78.71-.76,1.54-1.35,2.5-1.77.96-.42,1.99-.63,3.1-.63s2.14.21,3.1.63c.96.42,1.79,1.01,2.5,1.77.71.76,1.27,1.69,1.68,2.78.41,1.09.61,2.31.61,3.65s-.2,2.56-.61,3.66Z"/><path class="cls-1" d="M462.03,67.4c-.59-.59-1.3-1.07-2.11-1.42-.81-.35-1.67-.53-2.59-.53h-9.77c-.64,0-1.19.22-1.64.67s-.67.99-.67,1.61v19.06c0,.47.17.87.51,1.21.34.34.75.51,1.21.51s.9-.17,1.23-.51c.33-.34.5-.75.5-1.21v-8.13h6.52c.51,0,.99.06,1.46.17s.89.3,1.27.56c.38.25.69.59.94,1.01.24.42.39.93.45,1.54l.44,5c.04.47.22.85.56,1.14.33.29.74.44,1.23.44.54,0,.97-.19,1.29-.59.31-.39.45-.82.41-1.29l-.64-6.14c-.04-.29-.13-.61-.28-.95s-.35-.67-.61-.98c-.26-.31-.58-.59-.95-.85-.37-.25-.8-.44-1.29-.55.76-.14,1.42-.38,1.97-.73.56-.35,1.02-.76,1.39-1.24.37-.48.65-.99.83-1.54.19-.55.28-1.08.28-1.61,0-.9-.18-1.75-.53-2.56-.35-.81-.82-1.51-1.42-2.1ZM460.22,73.43c-.19.43-.44.8-.76,1.13s-.7.58-1.13.76c-.43.19-.89.28-1.37.28h-8.25v-7.08h8.25c.49,0,.95.09,1.37.28.43.19.8.44,1.13.76.32.32.57.7.76,1.13.19.43.28.89.28,1.37s-.09.95-.28,1.37Z"/><path class="cls-1" d="M490.67,67.98c-.92-.91-1.95-1.55-3.1-1.94-1.15-.39-2.3-.58-3.45-.58h-6.93c-.64,0-1.19.22-1.64.67-.45.45-.67.99-.67,1.61v18.48c0,.35.07.67.21.96.14.29.31.54.53.73.21.19.46.35.73.45.27.11.56.16.85.16h6.93c1.15,0,2.3-.19,3.45-.59,1.15-.39,2.18-1.04,3.1-1.94.92-.91,1.66-2.09,2.22-3.57.57-1.47.85-3.29.85-5.45s-.28-3.95-.85-5.42c-.57-1.47-1.31-2.66-2.22-3.57ZM489.85,80.5c-.27,1.04-.69,1.93-1.26,2.66-.57.73-1.28,1.3-2.13,1.7-.86.4-1.86.6-3.01.6h-5.12v-16.93h5.12c1.15,0,2.15.2,3.01.6.86.4,1.57.96,2.13,1.7.57.73.98,1.62,1.26,2.66.27,1.04.41,2.21.41,3.49s-.14,2.48-.41,3.52Z"/><path class="cls-1" d="M520.14,77.27c-.66-.51-1.41-.92-2.25-1.24-.84-.32-1.7-.6-2.59-.83-.89-.23-1.75-.46-2.59-.67-.84-.21-1.59-.47-2.25-.76-.66-.29-1.19-.65-1.59-1.08s-.6-.97-.6-1.64c0-.49.12-.92.37-1.3.24-.38.58-.7,1.02-.96.44-.26.95-.47,1.55-.61.59-.15,1.24-.22,1.94-.22.47,0,.96.03,1.46.1.51.07.99.21,1.45.41.46.2.88.49,1.26.85.38.36.69.83.92,1.42.16.37.36.64.61.8.25.17.53.25.82.25.41,0,.78-.15,1.13-.45.34-.3.51-.71.51-1.21,0-.6-.19-1.21-.58-1.81-.39-.6-.94-1.15-1.65-1.64-.71-.49-1.56-.88-2.54-1.17-.98-.29-2.06-.44-3.23-.44s-2.32.14-3.33.41c-1.01.27-1.89.67-2.63,1.2-.74.53-1.32,1.17-1.74,1.93-.42.76-.63,1.63-.63,2.6,0,1.03.2,1.9.6,2.59.4.69.93,1.28,1.58,1.75.65.48,1.4.87,2.24,1.17.84.3,1.7.57,2.57.8.88.23,1.73.46,2.57.69.84.22,1.58.5,2.24.83.65.33,1.18.74,1.58,1.23.4.49.6,1.1.6,1.84,0,.68-.17,1.27-.51,1.75-.34.49-.78.88-1.32,1.18-.54.3-1.13.53-1.78.67-.65.15-1.28.22-1.89.22-.76,0-1.5-.1-2.22-.29-.72-.19-1.37-.48-1.96-.86-.58-.38-1.08-.85-1.48-1.42-.4-.57-.66-1.22-.77-1.96-.06-.45-.22-.77-.5-.98-.27-.21-.58-.31-.91-.31-.39,0-.77.15-1.13.44-.36.29-.54.79-.54,1.49,0,.58.18,1.27.53,2.06.35.79.91,1.54,1.67,2.25.76.71,1.75,1.32,2.97,1.81,1.22.5,2.69.75,4.43.75,1.21,0,2.35-.15,3.42-.44,1.07-.29,2.01-.73,2.81-1.32.8-.58,1.43-1.32,1.89-2.19.46-.88.69-1.91.69-3.1,0-1.07-.2-1.98-.6-2.72-.4-.74-.93-1.36-1.59-1.87Z"/></svg>